<?xml version="1.0" encoding="UTF-8" standalone="no"?>
<svg
   xmlns:dc="http://purl.org/dc/elements/1.1/"
   xmlns:cc="http://creativecommons.org/ns#"
   xmlns:rdf="http://www.w3.org/1999/02/22-rdf-syntax-ns#"
   xmlns:svg="http://www.w3.org/2000/svg"
   xmlns="http://www.w3.org/2000/svg"
   id="svg10584"
   version="1.1"
   viewBox="0 0 9.7041454 9.7068958"
   height="9.7068958mm"
   width="9.7041454mm">
  <defs
     id="defs10578" />
  <metadata
     id="metadata10581">
    <rdf:RDF>
      <cc:Work
         rdf:about="">
        <dc:format>image/svg+xml</dc:format>
        <dc:type
           rdf:resource="http://purl.org/dc/dcmitype/StillImage" />
        <dc:title></dc:title>
      </cc:Work>
    </rdf:RDF>
  </metadata>
  <g
     transform="translate(-159.94555,-265.68822)"
     id="layer1">
    <path
       style="fill:#ffffff;fill-opacity:1;fill-rule:nonzero;stroke:#000000;stroke-width:0.06614575;stroke-linecap:round;stroke-linejoin:miter;stroke-miterlimit:4;stroke-opacity:1"
       d="m 169.61662,270.54167 c 0,2.66237 -2.15801,4.82037 -4.819,4.82037 -2.66099,0 -4.819,-2.158 -4.819,-4.82037 0,-2.66237 2.15801,-4.82038 4.819,-4.82038 2.66099,0 4.819,2.15801 4.819,4.82038 z m 0,0"
       id="path1905" />
    <path
       style="fill:none;stroke:#000000;stroke-width:0.06614575;stroke-linecap:round;stroke-linejoin:miter;stroke-miterlimit:4;stroke-opacity:1"
       d="m 164.79762,269.25596 v -2.5728"
       id="path1907" />
    <path
       style="fill:#000000;fill-opacity:1;fill-rule:evenodd;stroke:none;stroke-width:0.35277775"
       d="m 164.5041,267.39147 0.29214,-0.79513 0.29215,0.79513 c -0.17226,-0.12678 -0.4079,-0.12678 -0.58429,0 z m 0,0"
       id="path1909" />
    <path
       style="fill:none;stroke:#000000;stroke-width:0.06614575;stroke-linecap:round;stroke-linejoin:miter;stroke-miterlimit:4;stroke-opacity:1"
       d="m 166.08333,270.54167 h 2.57142"
       id="path1911" />
    <path
       style="fill:#000000;fill-opacity:1;fill-rule:evenodd;stroke:none;stroke-width:0.35277775"
       d="m 167.94781,270.24815 0.79375,0.29214 -0.79375,0.29214 c 0.12678,-0.17225 0.12541,-0.40789 0,-0.58428 z m 0,0"
       id="path1913" />
    <path
       style="fill:none;stroke:#000000;stroke-width:0.06614575;stroke-linecap:round;stroke-linejoin:miter;stroke-miterlimit:4;stroke-opacity:1"
       d="m 163.51191,270.54167 h -2.57004"
       id="path1915" />
    <path
       style="fill:#000000;fill-opacity:1;fill-rule:evenodd;stroke:none;stroke-width:0.35277775"
       d="m 161.6488,270.83519 -0.79513,-0.29215 0.79513,-0.29214 c -0.12678,0.17226 -0.12678,0.4079 0,0.58429 z m 0,0"
       id="path1917" />
    <path
       style="fill:none;stroke:#000000;stroke-width:0.06614575;stroke-linecap:round;stroke-linejoin:miter;stroke-miterlimit:4;stroke-opacity:1"
       d="m 164.79762,271.82738 v 2.5728"
       id="path1919" />
    <path
       style="fill:#000000;fill-opacity:1;fill-rule:evenodd;stroke:none;stroke-width:0.35277775"
       d="m 165.09114,273.69324 -0.29214,0.79513 -0.29215,-0.79513 c 0.17226,0.12678 0.4079,0.1254 0.58429,0 z m 0,0"
       id="path1921" />
    <path
       style="fill:#d4dceb;fill-opacity:0.57254896;fill-rule:nonzero;stroke:#1e1917;stroke-width:0.06614575;stroke-linecap:round;stroke-linejoin:miter;stroke-miterlimit:4;stroke-opacity:1"
       d="m 165.44116,270.54167 c 0,0.35553 -0.28801,0.64354 -0.64354,0.64354 -0.35416,0 -0.64217,-0.28801 -0.64217,-0.64354 0,-0.35554 0.28801,-0.64217 0.64217,-0.64217 0.35553,0 0.64354,0.28663 0.64354,0.64217 z m 0,0"
       id="path1923" />
  </g>
</svg>
