<?xml version="1.0" encoding="UTF-8" standalone="no"?>
<svg
   xmlns:dc="http://purl.org/dc/elements/1.1/"
   xmlns:cc="http://creativecommons.org/ns#"
   xmlns:rdf="http://www.w3.org/1999/02/22-rdf-syntax-ns#"
   xmlns:svg="http://www.w3.org/2000/svg"
   xmlns="http://www.w3.org/2000/svg"
   id="svg10584"
   version="1.1"
   viewBox="0 0 9.2750892 9.2789097"
   height="9.2789097mm"
   width="9.2750893mm">
  <defs
     id="defs10578" />
  <metadata
     id="metadata10581">
    <rdf:RDF>
      <cc:Work
         rdf:about="">
        <dc:format>image/svg+xml</dc:format>
        <dc:type
           rdf:resource="http://purl.org/dc/dcmitype/StillImage" />
        <dc:title></dc:title>
      </cc:Work>
    </rdf:RDF>
  </metadata>
  <g
     transform="translate(-159.98522,-265.81117)"
     id="layer1">
    <path
       style="fill:#ffffff;fill-opacity:1;fill-rule:nonzero;stroke:#000000;stroke-width:0.06614573;stroke-linecap:round;stroke-linejoin:miter;stroke-miterlimit:4;stroke-opacity:1"
       d="m 168.97668,271.94512 c -0.82545,2.40605 -3.44372,3.68763 -5.8484,2.86081 -2.40467,-0.82545 -3.68487,-3.4451 -2.85943,-5.85115 0.82545,-2.40468 3.44372,-3.68626 5.8484,-2.85944 2.40467,0.82545 3.68487,3.4451 2.85943,5.84978 z m 0,0"
       id="path1871" />
    <path
       style="fill:none;stroke:#000000;stroke-width:0.06614573;stroke-linecap:round;stroke-linejoin:miter;stroke-miterlimit:4;stroke-opacity:1"
       d="m 162.99875,270.23222 4.86309,1.67018"
       id="path1873" />
    <path
       style="fill:#000000;fill-opacity:1;fill-rule:evenodd;stroke:none;stroke-width:0.35277775"
       d="m 167.28858,271.39528 0.65595,0.53468 -0.84612,0.0193 c 0.17639,-0.12265 0.25218,-0.34589 0.19017,-0.55397 z m 0,0"
       id="path1875" />
    <path
       style="fill:none;stroke:#000000;stroke-width:0.06614573;stroke-linecap:round;stroke-linejoin:miter;stroke-miterlimit:4;stroke-opacity:1"
       d="m 165.63907,270.45959 -4.25535,-1.4622"
       id="path1877" />
    <path
       style="fill:#000000;fill-opacity:1;fill-rule:evenodd;stroke:none;stroke-width:0.35277775"
       d="m 161.95695,269.50599 -0.65732,-0.53468 0.84611,-0.0193 c -0.17501,0.12265 -0.25218,0.34589 -0.18879,0.55398 z m 0,0"
       id="path1879" />
    <path
       style="fill:none;stroke:#000000;stroke-width:0.06614573;stroke-linecap:round;stroke-linejoin:miter;stroke-miterlimit:4;stroke-opacity:1"
       d="m 163.79663,271.86657 1.67015,-4.86586"
       id="path1881" />
    <path
       style="fill:#000000;fill-opacity:1;fill-rule:evenodd;stroke:none;stroke-width:0.35277775"
       d="m 164.9597,267.57536 0.5333,-0.65732 0.0193,0.84611 c -0.12264,-0.17501 -0.34589,-0.25218 -0.55259,-0.18879 z m 0,0"
       id="path1883" />
    <path
       style="fill:none;stroke:#000000;stroke-width:0.06614573;stroke-linecap:round;stroke-linejoin:miter;stroke-miterlimit:4;stroke-opacity:1"
       d="m 165.44752,269.0347 -1.66888,4.86445"
       id="path1885" />
    <path
       style="fill:#000000;fill-opacity:1;fill-rule:evenodd;stroke:none;stroke-width:0.35277775"
       d="m 164.28584,273.32591 -0.53468,0.65733 -0.0179,-0.8475 c 0.12127,0.17639 0.34451,0.25218 0.5526,0.19017 z m 0,0"
       id="path1887" />
  </g>
</svg>
