<?xml version="1.0" encoding="UTF-8" standalone="no"?>
<svg
   xmlns:dc="http://purl.org/dc/elements/1.1/"
   xmlns:cc="http://creativecommons.org/ns#"
   xmlns:rdf="http://www.w3.org/1999/02/22-rdf-syntax-ns#"
   xmlns:svg="http://www.w3.org/2000/svg"
   xmlns="http://www.w3.org/2000/svg"
   id="svg1772"
   version="1.1"
   viewBox="0 0 9.1667795 9.1714449"
   height="9.1714449mm"
   width="9.1667795mm">
  <defs
     id="defs1766">
    <clipPath
       id="clip13">
      <path
         d="m 26,381 h 27 v 27 H 26 Z m 0,0"
         id="path1151" />
    </clipPath>
    <clipPath
       id="clip14">
      <path
         d="m 22.878906,384.47266 26.234375,-6.73438 6.730469,26.25 -26.238281,6.73047 z m 0,0"
         id="path1154" />
    </clipPath>
    <clipPath
       id="clip11">
      <path
         d="m 36,381 h 17 v 20 H 36 Z m 0,0"
         id="path1145" />
    </clipPath>
    <clipPath
       id="clip12">
      <path
         d="m 22.878906,384.47266 26.234375,-6.73438 6.730469,26.25 -26.238281,6.73047 z m 0,0"
         id="path1148" />
    </clipPath>
    <clipPath
       id="clip9">
      <path
         d="m 26,384 h 16 v 24 H 26 Z m 0,0"
         id="path1139" />
    </clipPath>
    <clipPath
       id="clip10">
      <path
         d="m 22.878906,384.47266 26.234375,-6.73438 6.730469,26.25 -26.238281,6.73047 z m 0,0"
         id="path1142" />
    </clipPath>
    <clipPath
       id="clip7">
      <path
         d="m 36,381 h 17 v 20 H 36 Z m 0,0"
         id="path1133" />
    </clipPath>
    <clipPath
       id="clip8">
      <path
         d="m 22.878906,384.47266 26.234375,-6.73438 6.730469,26.25 -26.238281,6.73047 z m 0,0"
         id="path1136" />
    </clipPath>
    <clipPath
       id="clip5">
      <path
         d="m 26,384 h 16 v 24 H 26 Z m 0,0"
         id="path1127" />
    </clipPath>
    <clipPath
       id="clip6">
      <path
         d="m 22.878906,384.47266 26.234375,-6.73438 6.730469,26.25 -26.238281,6.73047 z m 0,0"
         id="path1130" />
    </clipPath>
    <clipPath
       id="clip3">
      <path
         d="m 26,385 h 16 v 23 H 26 Z m 0,0"
         id="path1121" />
    </clipPath>
    <clipPath
       id="clip4">
      <path
         d="m 22.878906,384.47266 26.234375,-6.73438 6.730469,26.25 -26.238281,6.73047 z m 0,0"
         id="path1124" />
    </clipPath>
    <clipPath
       id="clip1">
      <path
         d="m 26,381 h 27 v 27 H 26 Z m 0,0"
         id="path1115" />
    </clipPath>
    <clipPath
       id="clip2">
      <path
         d="m 22.878906,384.47266 26.234375,-6.73438 6.730469,26.25 -26.238281,6.73047 z m 0,0"
         id="path1118" />
    </clipPath>
  </defs>
  <metadata
     id="metadata1769">
    <rdf:RDF>
      <cc:Work
         rdf:about="">
        <dc:format>image/svg+xml</dc:format>
        <dc:type
           rdf:resource="http://purl.org/dc/dcmitype/StillImage" />
        <dc:title></dc:title>
      </cc:Work>
    </rdf:RDF>
  </metadata>
  <g
     transform="translate(-86.130898,-101.91428)"
     id="layer1">
    <g
       style="clip-rule:nonzero"
       id="g1941"
       clip-path="url(#clip1)"
       transform="matrix(0.35277777,0,0,0.35277777,76.829167,-32.574761)">
      <g
         style="clip-rule:nonzero"
         id="g1939"
         clip-path="url(#clip2)">
        <path
           id="path1937"
           transform="matrix(0.999603,-0.256444,0.256342,1,0,1e-6)"
           d="m -45.415326,379.1582 -0.007,-0.21663 -0.02128,-0.43515 -0.01797,-0.21945 -0.04516,-0.43345 -0.0617,-0.42989 -0.03452,-0.21588 -0.08558,-0.4282 -0.04646,-0.21504 -0.05106,-0.21231 -0.111341,-0.41918 -0.063,-0.21147 -0.06488,-0.20414 -0.07128,-0.20968 -0.07222,-0.20602 -0.07682,-0.2033 -0.08049,-0.20423 -0.08143,-0.20057 -0.179407,-0.39757 -0.188621,-0.39212 -0.102583,-0.19428 -0.103524,-0.19061 -0.10719,-0.19155 -0.111796,-0.18883 -0.112737,-0.18516 -0.117343,-0.18243 -0.12101,-0.18338 -0.12195,-0.17971 -0.126556,-0.17699 -0.262326,-0.34852 -0.135769,-0.17153 -0.140377,-0.16881 -0.141316,-0.16515 -0.291845,-0.32484 -0.302938,-0.31206 -0.156076,-0.15331 -0.157015,-0.14964 -0.161623,-0.14692 -0.166228,-0.14419 -0.162563,-0.14325 -0.168108,-0.13686 -0.171776,-0.1378 -0.172715,-0.13413 -0.174595,-0.12681 -0.178262,-0.12774 -0.179201,-0.12408 -0.183809,-0.12136 -0.184748,-0.11769 -0.185688,-0.11403 -0.186628,-0.11035 -0.191235,-0.10764 -0.188507,-0.10303 -0.196782,-0.10124 -0.194054,-0.0966 -0.194994,-0.093 -0.199601,-0.0903 -0.200541,-0.0866 -0.402961,-0.16584 -0.207028,-0.0765 -0.2043,-0.0719 -0.208907,-0.0692 -0.206181,-0.0646 -0.210786,-0.0619 -0.208061,-0.0573 -0.425333,-0.10907 -0.21088,-0.0463 -0.215487,-0.0435 -0.21276,-0.0389 -0.217366,-0.0362 -0.21464,-0.0316 -0.215579,-0.0279 -0.21652,-0.0243 -0.217459,-0.0206 -0.436799,-0.0339 -0.216612,-0.009 -0.217552,-0.005 -0.218493,-0.001 -0.219432,0.002 -0.433411,0.0139 -0.218585,0.0143 -0.219526,0.0179 -0.215858,0.0189 -0.217739,0.0262 -0.214072,0.0271 -0.431903,0.0689 -0.213225,0.0391 -0.214164,0.0427 -0.637134,0.15301 -0.210591,0.0593 -0.415729,0.12776 -0.208805,0.0675 -0.20335,0.0768 -0.207018,0.0758 -0.199684,0.0777 -0.205231,0.0841 -0.197897,0.086 -0.199777,0.0933 -0.392221,0.18848 -0.194324,0.10251 -0.190657,0.10345 -0.18793,0.10806 -0.18887,0.11172 -0.185204,0.11266 -0.186143,0.11633 -0.3595,0.24375 -0.177024,0.12648 -0.177963,0.13014 -0.17063,0.13202 -0.171569,0.13569 -0.168843,0.1403 -0.165177,0.14123 -0.166116,0.1449 -0.158783,0.14679 -0.159723,0.15044 -0.152389,0.15233 -0.15333,0.15599 -0.150602,0.1606 -0.149663,0.15693 -0.144209,0.16614 -0.281086,0.33417 -0.133209,0.16897 -0.134149,0.17262 -0.255512,0.35636 -0.124089,0.17911 -0.120422,0.18006 -0.117696,0.18466 -0.114029,0.1856 -0.110362,0.18654 -0.107636,0.19115 -0.103969,0.19209 -0.100302,0.19303 -0.09664,0.19396 -0.09391,0.19858 -0.09024,0.19951 -0.173151,0.40091 -0.07924,0.20234 -0.07558,0.20327 -0.07285,0.20788 -0.06824,0.20516 -0.06552,0.20976 -0.06091,0.20704 -0.06185,0.2107 -0.05451,0.21258 -0.04991,0.20986 -0.04718,0.21446 -0.04351,0.2154 -0.03891,0.21268 -0.03618,0.21729 -0.03158,0.21455 -0.02791,0.2155 -0.04848,0.43288 -0.01691,0.21832 -0.01324,0.21926 -0.0086,0.21654 -0.005,0.21747 -0.0013,0.21842 0.0024,0.21936 0.0033,0.21569 0.0097,0.22124 0.01524,0.21484 0.0143,0.21851 0.02258,0.21673 0.05249,0.43534 0.03085,0.21494 0.03912,0.21316 0.03818,0.21682 0.04279,0.2141 0.0474,0.21137 0.05106,0.21232 0.05567,0.20959 0.118675,0.42106 0.06761,0.20874 0.06855,0.20508 0.07222,0.20602 0.07682,0.20329 0.08049,0.20424 0.170194,0.40302 0.0897,0.19878 0.09431,0.19606 0.197834,0.38667 0.102583,0.19428 0.10813,0.18789 0.111797,0.18882 0.112736,0.18516 0.117343,0.18244 0.12101,0.18337 0.125617,0.18066 0.253112,0.35397 0.271539,0.34307 0.13671,0.16787 0.141316,0.16515 0.291845,0.32484 0.150529,0.15969 0.156076,0.15331 0.152409,0.15237 0.321365,0.30116 0.162562,0.14325 0.334337,0.28105 0.169049,0.13319 0.172715,0.13414 0.177322,0.13141 0.358403,0.24816 0.180142,0.12042 0.184748,0.11769 0.185688,0.11402 0.186628,0.11036 0.191235,0.10763 0.192174,0.10397 0.193115,0.10031 0.194054,0.0966 0.198661,0.0939 0.199601,0.0902 0.195934,0.0893 0.205148,0.0839 0.20242,0.0793 0.203361,0.0756 0.2043,0.0719 0.208908,0.0692 0.20618,0.0646 0.209847,0.0655 0.211727,0.0582 0.209,0.0536 0.213607,0.0509 0.21088,0.0463 0.215486,0.0435 0.216427,0.0399 0.213699,0.0353 0.21464,0.0316 0.215579,0.0279 0.219247,0.0289 0.217459,0.0206 0.214733,0.016 0.219339,0.0133 0.216612,0.009 0.217553,0.005 0.436984,0.003 0.220373,-0.006 0.217645,-0.0106 0.214919,-0.0152 0.218585,-0.0143 0.216799,-0.0225 0.435477,-0.0524 0.215011,-0.0308 0.213225,-0.0391 0.216892,-0.0381 0.210498,-0.0437 0.215104,-0.0464 0.212378,-0.051 0.209652,-0.0556 0.421182,-0.11855 0.208804,-0.0676 0.205138,-0.0685 0.206077,-0.0721 0.203351,-0.0768 0.204291,-0.0804 0.201564,-0.085 0.197897,-0.086 0.198838,-0.0896 0.19611,-0.0942 0.197051,-0.0979 0.193383,-0.0988 0.383194,-0.21424 0.18793,-0.10805 0.186144,-0.11633 0.182477,-0.11727 0.183416,-0.12093 0.17975,-0.12187 0.177024,-0.12648 0.348593,-0.26217 0.167903,-0.13663 0.337686,-0.28059 0.162449,-0.14584 0.158783,-0.14678 0.159723,-0.15045 0.156056,-0.15138 0.15333,-0.15599 0.149663,-0.15694 0.146936,-0.16153 0.143269,-0.16248 0.144209,-0.16615 0.136876,-0.16802 0.137816,-0.17169 0.260965,-0.34714 0.127756,-0.17818 0.120422,-0.18005 0.121363,-0.18372 0.117695,-0.18466 0.114029,-0.18561 0.110363,-0.18654 0.107635,-0.19114 0.103969,-0.19209 0.100303,-0.19303 0.09663,-0.19397 0.09758,-0.19763 0.09024,-0.19952 0.08563,-0.19679 0.08385,-0.20506 0.07924,-0.20233 0.07558,-0.20328 0.07191,-0.20421 0.138364,-0.41764 0.06091,-0.20704 0.05818,-0.21164 0.05357,-0.20892 0.05085,-0.21352 0.04718,-0.21447 0.04258,-0.21173 0.03985,-0.21635 0.03891,-0.21268 0.03252,-0.21822 0.02791,-0.2155 0.02424,-0.21644 0.02058,-0.21738 0.01691,-0.21832 0.0123,-0.21559 0.0096,-0.2202 0.0099,-0.43496 z m 0,0"
           style="fill:#ffffff;fill-opacity:1;fill-rule:nonzero;stroke:#000000;stroke-width:0.181659;stroke-linecap:square;stroke-linejoin:round;stroke-miterlimit:4;stroke-opacity:1" />
      </g>
    </g>
    <g
       style="clip-rule:nonzero"
       id="g1947"
       clip-path="url(#clip3)"
       transform="matrix(0.35277777,0,0,0.35277777,76.829167,-32.574761)">
      <g
         style="clip-rule:nonzero"
         id="g1945"
         clip-path="url(#clip4)">
        <path
           id="path1943"
           d="m 26.984375,397.86328 0.05469,0.1875 0.0625,0.18359 0.05859,0.1875 0.06641,0.1836 0.06641,0.17969 0.07031,0.17968 0.07031,0.17578 0.07422,0.17579 0.07422,0.17187 0.07813,0.17188 0.07813,0.16796 0.164063,0.32813 0.08594,0.16016 0.171875,0.3125 0.179688,0.30468 0.08984,0.14453 0.09375,0.14454 0.08984,0.14453 0.09375,0.13672 0.09766,0.13671 0.09375,0.13672 0.09766,0.12891 0.09375,0.13281 0.195312,0.25 0.09766,0.11719 0.101563,0.12109 0.09766,0.11719 0.09766,0.11328 0.101562,0.10938 0.09766,0.10937 0.09766,0.10547 0.101563,0.10547 0.09766,0.10156 0.199219,0.19922 0.101562,0.0937 0.09766,0.0937 0.195312,0.17969 0.101563,0.0859 0.09766,0.0859 0.09766,0.082 0.09375,0.082 0.195313,0.15625 0.09766,0.0742 0.09375,0.0742 0.1875,0.14063 0.09766,0.0703 0.09375,0.0664 0.09375,0.0625 0.183594,0.1289 0.183594,0.11719 0.179687,0.11328 0.175782,0.10938 0.175781,0.10547 0.175781,0.0976 0.171875,0.0937 0.335937,0.17188 0.164063,0.082 0.320313,0.14844 0.15625,0.0703 0.15625,0.0664 0.152343,0.0625 0.152344,0.0586 0.148437,0.0586 0.148438,0.0508 0.144531,0.0547 0.144531,0.0469 0.140626,0.0469 0.140624,0.043 0.136719,0.043 0.136719,0.0391 0.136719,0.0352 0.132812,0.0351 0.128907,0.0352 0.257812,0.0625 0.128906,0.0273 0.125,0.0274 0.125,0.0234 0.242188,0.0469 0.242187,0.0391 0.117188,0.0195 0.234375,0.0312 0.113281,0.0117 0.113281,0.0156 0.226563,0.0234 0.109375,0.008 0.113281,0.008 0.109375,0.0117 0.109375,0.004 0.105469,0.008 0.109375,0.004 0.210937,0.008 h 0.105469 l 0.105469,0.004 h 0.207031 l 0.105469,-0.004 h 0.101562 l 0.304688,-0.0117 0.09766,-0.004 0.09766,-0.008 0.101563,-0.004 0.292969,-0.0234 0.09375,-0.0117 0.09766,-0.008 0.1875,-0.0234 0.08984,-0.0117 0.09375,-0.0117 0.08984,-0.0117 0.08984,-0.0156 0.08594,-0.0117 0.08594,-0.0156 0.08594,-0.0117 0.05859,-0.15625 0.03906,-0.23828 0.03125,-0.23437 0.03125,-0.23047 0.02344,-0.22657 0.01953,-0.22265 0.01563,-0.21875 0.0078,-0.21485 0.0078,-0.21093 -0.0039,-0.20703 -0.0039,-0.20313 -0.01172,-0.19922 -0.01953,-0.1914 -0.02344,-0.1875 -0.03125,-0.17969 -0.03906,-0.17578 -0.04297,-0.16797 -0.05078,-0.16406 -0.05859,-0.16016 -0.0625,-0.14844 -0.07422,-0.14453 -0.07813,-0.14062 -0.08594,-0.13282 -0.08984,-0.125 -0.101562,-0.12109 -0.101563,-0.11719 -0.109375,-0.10937 -0.113281,-0.10547 -0.117188,-0.10547 -0.121093,-0.0977 -0.125,-0.0937 -0.128907,-0.0937 -0.128906,-0.0859 -0.132812,-0.0899 -0.06641,-0.0391 -0.199219,-0.12891 -0.07031,-0.0391 -0.06641,-0.0391 -0.06641,-0.043 -0.06641,-0.0391 -0.07031,-0.0391 -0.06641,-0.0391 -0.07031,-0.0391 -0.132812,-0.0781 -0.07031,-0.0391 -0.06641,-0.0351 -0.132813,-0.0781 -0.06641,-0.0352 -0.07031,-0.0391 -0.06641,-0.0351 -0.06641,-0.0391 -0.06641,-0.0351 -0.06641,-0.0391 -0.0625,-0.0351 -0.06641,-0.0352 -0.06641,-0.0391 -0.0625,-0.0352 -0.06641,-0.0391 -0.0625,-0.0352 -0.06641,-0.0351 -0.0625,-0.0352 -0.0625,-0.0391 -0.1875,-0.10547 -0.0625,-0.0391 -0.125,-0.0703 -0.05859,-0.0352 -0.0625,-0.0352 -0.117188,-0.0703 -0.0625,-0.0352 -0.05859,-0.0391 -0.175781,-0.10547 -0.05469,-0.0351 -0.117188,-0.0703 -0.05469,-0.0351 -0.05859,-0.0352 -0.4375,-0.28125 -0.05078,-0.0351 -0.05469,-0.0352 -0.05078,-0.0352 -0.05469,-0.0351 -0.101563,-0.0703 -0.05078,-0.0312 -0.253906,-0.17578 -0.04687,-0.0351 -0.101563,-0.0703 -0.09375,-0.0703 -0.05078,-0.0312 -0.375,-0.28125 -0.04297,-0.0312 -0.04687,-0.0351 -0.04297,-0.0352 -0.04687,-0.0352 -0.04297,-0.0351 -0.04687,-0.0352 -0.08594,-0.0703 -0.04687,-0.0352 -0.04297,-0.0351 -0.08594,-0.0664 -0.171875,-0.14063 -0.08203,-0.0703 -0.08594,-0.0703 -0.246093,-0.21094 -0.07813,-0.0703 -0.08203,-0.0742 -0.07813,-0.0703 -0.08203,-0.0703 -0.07813,-0.0703 -0.07813,-0.0742 -0.07813,-0.0703 -0.07422,-0.0742 -0.07813,-0.0742 -0.07422,-0.0703 -0.07813,-0.0742 -0.222656,-0.22265 -0.07422,-0.0781 -0.07422,-0.0742 -0.07422,-0.0781 -0.07422,-0.0742 -0.148437,-0.15625 -0.07031,-0.0781 -0.07422,-0.082 -0.07422,-0.0781 -0.07031,-0.082 -0.07422,-0.082 -0.07031,-0.082 -0.07422,-0.082 -0.07031,-0.0859 -0.07031,-0.082 -0.07422,-0.0859 -0.07031,-0.0859 -0.07422,-0.0898 -0.07031,-0.0899 -0.07422,-0.0898 -0.140625,-0.17969 -0.07422,-0.0937 -0.07031,-0.0937 -0.07422,-0.0977 -0.07031,-0.0976 -0.148438,-0.19531 -0.07031,-0.10157 -0.07422,-0.10547 -0.07422,-0.10156 -0.07422,-0.10937 -0.07031,-0.10547 -0.07422,-0.10938 -0.148438,-0.22656 -0.148437,-0.23437 -0.07813,-0.11719 -0.07422,-0.1211 -0.07422,-0.125 -0.07812,-0.1289 -0.07422,-0.12891 -0.07813,-0.1289 -0.07422,-0.13672 -0.07813,-0.13672 -0.15625,-0.28125 -0.07422,-0.14453 -0.07813,-0.14844 -0.07813,-0.15234 -0.07813,-0.15625 -0.08203,-0.16016 -0.15625,-0.32813 -0.15625,-0.34375 -0.08203,-0.17968 -0.07813,-0.17969 -0.07813,-0.1875 -0.08203,-0.19141 -0.07812,-0.19531 -0.08203,-0.19922 -0.07813,-0.20703 -0.07813,-0.21094 0.01172,-0.16797 0.07031,-0.14062 0.148437,-0.28125 0.07813,-0.14063 0.07813,-0.13671 0.08203,-0.14063 0.08203,-0.13672 0.08594,-0.13281 0.08594,-0.13672 0.08984,-0.13281 0.08594,-0.13281 0.08984,-0.12891 0.09375,-0.12891 0.08984,-0.125 0.09375,-0.125 0.09375,-0.12109 0.09375,-0.11719 0.08984,-0.11719 0.09375,-0.10937 0.08984,-0.10547 0.08594,-0.10156 0.08594,-0.0977 0.08203,-0.0937 0.07813,-0.0859 0.07422,-0.0781 0.06641,-0.0703 0.0625,-0.0664 0.05078,-0.0547 0.132813,-0.13281 0.01172,-0.008 h -0.0039 l -0.109375,0.10937 -0.05078,0.0547 -0.0625,0.0625 -0.07031,0.0742 -0.07812,0.0859 -0.08594,0.0937 -0.09375,0.10156 -0.09766,0.11328 -0.105469,0.125 -0.113281,0.13281 -0.113282,0.14063 -0.121093,0.15234 -0.125,0.16406 -0.125,0.17188 -0.132813,0.18359 -0.132812,0.19532 -0.132813,0.20312 -0.07031,0.10547 -0.06641,0.10937 -0.06641,0.11329 -0.06641,0.10937 -0.07031,0.11719 -0.06641,0.12109 -0.07031,0.1211 -0.06641,0.125 -0.132812,0.25781 -0.06641,0.13281 -0.0625,0.13281 -0.06641,0.14063 -0.0625,0.14062 -0.06641,0.14453 -0.05859,0.14454 -0.0625,0.15234 -0.0625,0.14844 -0.05859,0.15625 -0.05469,0.15625 -0.05859,0.16015 -0.05469,0.16016 -0.05078,0.16797 -0.05078,0.16406 -0.05078,0.17188 -0.04687,0.17187 -0.04687,0.17578 -0.04297,0.17578 -0.04297,0.17969 -0.03906,0.17969 -0.03906,0.18359 -0.03125,0.1836 -0.03516,0.1875 -0.02734,0.1875 -0.02734,0.1914 -0.02344,0.19141 -0.02344,0.19531 -0.01953,0.19141 -0.01563,0.19922 -0.01172,0.19531 -0.01172,0.19922 -0.0078,0.19922 v 0.19921 l -0.0039,0.19922 0.0078,0.40625 0.01172,0.19922 0.02344,0.40625 0.01953,0.20313 0.02344,0.19922 0.02344,0.20312 0.02734,0.19922 0.03125,0.20312 0.07031,0.39844 0.03906,0.19531 0.04297,0.19532 0.04687,0.19531 0.05078,0.19531 z m 0,0"
           style="fill:#004f87;fill-opacity:1;fill-rule:nonzero;stroke:none" />
      </g>
    </g>
    <g
       style="clip-rule:nonzero"
       id="g1953"
       clip-path="url(#clip5)"
       transform="matrix(0.35277777,0,0,0.35277777,76.829167,-32.574761)">
      <g
         style="clip-rule:nonzero"
         id="g1951"
         clip-path="url(#clip6)">
        <path
           id="path1949"
           transform="matrix(0.999603,-0.256444,0.256342,1,0,1e-6)"
           d="m -70.404442,379.80848 0.0062,0.1891 0.01449,0.18731 0.0099,0.19003 0.01816,0.18825 0.0191,0.18459 0.02276,0.18552 0.0237,0.18186 0.02737,0.1828 0.02831,0.17914 0.03198,0.18007 0.03292,0.17641 0.07505,0.34737 0.04213,0.17096 0.08614,0.33459 0.09535,0.32914 0.04956,0.15724 0.05322,0.15818 0.04956,0.15724 0.0551,0.15085 0.05877,0.15179 0.0551,0.15085 0.06065,0.14446 0.05604,0.14718 0.123178,0.28159 0.06347,0.13347 0.0662,0.13807 0.06347,0.13346 0.06441,0.1298 0.06902,0.12707 0.06535,0.12614 0.06629,0.12246 0.06995,0.12341 0.06723,0.1188 0.139064,0.23489 0.07278,0.11241 0.06911,0.11147 0.140097,0.21562 0.07465,0.10508 0.07099,0.10414 0.07193,0.10048 0.06826,0.0995 0.145736,0.19363 0.07381,0.0931 0.07014,0.0922 0.142163,0.17708 0.07475,0.0895 0.07202,0.0849 0.07296,0.0812 0.141316,0.16514 0.144135,0.15415 0.141409,0.14955 0.138683,0.14494 0.139622,0.14127 0.141502,0.13395 0.138775,0.12933 0.273977,0.24214 0.134262,0.11646 0.26495,0.21638 0.129748,0.10359 0.130688,0.0999 0.127961,0.0953 0.128902,0.0917 0.125234,0.0907 0.127115,0.0834 0.122508,0.0861 0.124387,0.0788 0.120721,0.0778 0.121661,0.0742 0.117994,0.0732 0.118935,0.0696 0.119874,0.0659 0.116207,0.065 0.112541,0.064 0.226961,0.1207 0.114421,0.0567 0.110754,0.0557 0.111694,0.0521 0.216054,0.10228 0.217934,0.095 0.105301,0.0465 0.212481,0.0857 0.103513,0.0383 0.102574,0.0419 0.207027,0.0765 0.100787,0.0336 0.104454,0.0346 0.09985,0.0373 0.101726,0.03 0.09712,0.0327 0.101726,0.03 0.196121,0.0581 0.099,0.0254 0.09806,0.0291 0.194333,0.0498 0.09994,0.0217 0.09533,0.0245 0.288819,0.0623 0.09261,0.0199 0.09355,0.0162 0.09627,0.0208 0.28064,0.0485 0.09082,0.0116 0.09355,0.0162 0.18164,0.0231 0.08715,0.0106 0.09082,0.0116 0.08715,0.0106 0.08809,0.007 0.08349,0.01 0.08443,0.006 0.08349,0.01 0.0926,-0.1325 0.094,-0.21418 0.08573,-0.21238 0.08479,-0.20873 0.07652,-0.20694 0.07191,-0.20422 0.0673,-0.20149 0.05903,-0.1997 0.05809,-0.19604 0.04615,-0.1952 0.04521,-0.19153 0.03694,-0.18975 0.02772,-0.1843 0.02312,-0.18157 0.0139,-0.17612 0.0056,-0.17434 8.3e-5,-0.16795 -0.0082,-0.16616 -0.01646,-0.16438 -0.02295,-0.15432 -0.03489,-0.15348 -0.0395,-0.15075 -0.04871,-0.14531 -0.05426,-0.13891 -0.0662,-0.13807 -0.06714,-0.1344 -0.07635,-0.12896 -0.08096,-0.12622 -0.08462,-0.12718 -0.09017,-0.12077 -0.09477,-0.11806 -0.09844,-0.11899 -0.100322,-0.11167 -0.103048,-0.11627 -0.05294,-0.0526 -0.155982,-0.1689 -0.0566,-0.0536 -0.05293,-0.0526 -0.05199,-0.0563 -0.05293,-0.0526 -0.0566,-0.0536 -0.05293,-0.0526 -0.0566,-0.0536 -0.105869,-0.10527 -0.0566,-0.0536 -0.05387,-0.049 -0.105868,-0.10528 -0.05387,-0.049 -0.0566,-0.0536 -0.05387,-0.049 -0.05293,-0.0526 -0.05387,-0.049 -0.05293,-0.0526 -0.05021,-0.048 -0.05387,-0.049 -0.05293,-0.0526 -0.05021,-0.048 -0.05293,-0.0526 -0.05021,-0.048 -0.05387,-0.049 -0.05021,-0.048 -0.04927,-0.0517 -0.150622,-0.14409 -0.04927,-0.0517 -0.100414,-0.0961 -0.04654,-0.0471 -0.05021,-0.048 -0.09308,-0.0942 -0.05021,-0.048 -0.0456,-0.0507 -0.139622,-0.14128 -0.04287,-0.0462 -0.09308,-0.0942 -0.04287,-0.0462 -0.04654,-0.0471 -0.342992,-0.36921 -0.03921,-0.0452 -0.04287,-0.0462 -0.03921,-0.0452 -0.04287,-0.0462 -0.07841,-0.0904 -0.04015,-0.0415 -0.196037,-0.22606 -0.03554,-0.0443 -0.07841,-0.0904 -0.07108,-0.0885 -0.04015,-0.0416 -0.284326,-0.35416 -0.03281,-0.0397 -0.03554,-0.0443 -0.03187,-0.0433 -0.03554,-0.0443 -0.03187,-0.0433 -0.03554,-0.0443 -0.06375,-0.0867 -0.03554,-0.0443 -0.03187,-0.0433 -0.06469,-0.083 -0.127496,-0.17332 -0.06008,-0.0857 -0.06375,-0.0867 -0.180244,-0.25716 -0.05642,-0.0848 -0.05914,-0.0894 -0.05642,-0.0848 -0.06008,-0.0857 -0.05641,-0.0848 -0.05548,-0.0884 -0.05642,-0.0848 -0.05181,-0.0875 -0.05548,-0.0884 -0.05275,-0.0838 -0.05548,-0.0884 -0.155425,-0.26251 -0.05087,-0.0912 -0.05181,-0.0875 -0.05087,-0.0912 -0.05181,-0.0875 -0.101736,-0.18234 -0.0472,-0.0902 -0.04993,-0.0948 -0.05087,-0.0912 -0.04626,-0.0939 -0.04993,-0.0948 -0.04626,-0.0939 -0.04993,-0.0948 -0.04532,-0.0976 -0.04626,-0.0939 -0.04899,-0.0985 -0.04532,-0.0976 -0.04805,-0.10216 -0.04438,-0.10123 -0.04805,-0.10216 -0.08876,-0.20246 -0.04711,-0.10583 -0.04344,-0.10489 -0.04617,-0.10949 -0.0425,-0.10856 -0.09234,-0.21899 -0.04156,-0.11222 -0.04429,-0.11683 -0.04523,-0.11316 -0.04335,-0.12049 -0.04062,-0.11589 -0.04335,-0.12049 -0.08482,-0.24831 -0.08294,-0.25564 -0.04514,-0.12877 -0.04053,-0.13148 -0.03959,-0.13516 -0.04232,-0.13975 -0.03865,-0.13882 -0.04232,-0.13976 -0.03677,-0.14615 -0.04044,-0.14709 -0.07899,-0.3015 -0.03489,-0.15348 -0.03762,-0.15809 -0.03668,-0.16174 -0.03574,-0.16542 -0.03846,-0.17002 -0.06771,-0.34549 -0.06395,-0.36015 -0.03376,-0.18835 -0.0301,-0.1874 -0.02822,-0.19474 -0.03094,-0.19934 -0.02634,-0.20207 -0.02906,-0.20667 -0.02352,-0.21306 -0.02258,-0.21673 0.05142,-0.15478 0.09984,-0.11502 0.207008,-0.22817 0.10717,-0.11314 0.106231,-0.10948 0.110837,-0.1122 0.109897,-0.10853 0.112624,-0.10393 0.113564,-0.1076 0.116291,-0.10299 0.112624,-0.10393 0.115351,-0.0993 0.119017,-0.0984 0.114411,-0.0957 0.118077,-0.0947 0.117138,-0.0911 0.116198,-0.0874 0.112531,-0.0883 0.114318,-0.0801 0.109711,-0.0773 0.105104,-0.0746 0.104165,-0.0709 0.09956,-0.0682 0.09401,-0.0618 0.08846,-0.0554 0.07925,-0.05 0.07465,-0.0473 0.06083,-0.0391 0.156624,-0.0926 0.01288,-0.005 -0.0037,-9.4e-4 -0.128984,0.0763 -0.06083,0.0391 -0.0737,0.0436 -0.08386,0.0527 -0.09401,0.0618 -0.103224,0.0673 -0.112438,0.0727 -0.118925,0.0828 -0.129077,0.0919 -0.138291,0.0973 -0.140171,0.10468 -0.150323,0.11379 -0.15681,0.12385 -0.15869,0.13118 -0.168843,0.1403 -0.171663,0.15129 -0.173543,0.15862 -0.09138,0.082 -0.08865,0.0866 -0.08959,0.0903 -0.08865,0.0866 -0.0942,0.093 -0.09147,0.0976 -0.09514,0.0967 -0.09241,0.1013 -0.186701,0.20993 -0.09429,0.10864 -0.09062,0.10957 -0.09617,0.11596 -0.0925,0.1169 -0.09711,0.11963 -0.08978,0.12151 -0.09532,0.1279 -0.09438,0.12423 -0.0926,0.13251 -0.08893,0.13344 -0.09354,0.13617 -0.08987,0.13711 -0.08808,0.14538 -0.08714,0.14171 -0.08902,0.14905 -0.08536,0.14999 -0.0863,0.15365 -0.08263,0.15459 -0.08357,0.15825 -0.0799,0.1592 -0.08084,0.16286 -0.07351,0.16475 -0.07812,0.16746 -0.07078,0.16935 -0.07172,0.17302 -0.06806,0.17395 -0.069,0.17762 -0.06439,0.17489 -0.0626,0.18317 -0.058,0.18044 -0.05894,0.1841 -0.05527,0.18505 -0.04794,0.18692 -0.0516,0.18599 -0.09042,0.38306 -0.03694,0.18975 -0.07575,0.38682 -0.03054,0.19529 -0.02594,0.19257 -0.02688,0.19623 -0.02227,0.19351 -0.01954,0.19812 -0.02987,0.39077 -0.01033,0.19267 -0.0067,0.1936 -0.003,0.19455 6.7e-4,0.19548 z m 0,0"
           style="fill:none;stroke:#000000;stroke-width:0.181659;stroke-linecap:square;stroke-linejoin:round;stroke-miterlimit:4;stroke-opacity:1" />
      </g>
    </g>
    <g
       style="clip-rule:nonzero"
       id="g1959"
       clip-path="url(#clip7)"
       transform="matrix(0.35277777,0,0,0.35277777,76.829167,-32.574761)">
      <g
         style="clip-rule:nonzero"
         id="g1957"
         clip-path="url(#clip8)">
        <path
           id="path1955"
           transform="matrix(0.999603,-0.256444,0.256342,1,0,1e-6)"
           d="m -48.607676,371.03485 0.08847,0.0969 0.08754,0.10057 0.08387,0.0996 0.08293,0.10329 0.08387,0.0996 0.237785,0.30708 0.15119,0.20283 0.07465,0.10508 0.07193,0.10048 0.141977,0.20828 0.134643,0.20641 0.06366,0.10226 0.06271,0.10593 0.06366,0.10226 0.05999,0.10132 0.05905,0.10499 0.05999,0.10132 0.166146,0.31213 0.05265,0.0994 0.10343,0.20621 0.144146,0.30649 0.133145,0.30368 0.08143,0.20057 0.07776,0.19963 0.0741,0.19869 0.07043,0.19775 0.06676,0.19681 0.06037,0.19126 0.05943,0.19493 0.05304,0.18938 0.04843,0.19211 0.04937,0.18844 0.04204,0.18656 0.03931,0.18196 0.03837,0.18562 0.06395,0.36015 0.02831,0.17913 0.02464,0.1782 0.02192,0.17359 0.0365,0.34529 0.01092,0.17077 0.01552,0.16804 0.01638,0.33233 0.0045,0.16522 8.57e-4,0.16429 0.0018,0.16061 -0.0019,0.15968 -0.0055,0.15874 -0.0046,0.15507 -0.0055,0.15873 -0.0083,0.15413 -0.01193,0.15319 -0.0156,0.15225 -0.01193,0.15319 -0.05497,0.44294 -0.04398,0.29341 -0.02566,0.14576 -0.02472,0.1421 -0.05677,0.28232 -0.09615,0.42065 -0.07049,0.27489 -0.03938,0.13834 -0.03844,0.13468 -0.04211,0.13373 -0.04305,0.1374 -0.04211,0.13373 -0.09155,0.26558 -0.04944,0.13185 -0.0485,0.12819 -0.159332,0.39273 -0.05584,0.12631 -0.113554,0.25994 -0.0595,0.12537 -0.06411,0.12809 -0.06317,0.12442 -0.06411,0.12809 -0.06778,0.12715 -0.06684,0.12349 -0.07144,0.12621 -0.0705,0.12254 -0.07144,0.12621 -0.07417,0.12161 -0.07878,0.12433 -0.07417,0.1216 -0.08244,0.12339 -0.0815,0.11973 -0.08244,0.12338 -0.08517,0.11879 -0.08611,0.12245 -0.08884,0.11784 -0.08978,0.12151 -0.0925,0.1169 -0.09344,0.12057 -0.192341,0.23192 -0.173832,0.0531 -0.440744,0.012 -0.218493,-0.001 -0.213885,-0.004 -0.216613,-0.009 -0.212946,-0.008 -0.214732,-0.016 -0.20646,-0.0178 -0.209186,-0.0224 -0.204579,-0.0251 -0.20364,-0.0288 -0.20176,-0.0361 -0.198093,-0.0352 -0.192546,-0.0416 -0.191607,-0.0452 -0.187,-0.048 -0.18606,-0.0516 -0.176847,-0.0571 -0.175907,-0.0607 -0.171301,-0.0635 -0.165754,-0.0698 -0.157481,-0.0716 -0.151934,-0.078 -0.147327,-0.0808 -0.141782,-0.0871 -0.133507,-0.0889 -0.124295,-0.0944 -0.119688,-0.0971 -0.110475,-0.10255 -0.101262,-0.108 -0.09571,-0.11439 -0.08838,-0.11251 -0.07456,-0.12068 -0.07362,-0.12435 -0.06168,-0.12519 -0.05708,-0.12792 -0.04786,-0.13337 -0.0442,-0.13243 -0.03959,-0.13515 -0.03132,-0.13693 -0.03038,-0.14061 -0.02304,-0.13872 -0.03687,-0.28289 -0.01477,-0.14051 -0.01016,-0.14323 -0.0111,-0.13957 -0.0074,-0.13862 -0.0065,-0.14229 -0.0038,-0.13769 -0.0028,-0.14135 -1.03e-4,-0.13674 -0.0024,-0.067 -0.0014,-0.0707 0.0013,-0.0661 -0.0024,-0.067 0.0013,-0.0661 -0.0014,-0.0707 0.0039,-0.19821 -0.0024,-0.067 3.72e-4,-0.0624 0.0026,-0.13214 3.72e-4,-0.0624 0.0013,-0.0661 3.72e-4,-0.0624 0.0013,-0.0661 0.0022,-0.37442 -5.68e-4,-0.0587 3.72e-4,-0.0624 0.004,-0.0615 -0.0011,-0.11748 3.73e-4,-0.0624 -5.68e-4,-0.0587 0.0031,-0.0578 -0.0017,-0.17622 0.0031,-0.0578 -0.0015,-0.0551 -5.68e-4,-0.0587 0.0031,-0.0578 -0.003,-0.11015 0.0031,-0.0578 -0.003,-0.11015 0.0022,-0.0541 -0.003,-0.11015 0.0022,-0.0541 -0.0015,-0.0551 0.0022,-0.0541 -0.0024,-0.0514 0.0022,-0.0541 -0.0024,-0.0514 -0.0015,-0.0551 0.0012,-0.0505 -0.0049,-0.10282 0.0022,-0.0541 -0.0024,-0.0514 0.0012,-0.0505 -0.0024,-0.0514 0.0012,-0.0505 -0.0034,-0.0477 0.0012,-0.0505 -0.0049,-0.10282 2.79e-4,-0.0468 -0.0024,-0.0514 2.79e-4,-0.0468 -0.0024,-0.0514 -0.0034,-0.0477 2.79e-4,-0.0468 -0.0024,-0.0514 2.79e-4,-0.0468 -0.0034,-0.0477 2.79e-4,-0.0468 -0.0034,-0.0477 2.79e-4,-0.0468 -0.0068,-0.0955 2.79e-4,-0.0468 -0.0034,-0.0477 2.79e-4,-0.0468 -0.0034,-0.0478 -0.0043,-0.0441 2.79e-4,-0.0468 -0.0034,-0.0477 -6.6e-4,-0.0431 -0.0068,-0.0955 -6.61e-4,-0.0431 -0.0034,-0.0477 -0.0043,-0.0441 2.79e-4,-0.0468 -0.0043,-0.0441 -6.61e-4,-0.0431 -0.0034,-0.0477 -0.0043,-0.0441 -6.61e-4,-0.0431 -0.0034,-0.0477 -0.0043,-0.0441 -6.61e-4,-0.0431 -0.0087,-0.0882 2.79e-4,-0.0468 -0.01298,-0.13224 -6.61e-4,-0.0431 -0.01298,-0.13224 -6.61e-4,-0.0431 -0.01731,-0.17631 -6.61e-4,-0.0431 -0.02164,-0.22039 -0.0096,-0.0845 -0.005,-0.0872 -0.02597,-0.26447 -0.01232,-0.0891 -0.0087,-0.0882 -0.0096,-0.0845 -0.0087,-0.0882 -0.01232,-0.0891 -0.0087,-0.0882 -0.01138,-0.0928 -0.01232,-0.0891 -0.0087,-0.0882 -0.01232,-0.0891 -0.01138,-0.0928 -0.01232,-0.0891 -0.01505,-0.0937 -0.02276,-0.18552 -0.04515,-0.28111 -0.01411,-0.0974 -0.01505,-0.0937 -0.02822,-0.19474 -0.01778,-0.0983 -0.03367,-0.20394 -0.01778,-0.0983 -0.0159,-0.10564 -0.0205,-0.10291 -0.0159,-0.10564 -0.0205,-0.10292 -0.01862,-0.11024 -0.02323,-0.10752 -0.02229,-0.11119 -0.01862,-0.11024 -0.02502,-0.11579 -0.02229,-0.11118 -0.02502,-0.11579 -0.07223,-0.35837 -0.0536,-0.24812 -0.05906,-0.25733 -0.02859,-0.13234 -0.06451,-0.26654 -0.03132,-0.13694 -0.03404,-0.14154 -0.03771,-0.14248 -0.0331,-0.14521 -0.0395,-0.15075 -0.03583,-0.14982 -0.04222,-0.15536 -0.03856,-0.15441 -0.04495,-0.15997 -0.04034,-0.16269 -0.09347,-0.33647 -0.0458,-0.1719 -0.04758,-0.18017 -0.05219,-0.17745 -0.05031,-0.18477 -0.05304,-0.18939 -0.0567,-0.19032 -0.05482,-0.19765 -0.05755,-0.20226 -0.06122,-0.2032 -0.05934,-0.21053 -0.063,-0.21147 -0.06112,-0.2188 -0.06385,-0.2234 -0.07475,-0.0895 -0.07709,-0.004 -0.08076,-0.005 -0.07343,-0.003 -0.07249,-0.007 -0.132186,-0.003 -0.06149,-0.004 -0.05782,-0.003 -0.05143,0.002 -0.04588,-0.004 -0.03949,0.002 -0.03121,-1.9e-4 -0.02661,-0.003 -0.01561,-9e-5 -0.0083,0.002 0.0046,-0.003 0.01561,9e-5 0.02661,0.003 0.03949,-0.002 0.05049,10e-4 0.06515,0.005 0.07803,4.8e-4 0.0927,0.004 0.108306,0.004 0.119306,0.007 0.131246,0.006 0.14864,0.0147 0.156913,0.0129 0.171579,0.0167 0.18258,0.0195 0.188973,0.025 0.199033,0.0315 0.210033,0.0343 0.216426,0.0399 0.11188,0.0209 0.11094,0.0246 0.119213,0.0227 0.114607,0.0255 0.117333,0.0301 0.118274,0.0264 0.117333,0.0301 0.12006,0.0347 0.124667,0.032 0.12006,0.0347 0.122787,0.0393 0.126454,0.0402 0.122787,0.0393 0.126453,0.0402 0.251027,0.0878 0.128241,0.0485 0.124573,0.0476 0.127301,0.0522 0.12824,0.0485 0.379082,0.16752 0.130027,0.0568 0.125421,0.0595 0.12448,0.0632 0.128148,0.0641 0.124481,0.0632 0.12354,0.0668 0.127208,0.0678 0.367802,0.21151 0.243322,0.14834 0.120721,0.0778 0.117055,0.0769 0.119781,0.0815 0.117054,0.0769 0.115174,0.0842 0.116115,0.0806 0.111508,0.0833 0.114234,0.0879 0.331704,0.26084 0.317884,0.26902 0.105021,0.0933 0.101355,0.0924 0.104082,0.097 0.09769,0.0915 0.100415,0.0961 0.09581,0.0988 0.09675,0.0951 0.184283,0.1957 z m 0,0"
           style="fill:#004f87;fill-opacity:1;fill-rule:nonzero;stroke:#000000;stroke-width:0.181659;stroke-linecap:square;stroke-linejoin:round;stroke-miterlimit:4;stroke-opacity:1" />
      </g>
    </g>
    <g
       style="clip-rule:nonzero"
       id="g1965"
       clip-path="url(#clip9)"
       transform="matrix(0.35277777,0,0,0.35277777,76.829167,-32.574761)">
      <g
         style="clip-rule:nonzero"
         id="g1963"
         clip-path="url(#clip10)">
        <path
           id="path1961"
           transform="matrix(0.999603,-0.256444,0.256342,1,0,1e-6)"
           d="m -70.404442,379.80848 0.03059,0.56644 0.06002,0.55836 0.07938,0.5438 0.102417,0.53017 0.122723,0.51194 0.138423,0.49643 0.152336,0.47266 0.168975,0.45349 0.178281,0.43244 0.191254,0.41233 0.262243,0.51647 0.274368,0.48442 0.280101,0.44683 0.287621,0.41751 0.287806,0.3863 0.287053,0.35877 0.286299,0.33123 0.424227,0.44864 0.419899,0.40455 0.408239,0.3586 0.394698,0.31997 0.387551,0.28688 0.374857,0.2602 0.484763,0.304 0.467557,0.26443 0.452136,0.23314 0.436715,0.20183 0.426749,0.17975 0.513901,0.19038 0.504874,0.16463 0.492181,0.13794 0.483153,0.11218 0.472247,0.0938 0.462279,0.0717 0.527525,0.0611 0.167913,0.0157 0.0926,-0.1325 0.17973,-0.42656 0.161305,-0.41567 0.139211,-0.40571 0.117118,-0.39574 0.09136,-0.38673 0.06466,-0.37405 0.03702,-0.35769 0.0057,-0.34229 -0.02465,-0.33054 -0.05784,-0.3078 -0.08821,-0.29606 -0.120452,-0.27698 -0.143484,-0.26336 -0.165578,-0.2534 -0.184944,-0.23883 -0.301812,-0.34693 -0.423381,-0.4367 -2.091131,-2.04016 -0.600237,-0.64612 -0.50697,-0.58313 -0.392828,-0.47964 -0.429969,-0.56339 -0.367822,-0.5162 -0.343942,-0.51789 -0.323729,-0.52052 -0.30897,-0.53236 -0.295996,-0.55247 -0.28669,-0.57352 -0.274565,-0.60557 -0.22539,-0.53826 -0.220597,-0.5722 -0.210258,-0.61251 -0.209039,-0.66298 -0.158171,-0.57182 -0.151498,-0.61307 -0.144733,-0.66992 -0.131574,-0.72125 -0.115596,-0.78355 -0.07516,-0.63646 0.05142,-0.15478 0.306845,-0.34319 0.324238,-0.33482 0.336085,-0.32006 0.344266,-0.30625 0.351505,-0.28876 0.460185,-0.34683 0.418538,-0.29111 0.452479,-0.28631 0.114225,-0.0645 -0.08198,0.0454 -0.363074,0.2272 -0.463664,0.31469 -0.428785,0.31582 -0.3155,0.25503 -0.427277,0.3709 -0.356392,0.33829 -0.369457,0.37401 -0.373403,0.41987 -0.279299,0.34243 -0.282211,0.36904 -0.27591,0.39018 -0.271491,0.41866 -0.261523,0.44075 -0.252496,0.46649 -0.234256,0.48681 -0.220621,0.50983 -0.201442,0.52646 -0.179535,0.54771 -0.154808,0.55796 -0.127354,0.57281 -0.106295,0.58211 -0.07508,0.58231 -0.04941,0.58889 -0.01999,0.58082 6.7e-4,0.19548"
           style="fill:none;stroke:#000000;stroke-width:0.181659;stroke-linecap:square;stroke-linejoin:round;stroke-miterlimit:4;stroke-opacity:1" />
      </g>
    </g>
    <g
       style="clip-rule:nonzero"
       id="g1971"
       clip-path="url(#clip11)"
       transform="matrix(0.35277777,0,0,0.35277777,76.829167,-32.574761)">
      <g
         style="clip-rule:nonzero"
         id="g1969"
         clip-path="url(#clip12)">
        <path
           id="path1967"
           transform="matrix(0.999603,-0.256444,0.256342,1,0,1e-6)"
           d="m -48.607676,371.03485 0.342807,0.40041 0.321653,0.40671 0.297774,0.40839 0.27662,0.41469 0.250014,0.41177 0.229801,0.4144 0.211467,0.4097 0.232909,0.50895 0.203576,0.50142 0.144527,0.39644 0.186565,0.583 0.150837,0.56993 0.119718,0.55414 0.09226,0.53928 0.06481,0.52443 0.04469,0.51146 0.0209,0.49755 7.84e-4,0.48458 -0.01567,0.47254 -0.03579,0.45957 -0.04858,0.44848 -0.0623,0.44106 -0.107141,0.57018 -0.131868,0.55993 -0.154715,0.54236 -0.176715,0.53671 -0.204168,0.52186 -0.222502,0.51716 -0.250895,0.50597 -0.276562,0.49939 -0.298562,0.49375 -0.246391,0.3665 -0.260119,0.35908 -0.275724,0.35898 -0.192341,0.23192 -0.173832,0.0531 -0.440744,0.012 -0.432378,-0.005 -0.429559,-0.0164 -0.421192,-0.0338 -0.413765,-0.0475 -0.4054,-0.0649 -0.390639,-0.0767 -0.378607,-0.0932 -0.362907,-0.10869 -0.347208,-0.12419 -0.323235,-0.14149 -0.299261,-0.15877 -0.275289,-0.17607 -0.243983,-0.19147 -0.211737,-0.21055 -0.184097,-0.2269 -0.148184,-0.24503 -0.118758,-0.25311 -0.09206,-0.2658 -0.07091,-0.27208 -0.05342,-0.27933 -0.05164,-0.4234 -0.0287,-0.42142 -0.01555,-0.62508 -9.79e-4,-0.60572 0.01353,-1.65279 -0.01505,-1.63276 -0.02355,-0.6701 -0.03906,-0.6858 -0.08431,-1.10365 -0.0921,-0.87518 -0.10347,-0.8156 -0.131676,-0.85799 -0.142863,-0.8296 -0.184611,-0.91062 -0.197584,-0.89052 -0.243753,-1.00001 -0.305341,-1.1408 -0.433416,-1.52521 -0.247316,-0.8642 -0.07475,-0.0895 -0.497439,-0.026 -0.276312,-0.004 0.201946,0.005 0.529591,0.0225 0.477132,0.0442 0.570586,0.076 0.538339,0.0951 0.462093,0.10288 0.480334,0.12318 0.492088,0.15353 0.505721,0.17657 0.506475,0.2041 0.508169,0.22797 0.500649,0.2573 0.49501,0.27928 0.481098,0.30306 0.468124,0.32318 0.446878,0.34507 0.428452,0.35596 0.408146,0.3742 0.385112,0.38782 0.09214,0.0978"
           style="fill:none;stroke:#000000;stroke-width:0.181659;stroke-linecap:square;stroke-linejoin:round;stroke-miterlimit:4;stroke-opacity:1" />
      </g>
    </g>
    <g
       style="clip-rule:nonzero"
       id="g1977"
       clip-path="url(#clip13)"
       transform="matrix(0.35277777,0,0,0.35277777,76.829167,-32.574761)">
      <g
         style="clip-rule:nonzero"
         id="g1975"
         clip-path="url(#clip14)">
        <path
           id="path1973"
           transform="matrix(0.999603,-0.256444,0.256342,1,0,1e-6)"
           d="m -45.415326,379.1582 -0.007,-0.21663 -0.01064,-0.21757 -0.02861,-0.43703 -0.04516,-0.43345 -0.0617,-0.42989 -0.07731,-0.42998 -0.08925,-0.42914 -0.106735,-0.4219 -0.118674,-0.42106 -0.136162,-0.41382 -0.14904,-0.40932 -0.161921,-0.4048 -0.179407,-0.39757 -0.188621,-0.39212 -0.206107,-0.38489 -0.218986,-0.38038 -0.23008,-0.36759 -0.24296,-0.36309 -0.257719,-0.35125 -0.266932,-0.34579 -0.281693,-0.33396 -0.291845,-0.32484 -0.302938,-0.31206 -0.313091,-0.30295 -0.327851,-0.29111 -0.330671,-0.28011 -0.344491,-0.27193 -0.352857,-0.25455 -0.36301,-0.24544 -0.370436,-0.23172 -0.377863,-0.21799 -0.385289,-0.20427 -0.389048,-0.18962 -0.400142,-0.17683 -0.402961,-0.16584 -0.411328,-0.14845 -0.415088,-0.13379 -0.418847,-0.11913 -0.425333,-0.10907 -0.426367,-0.0898 -0.430126,-0.0752 -0.430219,-0.0595 -0.433979,-0.0449 -0.436799,-0.0339 -0.434164,-0.0137 -0.437925,9.8e-4 -0.433411,0.0139 -0.438111,0.0322 -0.433597,0.0451 -0.430023,0.0616 -0.429177,0.0735 -0.426542,0.0937 -0.424756,0.10201 -0.418456,0.12316 -0.416669,0.13143 -0.410368,0.15258 -0.404915,0.16178 -0.397674,0.17927 -0.392221,0.18848 -0.384981,0.20596 -0.3768,0.21978 -0.371347,0.22899 -0.3595,0.24375 -0.354987,0.25662 -0.342199,0.26771 -0.33402,0.28153 -0.324899,0.29169 -0.312112,0.30277 -0.303932,0.31659 -0.293872,0.32307 -0.281086,0.33417 -0.267358,0.34159 -0.255512,0.35636 -0.244511,0.35917 -0.231725,0.37026 -0.217998,0.37769 -0.204271,0.38512 -0.190545,0.39254 -0.176817,0.39997 -0.165818,0.40279 -0.148424,0.41115 -0.133758,0.41492 -0.122758,0.41774 -0.104424,0.42244 -0.0907,0.42986 -0.07509,0.42997 -0.05948,0.43005 -0.04848,0.43288 -0.03015,0.43758 -0.0136,0.43401 0.0011,0.43778 0.013,0.43693 0.02955,0.43335 0.04882,0.4344 0.0571,0.43261 0.07731,0.42998 0.09019,0.42547 0.106735,0.42191 0.118675,0.42106 0.136161,0.41382 0.149041,0.40931 0.165587,0.40575 0.174801,0.40029 0.193227,0.3894 0.2015,0.38761 0.219927,0.37671 0.230079,0.3676 0.246627,0.36403 0.253112,0.35397 0.271539,0.34307 0.278026,0.33302 0.291845,0.32484 0.306605,0.313 0.313091,0.30295 0.323245,0.29383 0.334337,0.28105 0.341764,0.26733 0.356524,0.25549 0.359343,0.2445 0.370436,0.23171 0.377863,0.21799 0.385289,0.20428 0.392715,0.19055 0.395535,0.17956 0.407568,0.16311 0.407661,0.14751 0.415088,0.13379 0.421574,0.12374 0.422607,0.10447 0.426366,0.0898 0.430126,0.0752 0.430219,0.0596 0.436706,0.0495 0.434072,0.0293 0.434165,0.0137 0.436984,0.003 0.438018,-0.0166 0.433504,-0.0294 0.434537,-0.0487 0.43275,-0.057 0.430117,-0.0772 0.425602,-0.0901 0.42203,-0.10662 0.421182,-0.11855 0.413942,-0.13604 0.409428,-0.14891 0.405855,-0.16545 0.396735,-0.1756 0.393161,-0.19215 0.38498,-0.20596 0.379527,-0.21517 0.368621,-0.2336 0.363166,-0.2428 0.35132,-0.25756 0.3422,-0.26772 0.337686,-0.28059 0.321232,-0.29262 0.315779,-0.30183 0.302993,-0.31293 0.290205,-0.32401 0.281085,-0.33417 0.268299,-0.34526 0.258238,-0.35175 0.241785,-0.36377 0.231724,-0.37027 0.217998,-0.37768 0.204272,-0.38512 0.194211,-0.3916 0.175877,-0.39631 0.163091,-0.40739 0.147485,-0.40749 0.138364,-0.41764 0.119091,-0.41868 0.104424,-0.42244 0.08976,-0.4262 0.07876,-0.42903 0.06042,-0.43372 0.04482,-0.43382 0.02921,-0.43391 0.01454,-0.43768 0.005,-0.21748"
           style="fill:none;stroke:#000000;stroke-width:0.181659;stroke-linecap:square;stroke-linejoin:round;stroke-miterlimit:4;stroke-opacity:1" />
      </g>
    </g>
  </g>
</svg>
