<?xml version="1.0" encoding="UTF-8" standalone="no"?>
<svg
   xmlns:dc="http://purl.org/dc/elements/1.1/"
   xmlns:cc="http://creativecommons.org/ns#"
   xmlns:rdf="http://www.w3.org/1999/02/22-rdf-syntax-ns#"
   xmlns:svg="http://www.w3.org/2000/svg"
   xmlns="http://www.w3.org/2000/svg"
   id="svg1140"
   version="1.1"
   viewBox="0 0 36.958801 36.958572"
   height="36.958572mm"
   width="36.958801mm">
  <defs
     id="defs1134">
    <clipPath
       id="p3910a3bc74">
      <rect
         id="rect256"
         y="34.560001"
         x="54"
         width="334.79999"
         height="217.44" />
    </clipPath>
    <clipPath
       id="clipPath1084">
      <rect
         id="rect1082"
         y="34.560001"
         x="54"
         width="334.79999"
         height="217.44" />
    </clipPath>
    <clipPath
       id="clipPath1088">
      <rect
         id="rect1086"
         y="34.560001"
         x="54"
         width="334.79999"
         height="217.44" />
    </clipPath>
    <clipPath
       id="clipPath1092">
      <rect
         id="rect1090"
         y="34.560001"
         x="54"
         width="334.79999"
         height="217.44" />
    </clipPath>
    <clipPath
       id="clipPath1096">
      <rect
         id="rect1094"
         y="34.560001"
         x="54"
         width="334.79999"
         height="217.44" />
    </clipPath>
    <clipPath
       id="clipPath1100">
      <rect
         id="rect1098"
         y="34.560001"
         x="54"
         width="334.79999"
         height="217.44" />
    </clipPath>
    <clipPath
       id="clipPath1104">
      <rect
         id="rect1102"
         y="34.560001"
         x="54"
         width="334.79999"
         height="217.44" />
    </clipPath>
    <clipPath
       id="clipPath1108">
      <rect
         id="rect1106"
         y="34.560001"
         x="54"
         width="334.79999"
         height="217.44" />
    </clipPath>
    <clipPath
       id="clipPath1112">
      <rect
         id="rect1110"
         y="34.560001"
         x="54"
         width="334.79999"
         height="217.44" />
    </clipPath>
    <clipPath
       id="clipPath1116">
      <rect
         id="rect1114"
         y="34.560001"
         x="54"
         width="334.79999"
         height="217.44" />
    </clipPath>
    <clipPath
       id="clipPath1120">
      <rect
         id="rect1118"
         y="34.560001"
         x="54"
         width="334.79999"
         height="217.44" />
    </clipPath>
  </defs>
  <metadata
     id="metadata1137">
    <rdf:RDF>
      <cc:Work
         rdf:about="">
        <dc:format>image/svg+xml</dc:format>
        <dc:type
           rdf:resource="http://purl.org/dc/dcmitype/StillImage" />
        <dc:title></dc:title>
      </cc:Work>
    </rdf:RDF>
  </metadata>
  <g
     transform="translate(-84.510729,-133.19724)"
     id="layer1">
    <g
       style="stroke-linecap:butt;stroke-linejoin:round"
       id="PathCollection_1"
       transform="matrix(0.305783,0,0,0.305783,35.289773,107.86392)">
      <path
         id="path12"
         style="fill:#ffffff;stroke:#ffffff;stroke-width:0.86526501;stroke-linecap:butt;stroke-linejoin:round;stroke-miterlimit:4;stroke-dasharray:none"
         d="m 187.22562,94.979564 0.46368,0.742443 0.44425,0.769851 0.4256,0.796156 0.4077,0.82142 0.39052,0.845693 0.37401,0.869025 0.35813,0.891458 0.34286,0.91302 0.32815,0.93377 0.31399,0.95373 0.30032,0.9729 0.28714,0.99136 0.27441,1.00909 0.26211,1.02612 0.25021,1.04249 0.23869,1.0582 0.22752,1.07327 0.2167,1.0877 0.20618,1.10154 0.19598,1.11476 0.18605,1.12739 0.17638,1.13945 0.16696,1.15093 0.15778,1.16185 0.14881,1.17221 0.14004,1.18202 0.13146,1.19129 0.12307,1.20001 0.11482,1.20821 0.10675,1.21588 0.0988,1.22301 0.091,1.22962 0.0833,1.23573 0.0757,1.2413 0.0682,1.24636 0.0608,1.25092 0.0534,1.25496 0.0462,1.25849 0.039,1.26151 0.0318,1.26404 0.0247,1.26605 0.0176,1.26757 0.0106,1.26857 0.004,1.26907 v 0 h -0.70155 -0.69957 -0.69753 -0.69543 -0.69329 -0.69109 -0.68884 -0.68654 -0.68419 -0.68178 -0.67932 -0.67682 -0.67426 -0.67165 -0.669 -0.66628 -0.66352 -0.66072 -0.65786 -0.65494 -0.652 -0.64898 -0.64593 -0.64283 -0.63967 -0.63648 -0.63323 -0.62993 -0.6266 -0.6232 -0.61977 -0.61629 -0.61276 -0.60918 -0.60557 -0.6019 -0.5982 -0.59444 -0.59064 -0.5868 -0.58291 -0.57898 -0.57501 -0.571 -0.56694 -0.56284 -0.5587 -0.55451 -0.55029 -0.54603 -0.54172 -0.53738 -0.53299 -0.52857 H 161.4 l 0.009,-1.0421 0.0272,-1.04179 0.0452,-1.04115 0.0633,-1.04022 0.0814,-1.03896 0.0994,-1.03738 0.11741,-1.03551 0.13537,-1.03331 0.1533,-1.0308 0.17118,-1.02798 0.18901,-1.02486 0.20679,-1.02142 0.22449,-1.01767 0.24213,-1.01362 0.2597,-1.00926 0.27719,-1.0046 0.2946,-0.99964 0.31191,-0.99436 0.32914,-0.9888 0.34626,-0.98294 0.36328,-0.97677 0.3802,-0.97031 0.39698,-0.96356 0.41367,-0.95653 0.43021,-0.94919 0.44663,-0.94158 0.46293,-0.93368 0.47906,-0.9255 0.49507,-0.91704 0.51093,-0.9083 0.52662,-0.89929 0.54216,-0.89001 0.55754,-0.88046 0.57274,-0.87064 0.58778,-0.86057 0.60264,-0.85022 0.61731,-0.83963 0.63181,-0.82878 0.6461,-0.81768 0.66021,-0.80634 0.67411,-0.79475 0.68782,-0.78292 0.70131,-0.77086 0.71459,-0.75856 0.72766,-0.74603 0.7405,-0.73329 0.75313,-0.720309 0.76553,-0.707122 0.7777,-0.69372 0.78962,-0.680108 0.80132,-0.666291 0.81277,-0.652272 0.82398,-0.638058 0.83493,-0.623651 0.84564,-0.609055 0.46713,0.68901"
         clip-path="url(#p3910a3bc74)" />
      <path
         id="path14"
         style="fill:#ffffff;stroke:#ffffff;stroke-width:0.86526501;stroke-linecap:butt;stroke-linejoin:round;stroke-miterlimit:4;stroke-dasharray:none"
         d="m 280.90591,143.28 h -0.52857 -0.53299 -0.53738 -0.54172 -0.54603 -0.55029 -0.55451 -0.5587 -0.56284 -0.56694 -0.571 -0.57501 -0.57898 -0.58291 -0.5868 -0.59065 -0.59443 -0.5982 -0.6019 -0.60557 -0.60918 -0.61276 -0.61629 -0.61977 -0.6232 -0.6266 -0.62993 -0.63323 -0.63648 -0.63967 -0.64283 -0.64593 -0.64898 -0.652 -0.65494 -0.65786 -0.66072 -0.66352 -0.66628 -0.669 -0.67165 -0.67426 -0.67682 -0.67932 -0.68178 -0.68419 -0.68654 -0.68884 -0.69109 -0.69329 -0.69543 -0.69753 -0.69957 -0.70155 l 0.004,-1.26907 0.0106,-1.26857 0.0176,-1.26757 0.0247,-1.26605 0.0318,-1.26404 0.039,-1.26151 0.0462,-1.25849 0.0535,-1.25496 0.0608,-1.25092 0.0682,-1.24636 0.0757,-1.2413 0.0833,-1.23573 0.091,-1.22962 0.0988,-1.22301 0.10674,-1.21588 0.11483,-1.20821 0.12307,-1.20001 0.13146,-1.19129 0.14004,-1.18202 0.14881,-1.17221 0.15778,-1.16185 0.16696,-1.15093 0.17638,-1.13945 0.18605,-1.12739 0.19598,-1.11476 0.20618,-1.10154 0.2167,-1.0877 0.22752,-1.07327 0.23869,-1.0582 0.25021,-1.04249 0.2621,-1.02612 0.27442,-1.00909 0.28714,-0.99136 0.30032,-0.9729 0.31398,-0.95373 0.32816,-0.93377 0.34286,-0.91302 0.35813,-0.891458 0.37401,-0.869025 0.39052,-0.845693 0.4077,-0.82142 0.4256,-0.796156 0.44425,-0.769851 0.46368,-0.742443 0.46713,-0.68901 0.84564,0.609055 0.83493,0.623651 0.82398,0.638058 0.81277,0.652272 0.80132,0.666291 0.78962,0.680108 0.7777,0.69372 0.76552,0.707122 0.75314,0.720309 0.7405,0.73329 0.72766,0.74603 0.71459,0.75856 0.70131,0.77086 0.68782,0.78292 0.67411,0.79475 0.66021,0.80634 0.6461,0.81768 0.6318,0.82878 0.61732,0.83963 0.60264,0.85022 0.58778,0.86057 0.57274,0.87064 0.55754,0.88046 0.54216,0.89001 0.52662,0.89929 0.51093,0.9083 0.49507,0.91704 0.47906,0.9255 0.46292,0.93368 0.44664,0.94158 0.43021,0.94919 0.41367,0.95653 0.39698,0.96356 0.38019,0.97031 0.36329,0.97677 0.34626,0.98294 0.32914,0.9888 0.31191,0.99436 0.2946,0.99964 0.27719,1.0046 0.2597,1.00926 0.24213,1.01362 0.22449,1.01767 0.20678,1.02142 0.18901,1.02486 0.17119,1.02798 0.1533,1.0308 0.13537,1.03331 0.11741,1.03551 0.0994,1.03738 0.0814,1.03896 0.0633,1.04022 0.0452,1.04115 0.0271,1.04179 0.009,1.0421 h -0.49409"
         clip-path="url(#p3910a3bc74)" />
      <path
         id="path16"
         style="fill:#ffffff;stroke:#ffffff;stroke-width:0.86526501;stroke-linecap:butt;stroke-linejoin:round;stroke-miterlimit:4;stroke-dasharray:none"
         d="m 161.89409,143.28 h 0.52857 0.53299 0.53738 0.54172 0.54603 0.55029 0.55451 0.5587 0.56284 0.56694 0.571 0.57501 0.57898 0.58291 0.5868 0.59064 0.59444 0.5982 0.6019 0.60557 0.60918 0.61276 0.61629 0.61977 0.6232 0.6266 0.62993 0.63323 0.63648 0.63967 0.64283 0.64593 0.64898 0.652 0.65494 0.65786 0.66072 0.66352 0.66628 0.669 0.67165 0.67426 0.67682 0.67932 0.68178 0.68419 0.68654 0.68884 0.69109 0.69329 0.69543 0.69753 0.69957 0.70155 l -0.004,1.26907 -0.0106,1.26857 -0.0176,1.26757 -0.0247,1.26605 -0.0318,1.26404 -0.039,1.26151 -0.0462,1.25849 -0.0534,1.25496 -0.0608,1.25092 -0.0682,1.24636 -0.0757,1.2413 -0.0833,1.23573 -0.091,1.22962 -0.0988,1.22301 -0.10675,1.21588 -0.11482,1.20821 -0.12307,1.20001 -0.13146,1.19129 -0.14004,1.18202 -0.14881,1.17221 -0.15778,1.16185 -0.16696,1.15093 -0.17638,1.13945 -0.18605,1.12739 -0.19598,1.11476 -0.20618,1.10154 -0.2167,1.0877 -0.22752,1.07327 -0.23869,1.05819 -0.25021,1.04249 -0.26211,1.02613 -0.27441,1.00909 -0.28714,0.99136 -0.30032,0.9729 -0.31399,0.95373 -0.32815,0.93377 -0.34286,0.91302 -0.35813,0.89146 -0.37401,0.86902 -0.39052,0.8457 -0.4077,0.82142 -0.4256,0.79615 -0.44425,0.76985 -0.46368,0.74245 -0.46713,0.68901 -0.84564,-0.60906 -0.83493,-0.62365 -0.82398,-0.63806 -0.81277,-0.65227 -0.80132,-0.66629 -0.78962,-0.68011 -0.7777,-0.69372 -0.76553,-0.70712 -0.75313,-0.72031 -0.7405,-0.73329 -0.72766,-0.74603 -0.71459,-0.75856 -0.70131,-0.77086 -0.68782,-0.78292 -0.67411,-0.79475 -0.66021,-0.80634 -0.6461,-0.81768 -0.63181,-0.82878 -0.61731,-0.83963 -0.60264,-0.85022 -0.58778,-0.86057 -0.57274,-0.87064 -0.55754,-0.88046 -0.54216,-0.89001 -0.52662,-0.89929 -0.51093,-0.9083 -0.49507,-0.91704 -0.47906,-0.9255 -0.46293,-0.93368 -0.44663,-0.94158 -0.43021,-0.94919 -0.41367,-0.95653 -0.39698,-0.96356 -0.3802,-0.97031 -0.36328,-0.97678 -0.34626,-0.98293 -0.32914,-0.9888 -0.31191,-0.99436 -0.2946,-0.99964 -0.27719,-1.0046 -0.2597,-1.00926 -0.24213,-1.01362 -0.22449,-1.01767 -0.20679,-1.02142 -0.18901,-1.02486 -0.17118,-1.02798 -0.1533,-1.0308 -0.13537,-1.03331 -0.11741,-1.03551 -0.0994,-1.03739 -0.0814,-1.03895 -0.0633,-1.04022 -0.0452,-1.04115 -0.0272,-1.04179 -0.009,-1.0421 h 0.49409"
         clip-path="url(#p3910a3bc74)" />
      <path
         id="path18"
         style="fill:#ffffff;stroke:#ffffff;stroke-width:0.86526501;stroke-linecap:butt;stroke-linejoin:round;stroke-miterlimit:4;stroke-dasharray:none"
         d="m 255.57438,191.58044 -0.46368,-0.74245 -0.44425,-0.76985 -0.4256,-0.79615 -0.4077,-0.82142 -0.39052,-0.8457 -0.37401,-0.86902 -0.35813,-0.89146 -0.34286,-0.91302 -0.32816,-0.93377 -0.31398,-0.95373 -0.30032,-0.9729 -0.28714,-0.99136 -0.27442,-1.00909 -0.2621,-1.02613 -0.25021,-1.04249 -0.23869,-1.05819 -0.22752,-1.07327 -0.2167,-1.0877 -0.20618,-1.10154 -0.19598,-1.11476 -0.18605,-1.12739 -0.17638,-1.13945 -0.16696,-1.15093 -0.15778,-1.16185 -0.14881,-1.17221 -0.14004,-1.18202 -0.13146,-1.19129 -0.12307,-1.20001 -0.11483,-1.20821 -0.10674,-1.21588 -0.0988,-1.22301 -0.091,-1.22962 -0.0833,-1.23573 -0.0757,-1.2413 -0.0682,-1.24636 -0.0608,-1.25092 -0.0535,-1.25496 -0.0462,-1.25849 -0.039,-1.26151 -0.0318,-1.26404 -0.0247,-1.26605 -0.0176,-1.26757 -0.0106,-1.26857 -0.004,-1.26907 v 0 h 0.70155 0.69957 0.69753 0.69543 0.69329 0.69109 0.68884 0.68654 0.68419 0.68178 0.67932 0.67682 0.67426 0.67165 0.669 0.66628 0.66352 0.66072 0.65786 0.65494 0.652 0.64898 0.64593 0.64283 0.63967 0.63648 0.63323 0.62993 0.6266 0.6232 0.61977 0.61629 0.61276 0.60918 0.60557 0.6019 0.5982 0.59443 0.59065 0.5868 0.58291 0.57898 0.57501 0.571 0.56694 0.56284 0.5587 0.55451 0.55029 0.54603 0.54172 0.53738 0.53299 0.52857 0.49409 l -0.009,1.0421 -0.0271,1.04179 -0.0452,1.04115 -0.0633,1.04022 -0.0814,1.03895 -0.0994,1.03739 -0.11741,1.03551 -0.13537,1.03331 -0.1533,1.0308 -0.17119,1.02798 -0.18901,1.02486 -0.20678,1.02142 -0.22449,1.01767 -0.24213,1.01362 -0.2597,1.00926 -0.27719,1.0046 -0.2946,0.99964 -0.31191,0.99436 -0.32914,0.9888 -0.34626,0.98293 -0.36329,0.97678 -0.38019,0.97031 -0.39698,0.96356 -0.41367,0.95653 -0.43021,0.94919 -0.44664,0.94158 -0.46292,0.93368 -0.47906,0.9255 -0.49507,0.91704 -0.51093,0.9083 -0.52662,0.89929 -0.54216,0.89001 -0.55754,0.88046 -0.57274,0.87064 -0.58778,0.86057 -0.60264,0.85022 -0.61732,0.83963 -0.6318,0.82878 -0.6461,0.81768 -0.66021,0.80634 -0.67411,0.79475 -0.68782,0.78292 -0.70131,0.77086 -0.71459,0.75856 -0.72766,0.74603 -0.7405,0.73329 -0.75314,0.72031 -0.76552,0.70712 -0.7777,0.69372 -0.78962,0.68011 -0.80132,0.66629 -0.81277,0.65227 -0.82398,0.63806 -0.83493,0.62365 -0.84564,0.60906 -0.46713,-0.68901"
         clip-path="url(#p3910a3bc74)" />
      <path
         id="path20"
         style="fill:none;stroke:#000000;stroke-width:1.73053004;stroke-linecap:butt;stroke-linejoin:round;stroke-miterlimit:4;stroke-dasharray:none"
         d="m 187.22562,94.979564 1.33353,2.30845 1.17223,2.536138 1.02914,2.738248 0.90145,2.91799 1.02542,4.1359 0.84638,4.37727 0.68717,4.57962 0.6582,5.95374 0.45549,6.14554 0.26763,6.27224 0.0848,7.60437 -0.16995,7.58623 -0.34141,6.22927 -0.53441,6.07673 -0.74505,5.8583 -0.76459,4.48314 -0.93312,4.26165 -1.12398,3.99948 -0.985,2.80052 -1.12266,2.60618 -1.27755,2.38742 -0.93081,1.43146 -3.31732,-2.52304 -3.13417,-2.74724 -2.93588,-2.95819 -2.72345,-3.15487 -2.49786,-3.33631 -2.26022,-3.50168 -2.01168,-3.65013 -1.75344,-3.78098 -1.48672,-3.89358 -1.21284,-3.9874 -0.93311,-4.06197 -0.64886,-4.11695 -0.3615,-4.15207 -0.0724,-4.16714 0.21707,-4.16212 0.50549,-4.137 0.79147,-4.09193 1.07362,-4.02712 1.35059,-3.94287 1.62106,-3.83959 1.88369,-3.7178 2.13725,-3.57806 2.38047,-3.42106 2.61223,-3.24755 2.83138,-3.05837 3.03686,-2.854441 3.22769,-2.636729 1.68057,-1.232706 0.46713,0.68901 v 0"
         clip-path="url(#p3910a3bc74)" />
      <path
         id="path22"
         style="fill:none;stroke:#000000;stroke-width:1.73053004;stroke-linecap:butt;stroke-linejoin:round;stroke-miterlimit:4;stroke-dasharray:none"
         d="m 255.57438,191.58044 -1.33353,-2.30845 -1.17223,-2.53614 -1.02915,-2.73825 -0.90144,-2.91799 -1.02542,-4.1359 -0.84638,-4.37727 -0.68717,-4.57962 -0.65821,-5.95374 -0.45548,-6.14554 -0.26763,-6.27224 -0.0848,-7.60437 0.16994,-7.58623 0.34142,-6.22927 0.53441,-6.07673 0.74505,-5.8583 0.76459,-4.48314 0.93312,-4.26166 1.12398,-3.99947 0.985,-2.80052 1.12266,-2.606176 1.27755,-2.387427 0.93081,-1.431453 3.31732,2.523036 3.13416,2.747241 2.93589,2.958189 2.72345,3.15487 2.49786,3.33631 2.26022,3.50168 2.01168,3.65013 1.75344,3.78098 1.48672,3.89358 1.21284,3.9874 0.9331,4.06197 0.64887,4.11695 0.3615,4.15207 0.0724,4.16714 -0.21708,4.16211 -0.50548,4.13701 -0.79147,4.09193 -1.07362,4.02712 -1.3506,3.94287 -1.62105,3.83959 -1.88369,3.7178 -2.13725,3.57806 -2.38048,3.42106 -2.61222,3.24755 -2.83138,3.05837 -3.03686,2.85444 -3.22769,2.63673 -1.68057,1.23271 -0.46713,-0.68901 v 0"
         clip-path="url(#p3910a3bc74)" />
      <path
         id="path24"
         style="fill:#004f87;stroke:#004f87;stroke-width:0.86526501;stroke-linecap:butt;stroke-linejoin:round;stroke-miterlimit:4;stroke-dasharray:none"
         d="m 221.4,83.770816 v 0.525246 0.529615 0.533945 0.538238 0.542489 0.546703 0.550876 0.555009 0.559101 0.563153 0.567163 0.571131 0.575058 0.578942 0.582784 0.586583 0.590339 0.594051 0.59772 0.601344 0.604924 0.60846 0.61195 0.615396 0.618795 0.62215 0.625457 0.62872 0.631932 0.63511 0.63822 0.6413 0.64433 0.6473 0.65024 0.65312 0.65595 0.65874 0.66148 0.66416 0.6668 0.6694 0.67193 0.67442 0.67686 0.67925 0.68159 0.68388 0.68612 0.6883 0.69043 0.69253 0.69455 0.69654 0.69846 0.70034 0.70217 0.70394 0.70567 0.70733 0.70895 0.71051 0.71202 0.71347 0.71489 0.71623 0.71753 0.71878 0.71997 0.72111 0.72219 0.72322 0.72419 0.72512 0.72599 0.72681 0.72756 0.72827 0.72893 0.72952 0.73007 0.73056 0.73099 0.73137 0.7317 0.73197 0.7322 0.73235 0.73246 0.73252 h -0.36787 -0.73572 -0.73564 -0.7355 -0.73531 -0.73505 -0.73476 -0.73439 -0.73399 -0.73351 -0.73299 -0.73241 -0.73177 -0.73109 -0.73035 -0.72954 -0.7287 -0.72778 -0.72682 -0.72581 -0.72473 -0.72361 -0.72243 -0.7212 -0.7199 -0.71857 -0.71716 -0.71572 -0.71422 -0.71266 -0.71104 -0.70939 -0.70766 -0.7059 -0.70407 -0.7022 l -0.004,-1.26907 -0.0106,-1.26857 -0.0176,-1.26757 -0.0247,-1.26605 -0.0318,-1.26404 -0.039,-1.26151 -0.0462,-1.25849 -0.0534,-1.25496 -0.0608,-1.25092 -0.0682,-1.24636 -0.0757,-1.2413 -0.0833,-1.23573 -0.091,-1.22962 -0.0988,-1.22301 -0.10675,-1.21588 -0.11482,-1.20821 -0.12307,-1.20001 -0.13146,-1.19129 -0.14004,-1.18202 -0.14881,-1.17221 -0.15778,-1.16185 -0.16696,-1.15093 -0.17638,-1.13945 -0.18605,-1.12739 -0.19598,-1.11476 -0.20618,-1.10154 -0.2167,-1.0877 -0.22752,-1.07327 -0.23869,-1.0582 -0.25021,-1.04249 -0.26211,-1.02612 -0.27441,-1.00909 -0.28714,-0.99136 -0.30032,-0.9729 -0.31399,-0.95373 -0.32815,-0.93377 -0.34286,-0.91302 -0.35813,-0.891458 -0.37401,-0.869025 -0.39052,-0.845693 -0.4077,-0.82142 -0.4256,-0.796156 -0.44425,-0.769851 -0.46368,-0.742443 -0.46713,-0.68901 0.84259,-0.585075 0.85247,-0.570584 0.8621,-0.555928 0.87148,-0.541107 0.88061,-0.52613 0.88946,-0.510997 0.89808,-0.495717 0.90642,-0.480291 0.91449,-0.464724 0.92231,-0.449022 0.92985,-0.433188 0.93712,-0.417228 0.94412,-0.401146 0.95084,-0.384947 0.95727,-0.368635 0.96344,-0.352215 0.96933,-0.335693 0.97491,-0.319072 0.98024,-0.302358 0.98525,-0.285556 0.99,-0.26867 0.99444,-0.251706 0.9986,-0.234668 1.00247,-0.217561 1.00604,-0.200391 1.00932,-0.183163 1.0123,-0.16588 1.01499,-0.14855 1.01738,-0.131176 1.01948,-0.113763 1.02127,-0.09632 1.02277,-0.07884 1.02397,-0.06135 1.02487,-0.04383 1.02546,-0.0263 L 221.4,83.28 v 0.490816"
         clip-path="url(#p3910a3bc74)" />
      <path
         id="path26"
         style="fill:#004f87;stroke:#004f87;stroke-width:0.86526501;stroke-linecap:butt;stroke-linejoin:round;stroke-miterlimit:4;stroke-dasharray:none"
         d="m 255.57438,94.979564 -0.46368,0.742443 -0.44425,0.769851 -0.4256,0.796156 -0.4077,0.82142 -0.39052,0.845693 -0.37401,0.869025 -0.35813,0.891458 -0.34286,0.91302 -0.32816,0.93377 -0.31398,0.95373 -0.30032,0.9729 -0.28714,0.99136 -0.27442,1.00909 -0.2621,1.02612 -0.25021,1.04249 -0.23869,1.0582 -0.22752,1.07327 -0.2167,1.0877 -0.20618,1.10154 -0.19598,1.11476 -0.18605,1.12739 -0.17638,1.13945 -0.16696,1.15093 -0.15778,1.16185 -0.14881,1.17221 -0.14004,1.18202 -0.13146,1.19129 -0.12307,1.20001 -0.11483,1.20821 -0.10674,1.21588 -0.0988,1.22301 -0.091,1.22962 -0.0833,1.23573 -0.0757,1.2413 -0.0682,1.24636 -0.0608,1.25092 -0.0535,1.25496 -0.0462,1.25849 -0.039,1.26151 -0.0318,1.26404 -0.0247,1.26605 -0.0176,1.26757 -0.0106,1.26857 -0.004,1.26907 v 0 h -0.7022 -0.70407 -0.7059 -0.70767 -0.70938 -0.71105 -0.71265 -0.71422 -0.71572 -0.71716 -0.71857 -0.71991 -0.72119 -0.72243 -0.72361 -0.72473 -0.72581 -0.72682 -0.72779 -0.72869 -0.72954 -0.73035 -0.73109 -0.73177 -0.73241 -0.73299 -0.73351 -0.73399 -0.73439 -0.73476 -0.73505 -0.73531 -0.7355 -0.73564 -0.73572 H 221.4 v -0.73252 -0.73246 -0.73235 -0.7322 -0.73197 -0.7317 -0.73137 -0.73099 -0.73056 -0.73007 -0.72952 -0.72893 -0.72827 -0.72756 -0.72681 -0.72599 -0.72512 -0.72419 -0.72322 -0.72219 -0.72111 -0.71997 -0.71878 -0.71753 -0.71623 -0.71489 -0.71347 -0.71202 -0.71051 -0.70895 -0.70733 -0.70567 -0.70394 -0.70217 -0.70034 -0.69846 -0.69654 -0.69455 -0.69253 -0.69043 -0.6883 -0.68612 -0.68388 -0.68159 -0.67925 -0.67686 -0.67442 -0.67193 -0.6694 -0.6668 -0.66416 -0.66148 -0.65874 -0.65595 -0.65312 -0.65024 -0.6473 -0.64433 -0.6413 -0.63822 -0.63511 -0.631932 -0.62872 -0.625457 -0.62215 V 97.501036 96.88564 96.27369 95.66523 95.060306 94.458962 93.861242 93.267191 92.676852 92.090269 91.507485 90.928543 90.353485 89.782354 89.215191 88.652038 88.092937 87.537928 86.987052 86.440349 85.89786 85.359622 84.825677 84.296062 83.770816 83.28 l 1.02577,0.0088 1.02546,0.0263 1.02487,0.04383 1.02397,0.06135 1.02277,0.07884 1.02127,0.09632 1.01947,0.113763 1.01739,0.131176 1.01499,0.14855 1.0123,0.16588 1.00932,0.183163 1.00604,0.200391 1.00247,0.217561 0.9986,0.234668 0.99444,0.251706 0.99,0.26867 0.98525,0.285556 0.98023,0.302358 0.97492,0.319072 0.96932,0.335693 0.96345,0.352215 0.95727,0.368635 0.95084,0.384947 0.94412,0.401146 0.93712,0.417228 0.92985,0.433188 0.9223,0.449022 0.9145,0.464724 0.90642,0.480291 0.89807,0.495717 0.88947,0.510997 0.88061,0.52613 0.87148,0.541107 0.8621,0.555928 0.85247,0.570584 0.84259,0.585075 -0.46713,0.68901"
         clip-path="url(#p3910a3bc74)" />
      <path
         id="path28"
         style="fill:#004f87;stroke:#004f87;stroke-width:0.86526501;stroke-linecap:butt;stroke-linejoin:round;stroke-miterlimit:4;stroke-dasharray:none"
         d="m 187.22562,191.58044 0.46368,-0.74245 0.44425,-0.76985 0.4256,-0.79615 0.4077,-0.82142 0.39052,-0.8457 0.37401,-0.86902 0.35813,-0.89146 0.34286,-0.91302 0.32815,-0.93377 0.31399,-0.95373 0.30032,-0.9729 0.28714,-0.99136 0.27441,-1.00909 0.26211,-1.02613 0.25021,-1.04249 0.23869,-1.05819 0.22752,-1.07327 0.2167,-1.0877 0.20618,-1.10154 0.19598,-1.11476 0.18605,-1.12739 0.17638,-1.13945 0.16696,-1.15093 0.15778,-1.16185 0.14881,-1.17221 0.14004,-1.18202 0.13146,-1.19129 0.12307,-1.20001 0.11482,-1.20821 0.10675,-1.21588 0.0988,-1.22301 0.091,-1.22962 0.0833,-1.23573 0.0757,-1.2413 0.0682,-1.24636 0.0608,-1.25092 0.0534,-1.25496 0.0462,-1.25849 0.039,-1.26151 0.0318,-1.26404 0.0247,-1.26605 0.0176,-1.26757 0.0106,-1.26857 0.004,-1.26907 v 0 h 0.7022 0.70407 0.7059 0.70766 0.70939 0.71104 0.71266 0.71422 0.71572 0.71716 0.71857 0.7199 0.7212 0.72243 0.72361 0.72473 0.72581 0.72682 0.72778 0.7287 0.72954 0.73035 0.73109 0.73177 0.73241 0.73299 0.73351 0.73399 0.73439 0.73476 0.73505 0.73531 0.7355 0.73564 0.73572 0.36787 v 0.73252 0.73246 0.73235 0.7322 0.73197 0.7317 0.73137 0.73099 0.73056 0.73007 0.72952 0.72892 0.72828 0.72756 0.72681 0.72599 0.72512 0.72419 0.72322 0.72219 0.72111 0.71997 0.71878 0.71753 0.71623 0.71489 0.71347 0.71202 0.71051 0.70895 0.70733 0.70567 0.70394 0.70216 0.70035 0.69846 0.69654 0.69455 0.69252 0.69044 0.6883 0.68612 0.68388 0.68159 0.67925 0.67686 0.67442 0.67193 0.6694 0.6668 0.66416 0.66148 0.65874 0.65595 0.65312 0.65024 0.6473 0.64433 0.6413 0.63822 0.63511 0.63193 0.62872 0.62546 0.62215 0.61879 0.6154 0.61195 0.60846 0.60492 0.60135 0.59772 0.59405 0.59034 0.58658 0.58278 0.57895 0.57505 0.57114 0.56716 0.56315 0.5591 0.55501 0.55088 0.5467 0.54249 0.53824 0.53394 0.52962 0.52524 0.49082 l -1.02577,-0.009 -1.02546,-0.0263 -1.02487,-0.0438 -1.02397,-0.0613 -1.02277,-0.0788 -1.02127,-0.0963 -1.01948,-0.11377 -1.01738,-0.13117 -1.01499,-0.14855 -1.0123,-0.16588 -1.00932,-0.18317 -1.00604,-0.20039 -1.00247,-0.21756 -0.9986,-0.23467 -0.99444,-0.2517 -0.99,-0.26867 -0.98525,-0.28556 -0.98024,-0.30236 -0.97491,-0.31907 -0.96933,-0.33569 -0.96344,-0.35222 -0.95727,-0.36863 -0.95084,-0.38495 -0.94412,-0.40114 -0.93712,-0.41723 -0.92985,-0.43319 -0.92231,-0.44902 -0.91449,-0.46472 -0.90642,-0.4803 -0.89808,-0.49571 -0.88946,-0.511 -0.88061,-0.52613 -0.87148,-0.54111 -0.8621,-0.55593 -0.85247,-0.57058 -0.84259,-0.58507 0.46713,-0.68901"
         clip-path="url(#p3910a3bc74)" />
      <path
         id="path30"
         style="fill:#004f87;stroke:#004f87;stroke-width:0.86526501;stroke-linecap:butt;stroke-linejoin:round;stroke-miterlimit:4;stroke-dasharray:none"
         d="m 221.4,202.78918 v -0.52524 -0.52962 -0.53394 -0.53824 -0.54249 -0.5467 -0.55088 -0.55501 -0.5591 -0.56315 -0.56716 -0.57114 -0.57505 -0.57895 -0.58278 -0.58658 -0.59034 -0.59405 -0.59772 -0.60135 -0.60492 -0.60846 -0.61195 -0.6154 -0.61879 -0.62215 -0.62546 -0.62872 -0.63193 -0.63511 -0.63822 -0.6413 -0.64433 -0.6473 -0.65024 -0.65312 -0.65595 -0.65874 -0.66148 -0.66416 -0.6668 -0.6694 -0.67193 -0.67442 -0.67686 -0.67925 -0.68159 -0.68388 -0.68612 -0.6883 -0.69044 -0.69252 -0.69455 -0.69654 -0.69846 -0.70035 -0.70216 -0.70394 -0.70567 -0.70733 -0.70895 -0.71051 -0.71202 -0.71347 -0.71489 -0.71623 -0.71753 -0.71878 -0.71997 -0.72111 -0.72219 -0.72322 -0.72419 -0.72512 -0.72599 -0.72681 -0.72756 -0.72828 -0.72892 -0.72952 -0.73007 -0.73056 -0.73099 -0.73137 -0.7317 -0.73197 -0.7322 -0.73235 -0.73246 -0.73252 h 0.36787 0.73572 0.73564 0.7355 0.73531 0.73505 0.73476 0.73439 0.73399 0.73351 0.73299 0.73241 0.73177 0.73109 0.73035 0.72954 0.72869 0.72779 0.72682 0.72581 0.72473 0.72361 0.72243 0.72119 0.71991 0.71857 0.71716 0.71572 0.71422 0.71265 0.71105 0.70938 0.70767 0.7059 0.70407 0.7022 l 0.004,1.26907 0.0106,1.26857 0.0176,1.26757 0.0247,1.26605 0.0318,1.26404 0.039,1.26151 0.0462,1.25849 0.0535,1.25496 0.0608,1.25092 0.0682,1.24636 0.0757,1.2413 0.0833,1.23573 0.091,1.22962 0.0988,1.22301 0.10674,1.21588 0.11483,1.20821 0.12307,1.20001 0.13146,1.19129 0.14004,1.18202 0.14881,1.17221 0.15778,1.16185 0.16696,1.15093 0.17638,1.13945 0.18605,1.12739 0.19598,1.11476 0.20618,1.10154 0.2167,1.0877 0.22752,1.07327 0.23869,1.05819 0.25021,1.04249 0.2621,1.02613 0.27442,1.00909 0.28714,0.99136 0.30032,0.9729 0.31398,0.95373 0.32816,0.93377 0.34286,0.91302 0.35813,0.89146 0.37401,0.86902 0.39052,0.8457 0.4077,0.82142 0.4256,0.79615 0.44425,0.76985 0.46368,0.74245 0.46713,0.68901 -0.84259,0.58507 -0.85247,0.57058 -0.8621,0.55593 -0.87148,0.54111 -0.88061,0.52613 -0.88947,0.511 -0.89807,0.49571 -0.90642,0.4803 -0.9145,0.46472 -0.9223,0.44902 -0.92985,0.43319 -0.93712,0.41723 -0.94412,0.40114 -0.95084,0.38495 -0.95727,0.36863 -0.96345,0.35222 -0.96932,0.33569 -0.97492,0.31907 -0.98023,0.30236 -0.98525,0.28556 -0.99,0.26867 -0.99444,0.2517 -0.9986,0.23467 -1.00247,0.21756 -1.00604,0.20039 -1.00932,0.18317 -1.0123,0.16588 -1.01499,0.14855 -1.01739,0.13117 -1.01947,0.11377 -1.02127,0.0963 -1.02277,0.0788 -1.02397,0.0613 -1.02487,0.0438 -1.02546,0.0263 -1.02577,0.009 v -0.49082"
         clip-path="url(#p3910a3bc74)" />
      <path
         id="path32"
         style="fill:none;stroke:#000000;stroke-width:1.73053004;stroke-linecap:butt;stroke-linejoin:round;stroke-miterlimit:4;stroke-dasharray:none"
         d="m 187.22562,191.58044 1.33353,-2.30845 1.17223,-2.53614 1.02914,-2.73825 0.90145,-2.91799 1.02542,-4.1359 0.84638,-4.37727 0.68717,-4.57962 0.6582,-5.95374 0.45549,-6.14554 0.26763,-6.27224 0.0848,-7.60437 -0.16995,-7.58623 -0.34141,-6.22927 -0.53441,-6.07673 -0.74505,-5.8583 -0.76459,-4.48314 -0.93312,-4.26166 -1.12398,-3.99947 -0.985,-2.80052 -1.12266,-2.606176 -1.27755,-2.387427 -0.93081,-1.431453 3.47801,-2.282735 3.62784,-2.036238 3.76022,-1.77995 3.87452,-1.515106 3.9702,-1.242978 4.04678,-0.964873 4.10393,-0.68213 4.14132,-0.396108 4.15882,-0.108182 4.15631,0.180266 4.13384,0.467846 4.09147,0.753177 4.02945,1.034887 3.94806,1.311622 3.84767,1.58205 3.72879,1.844874 3.59199,2.098827 2.5938,1.734751 -1.37506,2.201304 -1.22382,2.463269 -1.075,2.673503 -0.94246,2.8604 -1.07387,4.06906 -0.88909,4.32071 -0.72537,4.53253 -0.70116,5.90738 -0.49463,6.11245 -0.30432,6.25203 -0.12727,7.59681 0.12727,7.59681 0.30432,6.25203 0.49463,6.11245 0.70116,5.90738 0.72537,4.53253 0.88909,4.3207 1.07387,4.06907 0.94246,2.8604 1.075,2.6735 1.22382,2.46327 1.37506,2.20131 -3.47801,2.28273 -3.62784,2.03624 -3.76022,1.77995 -3.87452,1.5151 -3.9702,1.24298 -4.04678,0.96488 -4.10393,0.68213 -4.14132,0.3961 -4.15882,0.10819 -4.15631,-0.18027 -4.13384,-0.46785 -4.09147,-0.75317 -4.02945,-1.03489 -3.94806,-1.31162 -3.84767,-1.58205 -3.72879,-1.84488 -3.59199,-2.09882 -2.5938,-1.73475 0.46713,-0.68901 v 0"
         clip-path="url(#p3910a3bc74)" />
    </g>
  </g>
</svg>
