<?xml version="1.0" encoding="UTF-8" standalone="no"?>
<svg
   xmlns:dc="http://purl.org/dc/elements/1.1/"
   xmlns:cc="http://creativecommons.org/ns#"
   xmlns:rdf="http://www.w3.org/1999/02/22-rdf-syntax-ns#"
   xmlns:svg="http://www.w3.org/2000/svg"
   xmlns="http://www.w3.org/2000/svg"
   id="svg10584"
   version="1.1"
   viewBox="0 0 16.653595 6.500206"
   height="6.500206mm"
   width="16.653595mm">
  <defs
     id="defs10578">
    <clipPath
       id="clip13">
      <path
         id="path1151"
         d="m 26,381 h 27 v 27 H 26 Z m 0,0" />
    </clipPath>
    <clipPath
       id="clip14">
      <path
         id="path1154"
         d="m 22.878906,384.47266 26.234375,-6.73438 6.730469,26.25 -26.238281,6.73047 z m 0,0" />
    </clipPath>
    <clipPath
       id="clip11">
      <path
         id="path1145"
         d="m 36,381 h 17 v 20 H 36 Z m 0,0" />
    </clipPath>
    <clipPath
       id="clip12">
      <path
         id="path1148"
         d="m 22.878906,384.47266 26.234375,-6.73438 6.730469,26.25 -26.238281,6.73047 z m 0,0" />
    </clipPath>
    <clipPath
       id="clip9">
      <path
         id="path1139"
         d="m 26,384 h 16 v 24 H 26 Z m 0,0" />
    </clipPath>
    <clipPath
       id="clip10">
      <path
         id="path1142"
         d="m 22.878906,384.47266 26.234375,-6.73438 6.730469,26.25 -26.238281,6.73047 z m 0,0" />
    </clipPath>
    <clipPath
       id="clip7">
      <path
         id="path1133"
         d="m 36,381 h 17 v 20 H 36 Z m 0,0" />
    </clipPath>
    <clipPath
       id="clip8">
      <path
         id="path1136"
         d="m 22.878906,384.47266 26.234375,-6.73438 6.730469,26.25 -26.238281,6.73047 z m 0,0" />
    </clipPath>
    <clipPath
       id="clip5">
      <path
         id="path1127"
         d="m 26,384 h 16 v 24 H 26 Z m 0,0" />
    </clipPath>
    <clipPath
       id="clip6">
      <path
         id="path1130"
         d="m 22.878906,384.47266 26.234375,-6.73438 6.730469,26.25 -26.238281,6.73047 z m 0,0" />
    </clipPath>
    <clipPath
       id="clip3">
      <path
         id="path1121"
         d="m 26,385 h 16 v 23 H 26 Z m 0,0" />
    </clipPath>
    <clipPath
       id="clip4">
      <path
         id="path1124"
         d="m 22.878906,384.47266 26.234375,-6.73438 6.730469,26.25 -26.238281,6.73047 z m 0,0" />
    </clipPath>
    <clipPath
       id="clip1">
      <path
         id="path1115"
         d="m 26,381 h 27 v 27 H 26 Z m 0,0" />
    </clipPath>
    <clipPath
       id="clip2">
      <path
         id="path1118"
         d="m 22.878906,384.47266 26.234375,-6.73438 6.730469,26.25 -26.238281,6.73047 z m 0,0" />
    </clipPath>
  </defs>
  <metadata
     id="metadata10581">
    <rdf:RDF>
      <cc:Work
         rdf:about="">
        <dc:format>image/svg+xml</dc:format>
        <dc:type
           rdf:resource="http://purl.org/dc/dcmitype/StillImage" />
        <dc:title></dc:title>
      </cc:Work>
    </rdf:RDF>
  </metadata>
  <g
     transform="translate(-175.94014,-271.61485)"
     id="layer1">
    <path
       style="fill:#ffffff;fill-opacity:1;fill-rule:nonzero;stroke:#000000;stroke-width:0.06614583;stroke-linecap:round;stroke-linejoin:round;stroke-miterlimit:4;stroke-opacity:1"
       d="m 176.53821,271.64792 c -0.36518,0.99632 -0.565,2.08222 -0.565,3.21634 0,1.1355 0.19982,2.22002 0.565,3.21772 h 15.45745 c 0.36518,-0.9977 0.565,-2.08222 0.565,-3.21772 0,-1.13412 -0.19982,-2.22002 -0.565,-3.21634 z m 0,0"
       id="path1925" />
    <path
       style="fill:#004f87;fill-opacity:0.08235288;fill-rule:nonzero;stroke:#000000;stroke-width:0.06614583;stroke-linecap:butt;stroke-linejoin:miter;stroke-miterlimit:4;stroke-opacity:1"
       d="m 176.53821,271.64792 c -0.0372,0.10473 -0.073,0.21084 -0.10749,0.31695 -0.01,0.10749 -0.0207,0.2136 -0.0262,0.32108 -0.0372,1.04869 0.10473,2.05604 0.39825,3.03169 0.28388,0.82682 0.67111,1.57923 1.17547,2.2586 0.13091,0.17501 0.26734,0.34313 0.4079,0.50574 h 11.76155 c 0.50299,-0.57051 0.91778,-1.21818 1.24024,-1.91272 0.46302,-0.96738 0.66972,-2.03536 0.74138,-3.10885 0.011,-0.36794 0.004,-0.73311 -0.0234,-1.09278 -0.0345,-0.10749 -0.0717,-0.2136 -0.11024,-0.31971 z m 0,0"
       id="path1927" />
    <path
       style="fill:#004f87;fill-opacity:0.08235288;fill-rule:nonzero;stroke:#000000;stroke-width:0.06614583;stroke-linecap:butt;stroke-linejoin:miter;stroke-miterlimit:4;stroke-opacity:1"
       d="m 178.78165,271.64792 c -0.14331,0.46164 -0.2384,0.93982 -0.2756,1.4304 -0.21222,1.90721 0.62563,3.76894 1.96232,5.00366 h 7.60402 c 1.32292,-1.21267 2.14422,-3.05373 1.96508,-4.93613 -0.0262,-0.51401 -0.12127,-1.01562 -0.27147,-1.49793 z m 0,0"
       id="path1929" />
    <path
       style="fill:#004f87;fill-opacity:0.08235288;fill-rule:nonzero;stroke:#000000;stroke-width:0.06614583;stroke-linecap:butt;stroke-linejoin:miter;stroke-miterlimit:4;stroke-opacity:1"
       d="m 181.35032,271.64792 c -0.0648,0.0841 -0.12678,0.16674 -0.18466,0.25356 -0.36794,0.59807 -0.62563,1.30776 -0.68488,2.05052 -0.12403,1.04593 0.32108,2.09738 0.95222,2.84014 0.52228,0.59393 1.2113,1.07211 1.96508,1.28984 h 1.74046 c 0.81856,-0.23564 1.55581,-0.77032 2.09049,-1.4304 0.42168,-0.57051 0.7593,-1.25815 0.83096,-2.01332 0.0882,-1.07349 -0.24943,-2.15249 -0.87368,-2.99034 z m 0,0"
       id="path1931" />
    <path
       style="fill:#004f87;fill-opacity:0.08235288;fill-rule:nonzero;stroke:#000000;stroke-width:0.06614583;stroke-linecap:butt;stroke-linejoin:miter;stroke-miterlimit:4;stroke-opacity:1"
       d="m 184.00718,272.55881 c 0.71382,-0.14332 1.39044,0.3321 1.79145,0.90674 0.34451,0.55122 0.51263,1.32292 0.16536,1.90583 -0.35829,0.71245 -1.09967,1.26366 -1.88378,1.18236 -0.86678,-0.16812 -1.56958,-0.90813 -1.7005,-1.83142 -0.0207,-1.01285 0.69591,-1.95681 1.62747,-2.16351 z m 0,0"
       id="path1933" />
    <path
       style="fill:#ffffff;fill-opacity:1;fill-rule:nonzero;stroke:#000000;stroke-width:0.06614583;stroke-linecap:round;stroke-linejoin:round;stroke-miterlimit:4;stroke-opacity:1"
       d="m 184.41783,274.78434 c 0,0.0882 -0.0675,0.16123 -0.15021,0.16123 -0.0841,0 -0.15158,-0.073 -0.15158,-0.16123 0,-0.0882 0.0675,-0.16123 0.15158,-0.16123 0.0827,0 0.15021,0.073 0.15021,0.16123 z m 0,0"
       id="path1935" />
  </g>
</svg>
