<?xml version="1.0" encoding="utf-8" standalone="no"?>
<!DOCTYPE svg PUBLIC "-//W3C//DTD SVG 1.1//EN"
  "http://www.w3.org/Graphics/SVG/1.1/DTD/svg11.dtd">
<!-- Created with matplotlib (http://matplotlib.org/) -->
<svg height="198pt" version="1.1" viewBox="0 0 340 198" width="340pt" xmlns="http://www.w3.org/2000/svg" xmlns:xlink="http://www.w3.org/1999/xlink">
 <defs>
  <style type="text/css">
*{stroke-linecap:butt;stroke-linejoin:round;}
  </style>
 </defs>
 <g id="figure_1">
  <g id="patch_1">
   <path d="M 0 198.4255 
L 340.158 198.4255 
L 340.158 0 
L 0 0 
z
" style="fill:#ffffff;"/>
  </g>
  <g id="axes_1">
   <g id="patch_2">
    <path d="M 27 153.4255 
L 313.158 153.4255 
L 313.158 45 
L 27 45 
z
" style="fill:#ffffff;"/>
   </g>
   <g id="matplotlib.axis_1">
    <g id="xtick_1">
     <g id="line2d_1">
      <defs>
       <path d="M 0 0 
L 0 6.3639 
" id="md005035b21" style="stroke:#000000;stroke-width:0.5;"/>
      </defs>
      <g>
       <use style="stroke:#000000;stroke-width:0.5;" x="73.729505" xlink:href="#md005035b21" y="153.4255"/>
      </g>
     </g>
     <g id="text_1">
      <!-- −2 -->
      <defs>
       <path d="M 10.59375 35.5 
L 73.1875 35.5 
L 73.1875 27.203125 
L 10.59375 27.203125 
z
" id="DejaVuSans-2212"/>
       <path d="M 19.1875 8.296875 
L 53.609375 8.296875 
L 53.609375 0 
L 7.328125 0 
L 7.328125 8.296875 
Q 12.9375 14.109375 22.625 23.890625 
Q 32.328125 33.6875 34.8125 36.53125 
Q 39.546875 41.84375 41.421875 45.53125 
Q 43.3125 49.21875 43.3125 52.78125 
Q 43.3125 58.59375 39.234375 62.25 
Q 35.15625 65.921875 28.609375 65.921875 
Q 23.96875 65.921875 18.8125 64.3125 
Q 13.671875 62.703125 7.8125 59.421875 
L 7.8125 69.390625 
Q 13.765625 71.78125 18.9375 73 
Q 24.125 74.21875 28.421875 74.21875 
Q 39.75 74.21875 46.484375 68.546875 
Q 53.21875 62.890625 53.21875 53.421875 
Q 53.21875 48.921875 51.53125 44.890625 
Q 49.859375 40.875 45.40625 35.40625 
Q 44.1875 33.984375 37.640625 27.21875 
Q 31.109375 20.453125 19.1875 8.296875 
" id="DejaVuSans-32"/>
      </defs>
      <g transform="translate(67.095521 172.991894)scale(0.09 -0.09)">
       <use xlink:href="#DejaVuSans-2212"/>
       <use x="83.789062" xlink:href="#DejaVuSans-32"/>
      </g>
     </g>
    </g>
    <g id="xtick_2">
     <g id="line2d_2">
      <g>
       <use style="stroke:#000000;stroke-width:0.5;" x="121.904253" xlink:href="#md005035b21" y="153.4255"/>
      </g>
     </g>
     <g id="text_2">
      <!-- −1 -->
      <defs>
       <path d="M 12.40625 8.296875 
L 28.515625 8.296875 
L 28.515625 63.921875 
L 10.984375 60.40625 
L 10.984375 69.390625 
L 28.421875 72.90625 
L 38.28125 72.90625 
L 38.28125 8.296875 
L 54.390625 8.296875 
L 54.390625 0 
L 12.40625 0 
z
" id="DejaVuSans-31"/>
      </defs>
      <g transform="translate(115.270268 172.991894)scale(0.09 -0.09)">
       <use xlink:href="#DejaVuSans-2212"/>
       <use x="83.789062" xlink:href="#DejaVuSans-31"/>
      </g>
     </g>
    </g>
    <g id="xtick_3">
     <g id="line2d_3">
      <g>
       <use style="stroke:#000000;stroke-width:0.5;" x="170.079" xlink:href="#md005035b21" y="153.4255"/>
      </g>
     </g>
     <g id="text_3">
      <!-- 0 -->
      <defs>
       <path d="M 31.78125 66.40625 
Q 24.171875 66.40625 20.328125 58.90625 
Q 16.5 51.421875 16.5 36.375 
Q 16.5 21.390625 20.328125 13.890625 
Q 24.171875 6.390625 31.78125 6.390625 
Q 39.453125 6.390625 43.28125 13.890625 
Q 47.125 21.390625 47.125 36.375 
Q 47.125 51.421875 43.28125 58.90625 
Q 39.453125 66.40625 31.78125 66.40625 
M 31.78125 74.21875 
Q 44.046875 74.21875 50.515625 64.515625 
Q 56.984375 54.828125 56.984375 36.375 
Q 56.984375 17.96875 50.515625 8.265625 
Q 44.046875 -1.421875 31.78125 -1.421875 
Q 19.53125 -1.421875 13.0625 8.265625 
Q 6.59375 17.96875 6.59375 36.375 
Q 6.59375 54.828125 13.0625 64.515625 
Q 19.53125 74.21875 31.78125 74.21875 
" id="DejaVuSans-30"/>
      </defs>
      <g transform="translate(167.215875 172.991894)scale(0.09 -0.09)">
       <use xlink:href="#DejaVuSans-30"/>
      </g>
     </g>
    </g>
    <g id="xtick_4">
     <g id="line2d_4">
      <g>
       <use style="stroke:#000000;stroke-width:0.5;" x="218.253747" xlink:href="#md005035b21" y="153.4255"/>
      </g>
     </g>
     <g id="text_4">
      <!-- 1 -->
      <g transform="translate(215.390622 172.991894)scale(0.09 -0.09)">
       <use xlink:href="#DejaVuSans-31"/>
      </g>
     </g>
    </g>
    <g id="xtick_5">
     <g id="line2d_5">
      <g>
       <use style="stroke:#000000;stroke-width:0.5;" x="266.428495" xlink:href="#md005035b21" y="153.4255"/>
      </g>
     </g>
     <g id="text_5">
      <!-- 2 -->
      <g transform="translate(263.56537 172.991894)scale(0.09 -0.09)">
       <use xlink:href="#DejaVuSans-32"/>
      </g>
     </g>
    </g>
    <g id="text_6">
     <!-- Time [s] -->
     <defs>
      <path d="M -0.296875 72.90625 
L 61.375 72.90625 
L 61.375 64.59375 
L 35.5 64.59375 
L 35.5 0 
L 25.59375 0 
L 25.59375 64.59375 
L -0.296875 64.59375 
z
" id="DejaVuSans-54"/>
      <path d="M 9.421875 54.6875 
L 18.40625 54.6875 
L 18.40625 0 
L 9.421875 0 
z
M 9.421875 75.984375 
L 18.40625 75.984375 
L 18.40625 64.59375 
L 9.421875 64.59375 
z
" id="DejaVuSans-69"/>
      <path d="M 52 44.1875 
Q 55.375 50.25 60.0625 53.125 
Q 64.75 56 71.09375 56 
Q 79.640625 56 84.28125 50.015625 
Q 88.921875 44.046875 88.921875 33.015625 
L 88.921875 0 
L 79.890625 0 
L 79.890625 32.71875 
Q 79.890625 40.578125 77.09375 44.375 
Q 74.3125 48.1875 68.609375 48.1875 
Q 61.625 48.1875 57.5625 43.546875 
Q 53.515625 38.921875 53.515625 30.90625 
L 53.515625 0 
L 44.484375 0 
L 44.484375 32.71875 
Q 44.484375 40.625 41.703125 44.40625 
Q 38.921875 48.1875 33.109375 48.1875 
Q 26.21875 48.1875 22.15625 43.53125 
Q 18.109375 38.875 18.109375 30.90625 
L 18.109375 0 
L 9.078125 0 
L 9.078125 54.6875 
L 18.109375 54.6875 
L 18.109375 46.1875 
Q 21.1875 51.21875 25.484375 53.609375 
Q 29.78125 56 35.6875 56 
Q 41.65625 56 45.828125 52.96875 
Q 50 49.953125 52 44.1875 
" id="DejaVuSans-6d"/>
      <path d="M 56.203125 29.59375 
L 56.203125 25.203125 
L 14.890625 25.203125 
Q 15.484375 15.921875 20.484375 11.0625 
Q 25.484375 6.203125 34.421875 6.203125 
Q 39.59375 6.203125 44.453125 7.46875 
Q 49.3125 8.734375 54.109375 11.28125 
L 54.109375 2.78125 
Q 49.265625 0.734375 44.1875 -0.34375 
Q 39.109375 -1.421875 33.890625 -1.421875 
Q 20.796875 -1.421875 13.15625 6.1875 
Q 5.515625 13.8125 5.515625 26.8125 
Q 5.515625 40.234375 12.765625 48.109375 
Q 20.015625 56 32.328125 56 
Q 43.359375 56 49.78125 48.890625 
Q 56.203125 41.796875 56.203125 29.59375 
M 47.21875 32.234375 
Q 47.125 39.59375 43.09375 43.984375 
Q 39.0625 48.390625 32.421875 48.390625 
Q 24.90625 48.390625 20.390625 44.140625 
Q 15.875 39.890625 15.1875 32.171875 
z
" id="DejaVuSans-65"/>
      <path id="DejaVuSans-20"/>
      <path d="M 8.59375 75.984375 
L 29.296875 75.984375 
L 29.296875 69 
L 17.578125 69 
L 17.578125 -6.203125 
L 29.296875 -6.203125 
L 29.296875 -13.1875 
L 8.59375 -13.1875 
z
" id="DejaVuSans-5b"/>
      <path d="M 44.28125 53.078125 
L 44.28125 44.578125 
Q 40.484375 46.53125 36.375 47.5 
Q 32.28125 48.484375 27.875 48.484375 
Q 21.1875 48.484375 17.84375 46.4375 
Q 14.5 44.390625 14.5 40.28125 
Q 14.5 37.15625 16.890625 35.375 
Q 19.28125 33.59375 26.515625 31.984375 
L 29.59375 31.296875 
Q 39.15625 29.25 43.1875 25.515625 
Q 47.21875 21.78125 47.21875 15.09375 
Q 47.21875 7.46875 41.1875 3.015625 
Q 35.15625 -1.421875 24.609375 -1.421875 
Q 20.21875 -1.421875 15.453125 -0.5625 
Q 10.6875 0.296875 5.421875 2 
L 5.421875 11.28125 
Q 10.40625 8.6875 15.234375 7.390625 
Q 20.0625 6.109375 24.8125 6.109375 
Q 31.15625 6.109375 34.5625 8.28125 
Q 37.984375 10.453125 37.984375 14.40625 
Q 37.984375 18.0625 35.515625 20.015625 
Q 33.0625 21.96875 24.703125 23.78125 
L 21.578125 24.515625 
Q 13.234375 26.265625 9.515625 29.90625 
Q 5.8125 33.546875 5.8125 39.890625 
Q 5.8125 47.609375 11.28125 51.796875 
Q 16.75 56 26.8125 56 
Q 31.78125 56 36.171875 55.265625 
Q 40.578125 54.546875 44.28125 53.078125 
" id="DejaVuSans-73"/>
      <path d="M 30.421875 75.984375 
L 30.421875 -13.1875 
L 9.71875 -13.1875 
L 9.71875 -6.203125 
L 21.390625 -6.203125 
L 21.390625 69 
L 9.71875 69 
L 9.71875 75.984375 
z
" id="DejaVuSans-5d"/>
     </defs>
     <g transform="translate(151.644469 191.764094)scale(0.09 -0.09)">
      <use xlink:href="#DejaVuSans-54"/>
      <use x="61.037109" xlink:href="#DejaVuSans-69"/>
      <use x="88.820312" xlink:href="#DejaVuSans-6d"/>
      <use x="186.232422" xlink:href="#DejaVuSans-65"/>
      <use x="247.755859" xlink:href="#DejaVuSans-20"/>
      <use x="279.542969" xlink:href="#DejaVuSans-5b"/>
      <use x="318.556641" xlink:href="#DejaVuSans-73"/>
      <use x="370.65625" xlink:href="#DejaVuSans-5d"/>
     </g>
    </g>
   </g>
   <g id="matplotlib.axis_2">
    <g id="ytick_1"/>
    <g id="ytick_2"/>
    <g id="ytick_3"/>
    <g id="ytick_4"/>
    <g id="ytick_5"/>
    <g id="text_7">
     <!-- Amplitude -->
     <defs>
      <path d="M 34.1875 63.1875 
L 20.796875 26.90625 
L 47.609375 26.90625 
z
M 28.609375 72.90625 
L 39.796875 72.90625 
L 67.578125 0 
L 57.328125 0 
L 50.6875 18.703125 
L 17.828125 18.703125 
L 11.1875 0 
L 0.78125 0 
z
" id="DejaVuSans-41"/>
      <path d="M 18.109375 8.203125 
L 18.109375 -20.796875 
L 9.078125 -20.796875 
L 9.078125 54.6875 
L 18.109375 54.6875 
L 18.109375 46.390625 
Q 20.953125 51.265625 25.265625 53.625 
Q 29.59375 56 35.59375 56 
Q 45.5625 56 51.78125 48.09375 
Q 58.015625 40.1875 58.015625 27.296875 
Q 58.015625 14.40625 51.78125 6.484375 
Q 45.5625 -1.421875 35.59375 -1.421875 
Q 29.59375 -1.421875 25.265625 0.953125 
Q 20.953125 3.328125 18.109375 8.203125 
M 48.6875 27.296875 
Q 48.6875 37.203125 44.609375 42.84375 
Q 40.53125 48.484375 33.40625 48.484375 
Q 26.265625 48.484375 22.1875 42.84375 
Q 18.109375 37.203125 18.109375 27.296875 
Q 18.109375 17.390625 22.1875 11.75 
Q 26.265625 6.109375 33.40625 6.109375 
Q 40.53125 6.109375 44.609375 11.75 
Q 48.6875 17.390625 48.6875 27.296875 
" id="DejaVuSans-70"/>
      <path d="M 9.421875 75.984375 
L 18.40625 75.984375 
L 18.40625 0 
L 9.421875 0 
z
" id="DejaVuSans-6c"/>
      <path d="M 18.3125 70.21875 
L 18.3125 54.6875 
L 36.8125 54.6875 
L 36.8125 47.703125 
L 18.3125 47.703125 
L 18.3125 18.015625 
Q 18.3125 11.328125 20.140625 9.421875 
Q 21.96875 7.515625 27.59375 7.515625 
L 36.8125 7.515625 
L 36.8125 0 
L 27.59375 0 
Q 17.1875 0 13.234375 3.875 
Q 9.28125 7.765625 9.28125 18.015625 
L 9.28125 47.703125 
L 2.6875 47.703125 
L 2.6875 54.6875 
L 9.28125 54.6875 
L 9.28125 70.21875 
z
" id="DejaVuSans-74"/>
      <path d="M 8.5 21.578125 
L 8.5 54.6875 
L 17.484375 54.6875 
L 17.484375 21.921875 
Q 17.484375 14.15625 20.5 10.265625 
Q 23.53125 6.390625 29.59375 6.390625 
Q 36.859375 6.390625 41.078125 11.03125 
Q 45.3125 15.671875 45.3125 23.6875 
L 45.3125 54.6875 
L 54.296875 54.6875 
L 54.296875 0 
L 45.3125 0 
L 45.3125 8.40625 
Q 42.046875 3.421875 37.71875 1 
Q 33.40625 -1.421875 27.6875 -1.421875 
Q 18.265625 -1.421875 13.375 4.4375 
Q 8.5 10.296875 8.5 21.578125 
M 31.109375 56 
z
" id="DejaVuSans-75"/>
      <path d="M 45.40625 46.390625 
L 45.40625 75.984375 
L 54.390625 75.984375 
L 54.390625 0 
L 45.40625 0 
L 45.40625 8.203125 
Q 42.578125 3.328125 38.25 0.953125 
Q 33.9375 -1.421875 27.875 -1.421875 
Q 17.96875 -1.421875 11.734375 6.484375 
Q 5.515625 14.40625 5.515625 27.296875 
Q 5.515625 40.1875 11.734375 48.09375 
Q 17.96875 56 27.875 56 
Q 33.9375 56 38.25 53.625 
Q 42.578125 51.265625 45.40625 46.390625 
M 14.796875 27.296875 
Q 14.796875 17.390625 18.875 11.75 
Q 22.953125 6.109375 30.078125 6.109375 
Q 37.203125 6.109375 41.296875 11.75 
Q 45.40625 17.390625 45.40625 27.296875 
Q 45.40625 37.203125 41.296875 42.84375 
Q 37.203125 48.484375 30.078125 48.484375 
Q 22.953125 48.484375 18.875 42.84375 
Q 14.796875 37.203125 14.796875 27.296875 
" id="DejaVuSans-64"/>
     </defs>
     <g transform="translate(16.128281 122.273141)rotate(-90)scale(0.09 -0.09)">
      <use xlink:href="#DejaVuSans-41"/>
      <use x="68.408203" xlink:href="#DejaVuSans-6d"/>
      <use x="165.820312" xlink:href="#DejaVuSans-70"/>
      <use x="229.296875" xlink:href="#DejaVuSans-6c"/>
      <use x="257.080078" xlink:href="#DejaVuSans-69"/>
      <use x="284.863281" xlink:href="#DejaVuSans-74"/>
      <use x="324.072266" xlink:href="#DejaVuSans-75"/>
      <use x="387.451172" xlink:href="#DejaVuSans-64"/>
      <use x="450.927734" xlink:href="#DejaVuSans-65"/>
     </g>
    </g>
   </g>
   <g id="line2d_6">
    <path clip-path="url(#p27d3939e36)" d="M 27 148.497068 
L 313.158 148.497068 
" style="fill:none;stroke:#000000;stroke-linecap:square;stroke-width:0.5;"/>
   </g>
   <g id="line2d_7">
    <path clip-path="url(#p27d3939e36)" d="M 170.079 153.4255 
L 170.079 45 
" style="fill:none;stroke:#000000;stroke-dasharray:5.6,2.4;stroke-dashoffset:0;stroke-width:0.5;"/>
   </g>
   <g id="line2d_8">
    <path clip-path="url(#p27d3939e36)" d="M 40.007182 148.497068 
L 44.824657 148.497068 
L 49.642131 99.21275 
L 54.459606 49.928432 
L 59.277081 49.928432 
L 64.094556 49.928432 
L 68.91203 49.928432 
L 73.729505 49.928432 
L 78.54698 49.928432 
L 83.364455 49.928432 
L 88.181929 49.928432 
L 92.999404 49.928432 
L 97.816879 49.928432 
L 102.634354 49.928432 
L 107.451828 49.928432 
L 112.269303 49.928432 
L 117.086778 49.928432 
L 121.904253 49.928432 
L 126.721727 49.928432 
L 131.539202 49.928432 
L 136.356677 49.928432 
L 141.174152 49.928432 
L 145.991626 49.928432 
L 150.809101 49.928432 
L 155.626576 49.928432 
L 160.444051 49.928432 
L 165.261525 49.928432 
L 170.079 49.928432 
L 174.896475 49.928432 
L 179.713949 49.928432 
L 184.531424 49.928432 
L 189.348899 49.928432 
L 194.166374 49.928432 
L 198.983848 49.928432 
L 203.801323 49.928432 
L 208.618798 49.928432 
L 213.436273 49.928432 
L 218.253747 49.928432 
L 223.071222 49.928432 
L 227.888697 49.928432 
L 232.706172 49.928432 
L 237.523646 49.928432 
L 242.341121 49.928432 
L 247.158596 49.928432 
L 251.976071 49.928432 
L 256.793545 49.928432 
L 261.61102 49.928432 
L 266.428495 49.928432 
L 271.24597 49.928432 
L 276.063444 49.928432 
L 280.880919 49.928432 
L 285.698394 49.928432 
L 290.515869 99.21275 
L 295.333343 148.497068 
L 300.150818 148.497068 
" style="fill:none;stroke:#3465a4;stroke-linecap:square;stroke-width:1.5;"/>
    <defs>
     <path d="M 0 1 
C 0.265203 1 0.51958 0.894634 0.707107 0.707107 
C 0.894634 0.51958 1 0.265203 1 0 
C 1 -0.265203 0.894634 -0.51958 0.707107 -0.707107 
C 0.51958 -0.894634 0.265203 -1 0 -1 
C -0.265203 -1 -0.51958 -0.894634 -0.707107 -0.707107 
C -0.894634 -0.51958 -1 -0.265203 -1 0 
C -1 0.265203 -0.894634 0.51958 -0.707107 0.707107 
C -0.51958 0.894634 -0.265203 1 0 1 
z
" id="mdd01f1c4f6" style="stroke:#3465a4;"/>
    </defs>
    <g clip-path="url(#p27d3939e36)">
     <use style="fill:#3465a4;stroke:#3465a4;" x="40.007182" xlink:href="#mdd01f1c4f6" y="148.497068"/>
     <use style="fill:#3465a4;stroke:#3465a4;" x="44.824657" xlink:href="#mdd01f1c4f6" y="148.497068"/>
     <use style="fill:#3465a4;stroke:#3465a4;" x="49.642131" xlink:href="#mdd01f1c4f6" y="99.21275"/>
     <use style="fill:#3465a4;stroke:#3465a4;" x="54.459606" xlink:href="#mdd01f1c4f6" y="49.928432"/>
     <use style="fill:#3465a4;stroke:#3465a4;" x="59.277081" xlink:href="#mdd01f1c4f6" y="49.928432"/>
     <use style="fill:#3465a4;stroke:#3465a4;" x="64.094556" xlink:href="#mdd01f1c4f6" y="49.928432"/>
     <use style="fill:#3465a4;stroke:#3465a4;" x="68.91203" xlink:href="#mdd01f1c4f6" y="49.928432"/>
     <use style="fill:#3465a4;stroke:#3465a4;" x="73.729505" xlink:href="#mdd01f1c4f6" y="49.928432"/>
     <use style="fill:#3465a4;stroke:#3465a4;" x="78.54698" xlink:href="#mdd01f1c4f6" y="49.928432"/>
     <use style="fill:#3465a4;stroke:#3465a4;" x="83.364455" xlink:href="#mdd01f1c4f6" y="49.928432"/>
     <use style="fill:#3465a4;stroke:#3465a4;" x="88.181929" xlink:href="#mdd01f1c4f6" y="49.928432"/>
     <use style="fill:#3465a4;stroke:#3465a4;" x="92.999404" xlink:href="#mdd01f1c4f6" y="49.928432"/>
     <use style="fill:#3465a4;stroke:#3465a4;" x="97.816879" xlink:href="#mdd01f1c4f6" y="49.928432"/>
     <use style="fill:#3465a4;stroke:#3465a4;" x="102.634354" xlink:href="#mdd01f1c4f6" y="49.928432"/>
     <use style="fill:#3465a4;stroke:#3465a4;" x="107.451828" xlink:href="#mdd01f1c4f6" y="49.928432"/>
     <use style="fill:#3465a4;stroke:#3465a4;" x="112.269303" xlink:href="#mdd01f1c4f6" y="49.928432"/>
     <use style="fill:#3465a4;stroke:#3465a4;" x="117.086778" xlink:href="#mdd01f1c4f6" y="49.928432"/>
     <use style="fill:#3465a4;stroke:#3465a4;" x="121.904253" xlink:href="#mdd01f1c4f6" y="49.928432"/>
     <use style="fill:#3465a4;stroke:#3465a4;" x="126.721727" xlink:href="#mdd01f1c4f6" y="49.928432"/>
     <use style="fill:#3465a4;stroke:#3465a4;" x="131.539202" xlink:href="#mdd01f1c4f6" y="49.928432"/>
     <use style="fill:#3465a4;stroke:#3465a4;" x="136.356677" xlink:href="#mdd01f1c4f6" y="49.928432"/>
     <use style="fill:#3465a4;stroke:#3465a4;" x="141.174152" xlink:href="#mdd01f1c4f6" y="49.928432"/>
     <use style="fill:#3465a4;stroke:#3465a4;" x="145.991626" xlink:href="#mdd01f1c4f6" y="49.928432"/>
     <use style="fill:#3465a4;stroke:#3465a4;" x="150.809101" xlink:href="#mdd01f1c4f6" y="49.928432"/>
     <use style="fill:#3465a4;stroke:#3465a4;" x="155.626576" xlink:href="#mdd01f1c4f6" y="49.928432"/>
     <use style="fill:#3465a4;stroke:#3465a4;" x="160.444051" xlink:href="#mdd01f1c4f6" y="49.928432"/>
     <use style="fill:#3465a4;stroke:#3465a4;" x="165.261525" xlink:href="#mdd01f1c4f6" y="49.928432"/>
     <use style="fill:#3465a4;stroke:#3465a4;" x="170.079" xlink:href="#mdd01f1c4f6" y="49.928432"/>
     <use style="fill:#3465a4;stroke:#3465a4;" x="174.896475" xlink:href="#mdd01f1c4f6" y="49.928432"/>
     <use style="fill:#3465a4;stroke:#3465a4;" x="179.713949" xlink:href="#mdd01f1c4f6" y="49.928432"/>
     <use style="fill:#3465a4;stroke:#3465a4;" x="184.531424" xlink:href="#mdd01f1c4f6" y="49.928432"/>
     <use style="fill:#3465a4;stroke:#3465a4;" x="189.348899" xlink:href="#mdd01f1c4f6" y="49.928432"/>
     <use style="fill:#3465a4;stroke:#3465a4;" x="194.166374" xlink:href="#mdd01f1c4f6" y="49.928432"/>
     <use style="fill:#3465a4;stroke:#3465a4;" x="198.983848" xlink:href="#mdd01f1c4f6" y="49.928432"/>
     <use style="fill:#3465a4;stroke:#3465a4;" x="203.801323" xlink:href="#mdd01f1c4f6" y="49.928432"/>
     <use style="fill:#3465a4;stroke:#3465a4;" x="208.618798" xlink:href="#mdd01f1c4f6" y="49.928432"/>
     <use style="fill:#3465a4;stroke:#3465a4;" x="213.436273" xlink:href="#mdd01f1c4f6" y="49.928432"/>
     <use style="fill:#3465a4;stroke:#3465a4;" x="218.253747" xlink:href="#mdd01f1c4f6" y="49.928432"/>
     <use style="fill:#3465a4;stroke:#3465a4;" x="223.071222" xlink:href="#mdd01f1c4f6" y="49.928432"/>
     <use style="fill:#3465a4;stroke:#3465a4;" x="227.888697" xlink:href="#mdd01f1c4f6" y="49.928432"/>
     <use style="fill:#3465a4;stroke:#3465a4;" x="232.706172" xlink:href="#mdd01f1c4f6" y="49.928432"/>
     <use style="fill:#3465a4;stroke:#3465a4;" x="237.523646" xlink:href="#mdd01f1c4f6" y="49.928432"/>
     <use style="fill:#3465a4;stroke:#3465a4;" x="242.341121" xlink:href="#mdd01f1c4f6" y="49.928432"/>
     <use style="fill:#3465a4;stroke:#3465a4;" x="247.158596" xlink:href="#mdd01f1c4f6" y="49.928432"/>
     <use style="fill:#3465a4;stroke:#3465a4;" x="251.976071" xlink:href="#mdd01f1c4f6" y="49.928432"/>
     <use style="fill:#3465a4;stroke:#3465a4;" x="256.793545" xlink:href="#mdd01f1c4f6" y="49.928432"/>
     <use style="fill:#3465a4;stroke:#3465a4;" x="261.61102" xlink:href="#mdd01f1c4f6" y="49.928432"/>
     <use style="fill:#3465a4;stroke:#3465a4;" x="266.428495" xlink:href="#mdd01f1c4f6" y="49.928432"/>
     <use style="fill:#3465a4;stroke:#3465a4;" x="271.24597" xlink:href="#mdd01f1c4f6" y="49.928432"/>
     <use style="fill:#3465a4;stroke:#3465a4;" x="276.063444" xlink:href="#mdd01f1c4f6" y="49.928432"/>
     <use style="fill:#3465a4;stroke:#3465a4;" x="280.880919" xlink:href="#mdd01f1c4f6" y="49.928432"/>
     <use style="fill:#3465a4;stroke:#3465a4;" x="285.698394" xlink:href="#mdd01f1c4f6" y="49.928432"/>
     <use style="fill:#3465a4;stroke:#3465a4;" x="290.515869" xlink:href="#mdd01f1c4f6" y="99.21275"/>
     <use style="fill:#3465a4;stroke:#3465a4;" x="295.333343" xlink:href="#mdd01f1c4f6" y="148.497068"/>
     <use style="fill:#3465a4;stroke:#3465a4;" x="300.150818" xlink:href="#mdd01f1c4f6" y="148.497068"/>
    </g>
   </g>
   <g id="patch_3">
    <path d="M 27 153.4255 
L 27 45 
" style="fill:none;stroke:#000000;stroke-linecap:square;stroke-linejoin:miter;stroke-width:1.5;"/>
   </g>
   <g id="patch_4">
    <path d="M 313.158 153.4255 
L 313.158 45 
" style="fill:none;stroke:#000000;stroke-linecap:square;stroke-linejoin:miter;stroke-width:1.5;"/>
   </g>
   <g id="patch_5">
    <path d="M 27 153.4255 
L 313.158 153.4255 
" style="fill:none;stroke:#000000;stroke-linecap:square;stroke-linejoin:miter;stroke-width:1.5;"/>
   </g>
   <g id="patch_6">
    <path d="M 27 45 
L 313.158 45 
" style="fill:none;stroke:#000000;stroke-linecap:square;stroke-linejoin:miter;stroke-width:1.5;"/>
   </g>
   <g id="text_8">
    <!-- BoxcarSTF -->
    <defs>
     <path d="M 19.671875 34.8125 
L 19.671875 8.109375 
L 35.5 8.109375 
Q 43.453125 8.109375 47.28125 11.40625 
Q 51.125 14.703125 51.125 21.484375 
Q 51.125 28.328125 47.28125 31.5625 
Q 43.453125 34.8125 35.5 34.8125 
z
M 19.671875 64.796875 
L 19.671875 42.828125 
L 34.28125 42.828125 
Q 41.5 42.828125 45.03125 45.53125 
Q 48.578125 48.25 48.578125 53.8125 
Q 48.578125 59.328125 45.03125 62.0625 
Q 41.5 64.796875 34.28125 64.796875 
z
M 9.8125 72.90625 
L 35.015625 72.90625 
Q 46.296875 72.90625 52.390625 68.21875 
Q 58.5 63.53125 58.5 54.890625 
Q 58.5 48.1875 55.375 44.234375 
Q 52.25 40.28125 46.1875 39.3125 
Q 53.46875 37.75 57.5 32.78125 
Q 61.53125 27.828125 61.53125 20.40625 
Q 61.53125 10.640625 54.890625 5.3125 
Q 48.25 0 35.984375 0 
L 9.8125 0 
z
" id="DejaVuSans-42"/>
     <path d="M 30.609375 48.390625 
Q 23.390625 48.390625 19.1875 42.75 
Q 14.984375 37.109375 14.984375 27.296875 
Q 14.984375 17.484375 19.15625 11.84375 
Q 23.34375 6.203125 30.609375 6.203125 
Q 37.796875 6.203125 41.984375 11.859375 
Q 46.1875 17.53125 46.1875 27.296875 
Q 46.1875 37.015625 41.984375 42.703125 
Q 37.796875 48.390625 30.609375 48.390625 
M 30.609375 56 
Q 42.328125 56 49.015625 48.375 
Q 55.71875 40.765625 55.71875 27.296875 
Q 55.71875 13.875 49.015625 6.21875 
Q 42.328125 -1.421875 30.609375 -1.421875 
Q 18.84375 -1.421875 12.171875 6.21875 
Q 5.515625 13.875 5.515625 27.296875 
Q 5.515625 40.765625 12.171875 48.375 
Q 18.84375 56 30.609375 56 
" id="DejaVuSans-6f"/>
     <path d="M 54.890625 54.6875 
L 35.109375 28.078125 
L 55.90625 0 
L 45.3125 0 
L 29.390625 21.484375 
L 13.484375 0 
L 2.875 0 
L 24.125 28.609375 
L 4.6875 54.6875 
L 15.28125 54.6875 
L 29.78125 35.203125 
L 44.28125 54.6875 
z
" id="DejaVuSans-78"/>
     <path d="M 48.78125 52.59375 
L 48.78125 44.1875 
Q 44.96875 46.296875 41.140625 47.34375 
Q 37.3125 48.390625 33.40625 48.390625 
Q 24.65625 48.390625 19.8125 42.84375 
Q 14.984375 37.3125 14.984375 27.296875 
Q 14.984375 17.28125 19.8125 11.734375 
Q 24.65625 6.203125 33.40625 6.203125 
Q 37.3125 6.203125 41.140625 7.25 
Q 44.96875 8.296875 48.78125 10.40625 
L 48.78125 2.09375 
Q 45.015625 0.34375 40.984375 -0.53125 
Q 36.96875 -1.421875 32.421875 -1.421875 
Q 20.0625 -1.421875 12.78125 6.34375 
Q 5.515625 14.109375 5.515625 27.296875 
Q 5.515625 40.671875 12.859375 48.328125 
Q 20.21875 56 33.015625 56 
Q 37.15625 56 41.109375 55.140625 
Q 45.0625 54.296875 48.78125 52.59375 
" id="DejaVuSans-63"/>
     <path d="M 34.28125 27.484375 
Q 23.390625 27.484375 19.1875 25 
Q 14.984375 22.515625 14.984375 16.5 
Q 14.984375 11.71875 18.140625 8.90625 
Q 21.296875 6.109375 26.703125 6.109375 
Q 34.1875 6.109375 38.703125 11.40625 
Q 43.21875 16.703125 43.21875 25.484375 
L 43.21875 27.484375 
z
M 52.203125 31.203125 
L 52.203125 0 
L 43.21875 0 
L 43.21875 8.296875 
Q 40.140625 3.328125 35.546875 0.953125 
Q 30.953125 -1.421875 24.3125 -1.421875 
Q 15.921875 -1.421875 10.953125 3.296875 
Q 6 8.015625 6 15.921875 
Q 6 25.140625 12.171875 29.828125 
Q 18.359375 34.515625 30.609375 34.515625 
L 43.21875 34.515625 
L 43.21875 35.40625 
Q 43.21875 41.609375 39.140625 45 
Q 35.0625 48.390625 27.6875 48.390625 
Q 23 48.390625 18.546875 47.265625 
Q 14.109375 46.140625 10.015625 43.890625 
L 10.015625 52.203125 
Q 14.9375 54.109375 19.578125 55.046875 
Q 24.21875 56 28.609375 56 
Q 40.484375 56 46.34375 49.84375 
Q 52.203125 43.703125 52.203125 31.203125 
" id="DejaVuSans-61"/>
     <path d="M 41.109375 46.296875 
Q 39.59375 47.171875 37.8125 47.578125 
Q 36.03125 48 33.890625 48 
Q 26.265625 48 22.1875 43.046875 
Q 18.109375 38.09375 18.109375 28.8125 
L 18.109375 0 
L 9.078125 0 
L 9.078125 54.6875 
L 18.109375 54.6875 
L 18.109375 46.1875 
Q 20.953125 51.171875 25.484375 53.578125 
Q 30.03125 56 36.53125 56 
Q 37.453125 56 38.578125 55.875 
Q 39.703125 55.765625 41.0625 55.515625 
z
" id="DejaVuSans-72"/>
     <path d="M 53.515625 70.515625 
L 53.515625 60.890625 
Q 47.90625 63.578125 42.921875 64.890625 
Q 37.9375 66.21875 33.296875 66.21875 
Q 25.25 66.21875 20.875 63.09375 
Q 16.5 59.96875 16.5 54.203125 
Q 16.5 49.359375 19.40625 46.890625 
Q 22.3125 44.4375 30.421875 42.921875 
L 36.375 41.703125 
Q 47.40625 39.59375 52.65625 34.296875 
Q 57.90625 29 57.90625 20.125 
Q 57.90625 9.515625 50.796875 4.046875 
Q 43.703125 -1.421875 29.984375 -1.421875 
Q 24.8125 -1.421875 18.96875 -0.25 
Q 13.140625 0.921875 6.890625 3.21875 
L 6.890625 13.375 
Q 12.890625 10.015625 18.65625 8.296875 
Q 24.421875 6.59375 29.984375 6.59375 
Q 38.421875 6.59375 43.015625 9.90625 
Q 47.609375 13.234375 47.609375 19.390625 
Q 47.609375 24.75 44.3125 27.78125 
Q 41.015625 30.8125 33.5 32.328125 
L 27.484375 33.5 
Q 16.453125 35.6875 11.515625 40.375 
Q 6.59375 45.0625 6.59375 53.421875 
Q 6.59375 63.09375 13.40625 68.65625 
Q 20.21875 74.21875 32.171875 74.21875 
Q 37.3125 74.21875 42.625 73.28125 
Q 47.953125 72.359375 53.515625 70.515625 
" id="DejaVuSans-53"/>
     <path d="M 9.8125 72.90625 
L 51.703125 72.90625 
L 51.703125 64.59375 
L 19.671875 64.59375 
L 19.671875 43.109375 
L 48.578125 43.109375 
L 48.578125 34.8125 
L 19.671875 34.8125 
L 19.671875 0 
L 9.8125 0 
z
" id="DejaVuSans-46"/>
    </defs>
    <g transform="translate(146.302125 36)scale(0.09 -0.09)">
     <use xlink:href="#DejaVuSans-42"/>
     <use x="68.603516" xlink:href="#DejaVuSans-6f"/>
     <use x="129.738281" xlink:href="#DejaVuSans-78"/>
     <use x="188.902344" xlink:href="#DejaVuSans-63"/>
     <use x="243.882812" xlink:href="#DejaVuSans-61"/>
     <use x="305.162109" xlink:href="#DejaVuSans-72"/>
     <use x="346.275391" xlink:href="#DejaVuSans-53"/>
     <use x="409.751953" xlink:href="#DejaVuSans-54"/>
     <use x="470.835938" xlink:href="#DejaVuSans-46"/>
    </g>
   </g>
  </g>
 </g>
 <defs>
  <clipPath id="p27d3939e36">
   <rect height="108.4255" width="286.158" x="27" y="45"/>
  </clipPath>
 </defs>
</svg>
