<?xml version="1.0" encoding="utf-8" standalone="no"?>
<!DOCTYPE svg PUBLIC "-//W3C//DTD SVG 1.1//EN"
  "http://www.w3.org/Graphics/SVG/1.1/DTD/svg11.dtd">
<!-- Created with matplotlib (http://matplotlib.org/) -->
<svg height="198pt" version="1.1" viewBox="0 0 340 198" width="340pt" xmlns="http://www.w3.org/2000/svg" xmlns:xlink="http://www.w3.org/1999/xlink">
 <defs>
  <style type="text/css">
*{stroke-linecap:butt;stroke-linejoin:round;}
  </style>
 </defs>
 <g id="figure_1">
  <g id="patch_1">
   <path d="M 0 198.4255 
L 340.158 198.4255 
L 340.158 0 
L 0 0 
z
" style="fill:#ffffff;"/>
  </g>
  <g id="axes_1">
   <g id="patch_2">
    <path d="M 27 153.4255 
L 313.158 153.4255 
L 313.158 45 
L 27 45 
z
" style="fill:#ffffff;"/>
   </g>
   <g id="matplotlib.axis_1">
    <g id="xtick_1">
     <g id="line2d_1">
      <defs>
       <path d="M 0 0 
L 0 6.3639 
" id="mf5a1c96931" style="stroke:#000000;stroke-width:0.5;"/>
      </defs>
      <g>
       <use style="stroke:#000000;stroke-width:0.5;" x="41.707467" xlink:href="#mf5a1c96931" y="153.4255"/>
      </g>
     </g>
     <g id="text_1">
      <!-- 0 -->
      <defs>
       <path d="M 31.78125 66.40625 
Q 24.171875 66.40625 20.328125 58.90625 
Q 16.5 51.421875 16.5 36.375 
Q 16.5 21.390625 20.328125 13.890625 
Q 24.171875 6.390625 31.78125 6.390625 
Q 39.453125 6.390625 43.28125 13.890625 
Q 47.125 21.390625 47.125 36.375 
Q 47.125 51.421875 43.28125 58.90625 
Q 39.453125 66.40625 31.78125 66.40625 
M 31.78125 74.21875 
Q 44.046875 74.21875 50.515625 64.515625 
Q 56.984375 54.828125 56.984375 36.375 
Q 56.984375 17.96875 50.515625 8.265625 
Q 44.046875 -1.421875 31.78125 -1.421875 
Q 19.53125 -1.421875 13.0625 8.265625 
Q 6.59375 17.96875 6.59375 36.375 
Q 6.59375 54.828125 13.0625 64.515625 
Q 19.53125 74.21875 31.78125 74.21875 
" id="DejaVuSans-30"/>
      </defs>
      <g transform="translate(38.844342 172.991894)scale(0.09 -0.09)">
       <use xlink:href="#DejaVuSans-30"/>
      </g>
     </g>
    </g>
    <g id="xtick_2">
     <g id="line2d_2">
      <g>
       <use style="stroke:#000000;stroke-width:0.5;" x="75.713171" xlink:href="#mf5a1c96931" y="153.4255"/>
      </g>
     </g>
     <g id="text_2">
      <!-- 2 -->
      <defs>
       <path d="M 19.1875 8.296875 
L 53.609375 8.296875 
L 53.609375 0 
L 7.328125 0 
L 7.328125 8.296875 
Q 12.9375 14.109375 22.625 23.890625 
Q 32.328125 33.6875 34.8125 36.53125 
Q 39.546875 41.84375 41.421875 45.53125 
Q 43.3125 49.21875 43.3125 52.78125 
Q 43.3125 58.59375 39.234375 62.25 
Q 35.15625 65.921875 28.609375 65.921875 
Q 23.96875 65.921875 18.8125 64.3125 
Q 13.671875 62.703125 7.8125 59.421875 
L 7.8125 69.390625 
Q 13.765625 71.78125 18.9375 73 
Q 24.125 74.21875 28.421875 74.21875 
Q 39.75 74.21875 46.484375 68.546875 
Q 53.21875 62.890625 53.21875 53.421875 
Q 53.21875 48.921875 51.53125 44.890625 
Q 49.859375 40.875 45.40625 35.40625 
Q 44.1875 33.984375 37.640625 27.21875 
Q 31.109375 20.453125 19.1875 8.296875 
" id="DejaVuSans-32"/>
      </defs>
      <g transform="translate(72.850046 172.991894)scale(0.09 -0.09)">
       <use xlink:href="#DejaVuSans-32"/>
      </g>
     </g>
    </g>
    <g id="xtick_3">
     <g id="line2d_3">
      <g>
       <use style="stroke:#000000;stroke-width:0.5;" x="109.718875" xlink:href="#mf5a1c96931" y="153.4255"/>
      </g>
     </g>
     <g id="text_3">
      <!-- 4 -->
      <defs>
       <path d="M 37.796875 64.3125 
L 12.890625 25.390625 
L 37.796875 25.390625 
z
M 35.203125 72.90625 
L 47.609375 72.90625 
L 47.609375 25.390625 
L 58.015625 25.390625 
L 58.015625 17.1875 
L 47.609375 17.1875 
L 47.609375 0 
L 37.796875 0 
L 37.796875 17.1875 
L 4.890625 17.1875 
L 4.890625 26.703125 
z
" id="DejaVuSans-34"/>
      </defs>
      <g transform="translate(106.85575 172.991894)scale(0.09 -0.09)">
       <use xlink:href="#DejaVuSans-34"/>
      </g>
     </g>
    </g>
    <g id="xtick_4">
     <g id="line2d_4">
      <g>
       <use style="stroke:#000000;stroke-width:0.5;" x="143.724579" xlink:href="#mf5a1c96931" y="153.4255"/>
      </g>
     </g>
     <g id="text_4">
      <!-- 6 -->
      <defs>
       <path d="M 33.015625 40.375 
Q 26.375 40.375 22.484375 35.828125 
Q 18.609375 31.296875 18.609375 23.390625 
Q 18.609375 15.53125 22.484375 10.953125 
Q 26.375 6.390625 33.015625 6.390625 
Q 39.65625 6.390625 43.53125 10.953125 
Q 47.40625 15.53125 47.40625 23.390625 
Q 47.40625 31.296875 43.53125 35.828125 
Q 39.65625 40.375 33.015625 40.375 
M 52.59375 71.296875 
L 52.59375 62.3125 
Q 48.875 64.0625 45.09375 64.984375 
Q 41.3125 65.921875 37.59375 65.921875 
Q 27.828125 65.921875 22.671875 59.328125 
Q 17.53125 52.734375 16.796875 39.40625 
Q 19.671875 43.65625 24.015625 45.921875 
Q 28.375 48.1875 33.59375 48.1875 
Q 44.578125 48.1875 50.953125 41.515625 
Q 57.328125 34.859375 57.328125 23.390625 
Q 57.328125 12.15625 50.6875 5.359375 
Q 44.046875 -1.421875 33.015625 -1.421875 
Q 20.359375 -1.421875 13.671875 8.265625 
Q 6.984375 17.96875 6.984375 36.375 
Q 6.984375 53.65625 15.1875 63.9375 
Q 23.390625 74.21875 37.203125 74.21875 
Q 40.921875 74.21875 44.703125 73.484375 
Q 48.484375 72.75 52.59375 71.296875 
" id="DejaVuSans-36"/>
      </defs>
      <g transform="translate(140.861454 172.991894)scale(0.09 -0.09)">
       <use xlink:href="#DejaVuSans-36"/>
      </g>
     </g>
    </g>
    <g id="xtick_5">
     <g id="line2d_5">
      <g>
       <use style="stroke:#000000;stroke-width:0.5;" x="177.730283" xlink:href="#mf5a1c96931" y="153.4255"/>
      </g>
     </g>
     <g id="text_5">
      <!-- 8 -->
      <defs>
       <path d="M 31.78125 34.625 
Q 24.75 34.625 20.71875 30.859375 
Q 16.703125 27.09375 16.703125 20.515625 
Q 16.703125 13.921875 20.71875 10.15625 
Q 24.75 6.390625 31.78125 6.390625 
Q 38.8125 6.390625 42.859375 10.171875 
Q 46.921875 13.96875 46.921875 20.515625 
Q 46.921875 27.09375 42.890625 30.859375 
Q 38.875 34.625 31.78125 34.625 
M 21.921875 38.8125 
Q 15.578125 40.375 12.03125 44.71875 
Q 8.5 49.078125 8.5 55.328125 
Q 8.5 64.0625 14.71875 69.140625 
Q 20.953125 74.21875 31.78125 74.21875 
Q 42.671875 74.21875 48.875 69.140625 
Q 55.078125 64.0625 55.078125 55.328125 
Q 55.078125 49.078125 51.53125 44.71875 
Q 48 40.375 41.703125 38.8125 
Q 48.828125 37.15625 52.796875 32.3125 
Q 56.78125 27.484375 56.78125 20.515625 
Q 56.78125 9.90625 50.3125 4.234375 
Q 43.84375 -1.421875 31.78125 -1.421875 
Q 19.734375 -1.421875 13.25 4.234375 
Q 6.78125 9.90625 6.78125 20.515625 
Q 6.78125 27.484375 10.78125 32.3125 
Q 14.796875 37.15625 21.921875 38.8125 
M 18.3125 54.390625 
Q 18.3125 48.734375 21.84375 45.5625 
Q 25.390625 42.390625 31.78125 42.390625 
Q 38.140625 42.390625 41.71875 45.5625 
Q 45.3125 48.734375 45.3125 54.390625 
Q 45.3125 60.0625 41.71875 63.234375 
Q 38.140625 66.40625 31.78125 66.40625 
Q 25.390625 66.40625 21.84375 63.234375 
Q 18.3125 60.0625 18.3125 54.390625 
" id="DejaVuSans-38"/>
      </defs>
      <g transform="translate(174.867158 172.991894)scale(0.09 -0.09)">
       <use xlink:href="#DejaVuSans-38"/>
      </g>
     </g>
    </g>
    <g id="xtick_6">
     <g id="line2d_6">
      <g>
       <use style="stroke:#000000;stroke-width:0.5;" x="211.735988" xlink:href="#mf5a1c96931" y="153.4255"/>
      </g>
     </g>
     <g id="text_6">
      <!-- 10 -->
      <defs>
       <path d="M 12.40625 8.296875 
L 28.515625 8.296875 
L 28.515625 63.921875 
L 10.984375 60.40625 
L 10.984375 69.390625 
L 28.421875 72.90625 
L 38.28125 72.90625 
L 38.28125 8.296875 
L 54.390625 8.296875 
L 54.390625 0 
L 12.40625 0 
z
" id="DejaVuSans-31"/>
      </defs>
      <g transform="translate(206.009738 172.991894)scale(0.09 -0.09)">
       <use xlink:href="#DejaVuSans-31"/>
       <use x="63.623047" xlink:href="#DejaVuSans-30"/>
      </g>
     </g>
    </g>
    <g id="xtick_7">
     <g id="line2d_7">
      <g>
       <use style="stroke:#000000;stroke-width:0.5;" x="245.741692" xlink:href="#mf5a1c96931" y="153.4255"/>
      </g>
     </g>
     <g id="text_7">
      <!-- 12 -->
      <g transform="translate(240.015442 172.991894)scale(0.09 -0.09)">
       <use xlink:href="#DejaVuSans-31"/>
       <use x="63.623047" xlink:href="#DejaVuSans-32"/>
      </g>
     </g>
    </g>
    <g id="xtick_8">
     <g id="line2d_8">
      <g>
       <use style="stroke:#000000;stroke-width:0.5;" x="279.747396" xlink:href="#mf5a1c96931" y="153.4255"/>
      </g>
     </g>
     <g id="text_8">
      <!-- 14 -->
      <g transform="translate(274.021146 172.991894)scale(0.09 -0.09)">
       <use xlink:href="#DejaVuSans-31"/>
       <use x="63.623047" xlink:href="#DejaVuSans-34"/>
      </g>
     </g>
    </g>
    <g id="text_9">
     <!-- Time [s] -->
     <defs>
      <path d="M -0.296875 72.90625 
L 61.375 72.90625 
L 61.375 64.59375 
L 35.5 64.59375 
L 35.5 0 
L 25.59375 0 
L 25.59375 64.59375 
L -0.296875 64.59375 
z
" id="DejaVuSans-54"/>
      <path d="M 9.421875 54.6875 
L 18.40625 54.6875 
L 18.40625 0 
L 9.421875 0 
z
M 9.421875 75.984375 
L 18.40625 75.984375 
L 18.40625 64.59375 
L 9.421875 64.59375 
z
" id="DejaVuSans-69"/>
      <path d="M 52 44.1875 
Q 55.375 50.25 60.0625 53.125 
Q 64.75 56 71.09375 56 
Q 79.640625 56 84.28125 50.015625 
Q 88.921875 44.046875 88.921875 33.015625 
L 88.921875 0 
L 79.890625 0 
L 79.890625 32.71875 
Q 79.890625 40.578125 77.09375 44.375 
Q 74.3125 48.1875 68.609375 48.1875 
Q 61.625 48.1875 57.5625 43.546875 
Q 53.515625 38.921875 53.515625 30.90625 
L 53.515625 0 
L 44.484375 0 
L 44.484375 32.71875 
Q 44.484375 40.625 41.703125 44.40625 
Q 38.921875 48.1875 33.109375 48.1875 
Q 26.21875 48.1875 22.15625 43.53125 
Q 18.109375 38.875 18.109375 30.90625 
L 18.109375 0 
L 9.078125 0 
L 9.078125 54.6875 
L 18.109375 54.6875 
L 18.109375 46.1875 
Q 21.1875 51.21875 25.484375 53.609375 
Q 29.78125 56 35.6875 56 
Q 41.65625 56 45.828125 52.96875 
Q 50 49.953125 52 44.1875 
" id="DejaVuSans-6d"/>
      <path d="M 56.203125 29.59375 
L 56.203125 25.203125 
L 14.890625 25.203125 
Q 15.484375 15.921875 20.484375 11.0625 
Q 25.484375 6.203125 34.421875 6.203125 
Q 39.59375 6.203125 44.453125 7.46875 
Q 49.3125 8.734375 54.109375 11.28125 
L 54.109375 2.78125 
Q 49.265625 0.734375 44.1875 -0.34375 
Q 39.109375 -1.421875 33.890625 -1.421875 
Q 20.796875 -1.421875 13.15625 6.1875 
Q 5.515625 13.8125 5.515625 26.8125 
Q 5.515625 40.234375 12.765625 48.109375 
Q 20.015625 56 32.328125 56 
Q 43.359375 56 49.78125 48.890625 
Q 56.203125 41.796875 56.203125 29.59375 
M 47.21875 32.234375 
Q 47.125 39.59375 43.09375 43.984375 
Q 39.0625 48.390625 32.421875 48.390625 
Q 24.90625 48.390625 20.390625 44.140625 
Q 15.875 39.890625 15.1875 32.171875 
z
" id="DejaVuSans-65"/>
      <path id="DejaVuSans-20"/>
      <path d="M 8.59375 75.984375 
L 29.296875 75.984375 
L 29.296875 69 
L 17.578125 69 
L 17.578125 -6.203125 
L 29.296875 -6.203125 
L 29.296875 -13.1875 
L 8.59375 -13.1875 
z
" id="DejaVuSans-5b"/>
      <path d="M 44.28125 53.078125 
L 44.28125 44.578125 
Q 40.484375 46.53125 36.375 47.5 
Q 32.28125 48.484375 27.875 48.484375 
Q 21.1875 48.484375 17.84375 46.4375 
Q 14.5 44.390625 14.5 40.28125 
Q 14.5 37.15625 16.890625 35.375 
Q 19.28125 33.59375 26.515625 31.984375 
L 29.59375 31.296875 
Q 39.15625 29.25 43.1875 25.515625 
Q 47.21875 21.78125 47.21875 15.09375 
Q 47.21875 7.46875 41.1875 3.015625 
Q 35.15625 -1.421875 24.609375 -1.421875 
Q 20.21875 -1.421875 15.453125 -0.5625 
Q 10.6875 0.296875 5.421875 2 
L 5.421875 11.28125 
Q 10.40625 8.6875 15.234375 7.390625 
Q 20.0625 6.109375 24.8125 6.109375 
Q 31.15625 6.109375 34.5625 8.28125 
Q 37.984375 10.453125 37.984375 14.40625 
Q 37.984375 18.0625 35.515625 20.015625 
Q 33.0625 21.96875 24.703125 23.78125 
L 21.578125 24.515625 
Q 13.234375 26.265625 9.515625 29.90625 
Q 5.8125 33.546875 5.8125 39.890625 
Q 5.8125 47.609375 11.28125 51.796875 
Q 16.75 56 26.8125 56 
Q 31.78125 56 36.171875 55.265625 
Q 40.578125 54.546875 44.28125 53.078125 
" id="DejaVuSans-73"/>
      <path d="M 30.421875 75.984375 
L 30.421875 -13.1875 
L 9.71875 -13.1875 
L 9.71875 -6.203125 
L 21.390625 -6.203125 
L 21.390625 69 
L 9.71875 69 
L 9.71875 75.984375 
z
" id="DejaVuSans-5d"/>
     </defs>
     <g transform="translate(151.644469 191.764094)scale(0.09 -0.09)">
      <use xlink:href="#DejaVuSans-54"/>
      <use x="61.037109" xlink:href="#DejaVuSans-69"/>
      <use x="88.820312" xlink:href="#DejaVuSans-6d"/>
      <use x="186.232422" xlink:href="#DejaVuSans-65"/>
      <use x="247.755859" xlink:href="#DejaVuSans-20"/>
      <use x="279.542969" xlink:href="#DejaVuSans-5b"/>
      <use x="318.556641" xlink:href="#DejaVuSans-73"/>
      <use x="370.65625" xlink:href="#DejaVuSans-5d"/>
     </g>
    </g>
   </g>
   <g id="matplotlib.axis_2">
    <g id="ytick_1"/>
    <g id="ytick_2"/>
    <g id="ytick_3"/>
    <g id="text_10">
     <!-- Amplitude -->
     <defs>
      <path d="M 34.1875 63.1875 
L 20.796875 26.90625 
L 47.609375 26.90625 
z
M 28.609375 72.90625 
L 39.796875 72.90625 
L 67.578125 0 
L 57.328125 0 
L 50.6875 18.703125 
L 17.828125 18.703125 
L 11.1875 0 
L 0.78125 0 
z
" id="DejaVuSans-41"/>
      <path d="M 18.109375 8.203125 
L 18.109375 -20.796875 
L 9.078125 -20.796875 
L 9.078125 54.6875 
L 18.109375 54.6875 
L 18.109375 46.390625 
Q 20.953125 51.265625 25.265625 53.625 
Q 29.59375 56 35.59375 56 
Q 45.5625 56 51.78125 48.09375 
Q 58.015625 40.1875 58.015625 27.296875 
Q 58.015625 14.40625 51.78125 6.484375 
Q 45.5625 -1.421875 35.59375 -1.421875 
Q 29.59375 -1.421875 25.265625 0.953125 
Q 20.953125 3.328125 18.109375 8.203125 
M 48.6875 27.296875 
Q 48.6875 37.203125 44.609375 42.84375 
Q 40.53125 48.484375 33.40625 48.484375 
Q 26.265625 48.484375 22.1875 42.84375 
Q 18.109375 37.203125 18.109375 27.296875 
Q 18.109375 17.390625 22.1875 11.75 
Q 26.265625 6.109375 33.40625 6.109375 
Q 40.53125 6.109375 44.609375 11.75 
Q 48.6875 17.390625 48.6875 27.296875 
" id="DejaVuSans-70"/>
      <path d="M 9.421875 75.984375 
L 18.40625 75.984375 
L 18.40625 0 
L 9.421875 0 
z
" id="DejaVuSans-6c"/>
      <path d="M 18.3125 70.21875 
L 18.3125 54.6875 
L 36.8125 54.6875 
L 36.8125 47.703125 
L 18.3125 47.703125 
L 18.3125 18.015625 
Q 18.3125 11.328125 20.140625 9.421875 
Q 21.96875 7.515625 27.59375 7.515625 
L 36.8125 7.515625 
L 36.8125 0 
L 27.59375 0 
Q 17.1875 0 13.234375 3.875 
Q 9.28125 7.765625 9.28125 18.015625 
L 9.28125 47.703125 
L 2.6875 47.703125 
L 2.6875 54.6875 
L 9.28125 54.6875 
L 9.28125 70.21875 
z
" id="DejaVuSans-74"/>
      <path d="M 8.5 21.578125 
L 8.5 54.6875 
L 17.484375 54.6875 
L 17.484375 21.921875 
Q 17.484375 14.15625 20.5 10.265625 
Q 23.53125 6.390625 29.59375 6.390625 
Q 36.859375 6.390625 41.078125 11.03125 
Q 45.3125 15.671875 45.3125 23.6875 
L 45.3125 54.6875 
L 54.296875 54.6875 
L 54.296875 0 
L 45.3125 0 
L 45.3125 8.40625 
Q 42.046875 3.421875 37.71875 1 
Q 33.40625 -1.421875 27.6875 -1.421875 
Q 18.265625 -1.421875 13.375 4.4375 
Q 8.5 10.296875 8.5 21.578125 
M 31.109375 56 
z
" id="DejaVuSans-75"/>
      <path d="M 45.40625 46.390625 
L 45.40625 75.984375 
L 54.390625 75.984375 
L 54.390625 0 
L 45.40625 0 
L 45.40625 8.203125 
Q 42.578125 3.328125 38.25 0.953125 
Q 33.9375 -1.421875 27.875 -1.421875 
Q 17.96875 -1.421875 11.734375 6.484375 
Q 5.515625 14.40625 5.515625 27.296875 
Q 5.515625 40.1875 11.734375 48.09375 
Q 17.96875 56 27.875 56 
Q 33.9375 56 38.25 53.625 
Q 42.578125 51.265625 45.40625 46.390625 
M 14.796875 27.296875 
Q 14.796875 17.390625 18.875 11.75 
Q 22.953125 6.109375 30.078125 6.109375 
Q 37.203125 6.109375 41.296875 11.75 
Q 45.40625 17.390625 45.40625 27.296875 
Q 45.40625 37.203125 41.296875 42.84375 
Q 37.203125 48.484375 30.078125 48.484375 
Q 22.953125 48.484375 18.875 42.84375 
Q 14.796875 37.203125 14.796875 27.296875 
" id="DejaVuSans-64"/>
     </defs>
     <g transform="translate(16.128281 122.273141)rotate(-90)scale(0.09 -0.09)">
      <use xlink:href="#DejaVuSans-41"/>
      <use x="68.408203" xlink:href="#DejaVuSans-6d"/>
      <use x="165.820312" xlink:href="#DejaVuSans-70"/>
      <use x="229.296875" xlink:href="#DejaVuSans-6c"/>
      <use x="257.080078" xlink:href="#DejaVuSans-69"/>
      <use x="284.863281" xlink:href="#DejaVuSans-74"/>
      <use x="324.072266" xlink:href="#DejaVuSans-75"/>
      <use x="387.451172" xlink:href="#DejaVuSans-64"/>
      <use x="450.927734" xlink:href="#DejaVuSans-65"/>
     </g>
    </g>
   </g>
   <g id="line2d_9">
    <path clip-path="url(#pdc056ecb80)" d="M 27 104.124819 
L 313.158 104.124819 
" style="fill:none;stroke:#000000;stroke-linecap:square;stroke-width:0.5;"/>
   </g>
   <g id="line2d_10">
    <path clip-path="url(#pdc056ecb80)" d="M 41.707467 153.4255 
L 41.707467 45 
" style="fill:none;stroke:#000000;stroke-dasharray:5.6,2.4;stroke-dashoffset:0;stroke-width:0.5;"/>
   </g>
   <g id="line2d_11">
    <path clip-path="url(#pdc056ecb80)" d="M 40.007182 104.124819 
L 41.707467 104.124819 
L 43.407752 85.982356 
L 45.108037 70.299127 
L 46.808323 58.48964 
L 48.508608 51.539737 
L 50.208893 49.928432 
L 51.909178 53.601628 
L 53.609463 61.998239 
L 55.309749 74.124121 
L 58.710319 104.124819 
L 60.410604 118.978612 
L 62.110889 131.818954 
L 63.811175 141.487744 
L 65.51146 147.177843 
L 67.211745 148.497068 
L 68.91203 145.48971 
L 70.612316 138.615146 
L 72.312601 128.687313 
L 75.713171 104.124819 
L 77.413456 91.963562 
L 79.113742 81.45078 
L 80.814027 73.534644 
L 82.514312 68.875985 
L 84.214597 67.795894 
L 85.914882 70.258111 
L 87.615168 75.886528 
L 89.315453 84.01475 
L 92.716023 104.124819 
L 94.416308 114.081614 
L 96.116594 122.688753 
L 97.816879 129.169937 
L 99.517164 132.984124 
L 101.217449 133.868427 
L 102.917734 131.852534 
L 104.61802 127.244376 
L 106.318305 120.589551 
L 109.718875 104.124819 
L 111.41916 95.972885 
L 113.119446 88.925956 
L 114.819731 83.619611 
L 116.520016 80.496819 
L 118.220301 79.772813 
L 119.920586 81.423286 
L 121.620872 85.196127 
L 123.321157 90.644637 
L 126.721727 104.124819 
L 128.422012 110.799059 
L 130.122298 116.568596 
L 131.822583 120.913063 
L 133.522868 123.46979 
L 135.223153 124.062556 
L 136.923439 122.711262 
L 138.623724 119.622322 
L 140.324009 115.161459 
L 143.724579 104.124819 
L 145.424865 98.660414 
L 147.12515 93.936716 
L 148.825435 90.379767 
L 150.52572 88.286497 
L 152.226005 87.801181 
L 153.926291 88.907526 
L 155.626576 91.436537 
L 157.326861 95.088783 
L 160.727431 104.124819 
L 162.427717 108.598696 
L 164.128002 112.466132 
L 165.828287 115.378316 
L 167.528572 117.092141 
L 169.228857 117.489484 
L 170.929143 116.583685 
L 172.629428 114.513106 
L 174.329713 111.5229 
L 177.730283 104.124819 
L 179.430569 100.461919 
L 181.130854 97.29553 
L 182.831139 94.911235 
L 184.531424 93.508074 
L 186.231709 93.182757 
L 187.931995 93.924363 
L 189.63228 95.619609 
L 191.332565 98.067783 
L 194.733135 104.124819 
L 196.433421 107.123748 
L 198.133706 109.716168 
L 199.833991 111.668264 
L 201.534276 112.817075 
L 203.234561 113.083422 
L 204.934847 112.476246 
L 206.635132 111.088296 
L 208.335417 109.083901 
L 211.735988 104.124819 
L 213.436273 101.669504 
L 215.136558 99.54701 
L 216.836843 97.948769 
L 218.537128 97.008202 
L 220.237414 96.790136 
L 221.937699 97.287249 
L 223.637984 98.423607 
L 225.338269 100.064666 
L 232.13941 107.872813 
L 233.839695 109.181341 
L 235.53998 109.951412 
L 237.240266 110.12995 
L 238.940551 109.722948 
L 240.640836 108.792577 
L 242.341121 107.448991 
L 249.142262 101.056222 
L 250.842547 99.984889 
L 252.542832 99.354408 
L 254.243118 99.208234 
L 255.943403 99.541459 
L 257.643688 100.303182 
L 259.343973 101.403217 
L 266.145114 106.637174 
L 267.845399 107.514307 
L 269.545684 108.030501 
L 271.24597 108.150179 
L 272.946255 107.877357 
L 274.64654 107.253711 
L 276.346825 106.353078 
L 283.147966 102.067877 
L 284.848251 101.349741 
L 286.548537 100.927117 
L 288.248822 100.829133 
L 289.949107 101.052501 
L 291.649392 101.563099 
L 293.349677 102.300475 
L 296.750248 104.124819 
L 300.150818 104.124819 
L 300.150818 104.124819 
" style="fill:none;stroke:#3465a4;stroke-linecap:square;stroke-width:1.5;"/>
    <defs>
     <path d="M 0 1 
C 0.265203 1 0.51958 0.894634 0.707107 0.707107 
C 0.894634 0.51958 1 0.265203 1 0 
C 1 -0.265203 0.894634 -0.51958 0.707107 -0.707107 
C 0.51958 -0.894634 0.265203 -1 0 -1 
C -0.265203 -1 -0.51958 -0.894634 -0.707107 -0.707107 
C -0.894634 -0.51958 -1 -0.265203 -1 0 
C -1 0.265203 -0.894634 0.51958 -0.707107 0.707107 
C -0.51958 0.894634 -0.265203 1 0 1 
z
" id="m12159c5499" style="stroke:#3465a4;"/>
    </defs>
    <g clip-path="url(#pdc056ecb80)">
     <use style="fill:#3465a4;stroke:#3465a4;" x="40.007182" xlink:href="#m12159c5499" y="104.124819"/>
     <use style="fill:#3465a4;stroke:#3465a4;" x="41.707467" xlink:href="#m12159c5499" y="104.124819"/>
     <use style="fill:#3465a4;stroke:#3465a4;" x="43.407752" xlink:href="#m12159c5499" y="85.982356"/>
     <use style="fill:#3465a4;stroke:#3465a4;" x="45.108037" xlink:href="#m12159c5499" y="70.299127"/>
     <use style="fill:#3465a4;stroke:#3465a4;" x="46.808323" xlink:href="#m12159c5499" y="58.48964"/>
     <use style="fill:#3465a4;stroke:#3465a4;" x="48.508608" xlink:href="#m12159c5499" y="51.539737"/>
     <use style="fill:#3465a4;stroke:#3465a4;" x="50.208893" xlink:href="#m12159c5499" y="49.928432"/>
     <use style="fill:#3465a4;stroke:#3465a4;" x="51.909178" xlink:href="#m12159c5499" y="53.601628"/>
     <use style="fill:#3465a4;stroke:#3465a4;" x="53.609463" xlink:href="#m12159c5499" y="61.998239"/>
     <use style="fill:#3465a4;stroke:#3465a4;" x="55.309749" xlink:href="#m12159c5499" y="74.124121"/>
     <use style="fill:#3465a4;stroke:#3465a4;" x="57.010034" xlink:href="#m12159c5499" y="88.664831"/>
     <use style="fill:#3465a4;stroke:#3465a4;" x="58.710319" xlink:href="#m12159c5499" y="104.124819"/>
     <use style="fill:#3465a4;stroke:#3465a4;" x="60.410604" xlink:href="#m12159c5499" y="118.978612"/>
     <use style="fill:#3465a4;stroke:#3465a4;" x="62.110889" xlink:href="#m12159c5499" y="131.818954"/>
     <use style="fill:#3465a4;stroke:#3465a4;" x="63.811175" xlink:href="#m12159c5499" y="141.487744"/>
     <use style="fill:#3465a4;stroke:#3465a4;" x="65.51146" xlink:href="#m12159c5499" y="147.177843"/>
     <use style="fill:#3465a4;stroke:#3465a4;" x="67.211745" xlink:href="#m12159c5499" y="148.497068"/>
     <use style="fill:#3465a4;stroke:#3465a4;" x="68.91203" xlink:href="#m12159c5499" y="145.48971"/>
     <use style="fill:#3465a4;stroke:#3465a4;" x="70.612316" xlink:href="#m12159c5499" y="138.615146"/>
     <use style="fill:#3465a4;stroke:#3465a4;" x="72.312601" xlink:href="#m12159c5499" y="128.687313"/>
     <use style="fill:#3465a4;stroke:#3465a4;" x="74.012886" xlink:href="#m12159c5499" y="116.782387"/>
     <use style="fill:#3465a4;stroke:#3465a4;" x="75.713171" xlink:href="#m12159c5499" y="104.124819"/>
     <use style="fill:#3465a4;stroke:#3465a4;" x="77.413456" xlink:href="#m12159c5499" y="91.963562"/>
     <use style="fill:#3465a4;stroke:#3465a4;" x="79.113742" xlink:href="#m12159c5499" y="81.45078"/>
     <use style="fill:#3465a4;stroke:#3465a4;" x="80.814027" xlink:href="#m12159c5499" y="73.534644"/>
     <use style="fill:#3465a4;stroke:#3465a4;" x="82.514312" xlink:href="#m12159c5499" y="68.875985"/>
     <use style="fill:#3465a4;stroke:#3465a4;" x="84.214597" xlink:href="#m12159c5499" y="67.795894"/>
     <use style="fill:#3465a4;stroke:#3465a4;" x="85.914882" xlink:href="#m12159c5499" y="70.258111"/>
     <use style="fill:#3465a4;stroke:#3465a4;" x="87.615168" xlink:href="#m12159c5499" y="75.886528"/>
     <use style="fill:#3465a4;stroke:#3465a4;" x="89.315453" xlink:href="#m12159c5499" y="84.01475"/>
     <use style="fill:#3465a4;stroke:#3465a4;" x="91.015738" xlink:href="#m12159c5499" y="93.76168"/>
     <use style="fill:#3465a4;stroke:#3465a4;" x="92.716023" xlink:href="#m12159c5499" y="104.124819"/>
     <use style="fill:#3465a4;stroke:#3465a4;" x="94.416308" xlink:href="#m12159c5499" y="114.081614"/>
     <use style="fill:#3465a4;stroke:#3465a4;" x="96.116594" xlink:href="#m12159c5499" y="122.688753"/>
     <use style="fill:#3465a4;stroke:#3465a4;" x="97.816879" xlink:href="#m12159c5499" y="129.169937"/>
     <use style="fill:#3465a4;stroke:#3465a4;" x="99.517164" xlink:href="#m12159c5499" y="132.984124"/>
     <use style="fill:#3465a4;stroke:#3465a4;" x="101.217449" xlink:href="#m12159c5499" y="133.868427"/>
     <use style="fill:#3465a4;stroke:#3465a4;" x="102.917734" xlink:href="#m12159c5499" y="131.852534"/>
     <use style="fill:#3465a4;stroke:#3465a4;" x="104.61802" xlink:href="#m12159c5499" y="127.244376"/>
     <use style="fill:#3465a4;stroke:#3465a4;" x="106.318305" xlink:href="#m12159c5499" y="120.589551"/>
     <use style="fill:#3465a4;stroke:#3465a4;" x="108.01859" xlink:href="#m12159c5499" y="112.60944"/>
     <use style="fill:#3465a4;stroke:#3465a4;" x="109.718875" xlink:href="#m12159c5499" y="104.124819"/>
     <use style="fill:#3465a4;stroke:#3465a4;" x="111.41916" xlink:href="#m12159c5499" y="95.972885"/>
     <use style="fill:#3465a4;stroke:#3465a4;" x="113.119446" xlink:href="#m12159c5499" y="88.925956"/>
     <use style="fill:#3465a4;stroke:#3465a4;" x="114.819731" xlink:href="#m12159c5499" y="83.619611"/>
     <use style="fill:#3465a4;stroke:#3465a4;" x="116.520016" xlink:href="#m12159c5499" y="80.496819"/>
     <use style="fill:#3465a4;stroke:#3465a4;" x="118.220301" xlink:href="#m12159c5499" y="79.772813"/>
     <use style="fill:#3465a4;stroke:#3465a4;" x="119.920586" xlink:href="#m12159c5499" y="81.423286"/>
     <use style="fill:#3465a4;stroke:#3465a4;" x="121.620872" xlink:href="#m12159c5499" y="85.196127"/>
     <use style="fill:#3465a4;stroke:#3465a4;" x="123.321157" xlink:href="#m12159c5499" y="90.644637"/>
     <use style="fill:#3465a4;stroke:#3465a4;" x="125.021442" xlink:href="#m12159c5499" y="97.178199"/>
     <use style="fill:#3465a4;stroke:#3465a4;" x="126.721727" xlink:href="#m12159c5499" y="104.124819"/>
     <use style="fill:#3465a4;stroke:#3465a4;" x="128.422012" xlink:href="#m12159c5499" y="110.799059"/>
     <use style="fill:#3465a4;stroke:#3465a4;" x="130.122298" xlink:href="#m12159c5499" y="116.568596"/>
     <use style="fill:#3465a4;stroke:#3465a4;" x="131.822583" xlink:href="#m12159c5499" y="120.913063"/>
     <use style="fill:#3465a4;stroke:#3465a4;" x="133.522868" xlink:href="#m12159c5499" y="123.46979"/>
     <use style="fill:#3465a4;stroke:#3465a4;" x="135.223153" xlink:href="#m12159c5499" y="124.062556"/>
     <use style="fill:#3465a4;stroke:#3465a4;" x="136.923439" xlink:href="#m12159c5499" y="122.711262"/>
     <use style="fill:#3465a4;stroke:#3465a4;" x="138.623724" xlink:href="#m12159c5499" y="119.622322"/>
     <use style="fill:#3465a4;stroke:#3465a4;" x="140.324009" xlink:href="#m12159c5499" y="115.161459"/>
     <use style="fill:#3465a4;stroke:#3465a4;" x="142.024294" xlink:href="#m12159c5499" y="109.812231"/>
     <use style="fill:#3465a4;stroke:#3465a4;" x="143.724579" xlink:href="#m12159c5499" y="104.124819"/>
     <use style="fill:#3465a4;stroke:#3465a4;" x="145.424865" xlink:href="#m12159c5499" y="98.660414"/>
     <use style="fill:#3465a4;stroke:#3465a4;" x="147.12515" xlink:href="#m12159c5499" y="93.936716"/>
     <use style="fill:#3465a4;stroke:#3465a4;" x="148.825435" xlink:href="#m12159c5499" y="90.379767"/>
     <use style="fill:#3465a4;stroke:#3465a4;" x="150.52572" xlink:href="#m12159c5499" y="88.286497"/>
     <use style="fill:#3465a4;stroke:#3465a4;" x="152.226005" xlink:href="#m12159c5499" y="87.801181"/>
     <use style="fill:#3465a4;stroke:#3465a4;" x="153.926291" xlink:href="#m12159c5499" y="88.907526"/>
     <use style="fill:#3465a4;stroke:#3465a4;" x="155.626576" xlink:href="#m12159c5499" y="91.436537"/>
     <use style="fill:#3465a4;stroke:#3465a4;" x="157.326861" xlink:href="#m12159c5499" y="95.088783"/>
     <use style="fill:#3465a4;stroke:#3465a4;" x="159.027146" xlink:href="#m12159c5499" y="99.46836"/>
     <use style="fill:#3465a4;stroke:#3465a4;" x="160.727431" xlink:href="#m12159c5499" y="104.124819"/>
     <use style="fill:#3465a4;stroke:#3465a4;" x="162.427717" xlink:href="#m12159c5499" y="108.598696"/>
     <use style="fill:#3465a4;stroke:#3465a4;" x="164.128002" xlink:href="#m12159c5499" y="112.466132"/>
     <use style="fill:#3465a4;stroke:#3465a4;" x="165.828287" xlink:href="#m12159c5499" y="115.378316"/>
     <use style="fill:#3465a4;stroke:#3465a4;" x="167.528572" xlink:href="#m12159c5499" y="117.092141"/>
     <use style="fill:#3465a4;stroke:#3465a4;" x="169.228857" xlink:href="#m12159c5499" y="117.489484"/>
     <use style="fill:#3465a4;stroke:#3465a4;" x="170.929143" xlink:href="#m12159c5499" y="116.583685"/>
     <use style="fill:#3465a4;stroke:#3465a4;" x="172.629428" xlink:href="#m12159c5499" y="114.513106"/>
     <use style="fill:#3465a4;stroke:#3465a4;" x="174.329713" xlink:href="#m12159c5499" y="111.5229"/>
     <use style="fill:#3465a4;stroke:#3465a4;" x="176.029998" xlink:href="#m12159c5499" y="107.937205"/>
     <use style="fill:#3465a4;stroke:#3465a4;" x="177.730283" xlink:href="#m12159c5499" y="104.124819"/>
     <use style="fill:#3465a4;stroke:#3465a4;" x="179.430569" xlink:href="#m12159c5499" y="100.461919"/>
     <use style="fill:#3465a4;stroke:#3465a4;" x="181.130854" xlink:href="#m12159c5499" y="97.29553"/>
     <use style="fill:#3465a4;stroke:#3465a4;" x="182.831139" xlink:href="#m12159c5499" y="94.911235"/>
     <use style="fill:#3465a4;stroke:#3465a4;" x="184.531424" xlink:href="#m12159c5499" y="93.508074"/>
     <use style="fill:#3465a4;stroke:#3465a4;" x="186.231709" xlink:href="#m12159c5499" y="93.182757"/>
     <use style="fill:#3465a4;stroke:#3465a4;" x="187.931995" xlink:href="#m12159c5499" y="93.924363"/>
     <use style="fill:#3465a4;stroke:#3465a4;" x="189.63228" xlink:href="#m12159c5499" y="95.619609"/>
     <use style="fill:#3465a4;stroke:#3465a4;" x="191.332565" xlink:href="#m12159c5499" y="98.067783"/>
     <use style="fill:#3465a4;stroke:#3465a4;" x="193.03285" xlink:href="#m12159c5499" y="101.003501"/>
     <use style="fill:#3465a4;stroke:#3465a4;" x="194.733135" xlink:href="#m12159c5499" y="104.124819"/>
     <use style="fill:#3465a4;stroke:#3465a4;" x="196.433421" xlink:href="#m12159c5499" y="107.123748"/>
     <use style="fill:#3465a4;stroke:#3465a4;" x="198.133706" xlink:href="#m12159c5499" y="109.716168"/>
     <use style="fill:#3465a4;stroke:#3465a4;" x="199.833991" xlink:href="#m12159c5499" y="111.668264"/>
     <use style="fill:#3465a4;stroke:#3465a4;" x="201.534276" xlink:href="#m12159c5499" y="112.817075"/>
     <use style="fill:#3465a4;stroke:#3465a4;" x="203.234561" xlink:href="#m12159c5499" y="113.083422"/>
     <use style="fill:#3465a4;stroke:#3465a4;" x="204.934847" xlink:href="#m12159c5499" y="112.476246"/>
     <use style="fill:#3465a4;stroke:#3465a4;" x="206.635132" xlink:href="#m12159c5499" y="111.088296"/>
     <use style="fill:#3465a4;stroke:#3465a4;" x="208.335417" xlink:href="#m12159c5499" y="109.083901"/>
     <use style="fill:#3465a4;stroke:#3465a4;" x="210.035702" xlink:href="#m12159c5499" y="106.680338"/>
     <use style="fill:#3465a4;stroke:#3465a4;" x="211.735988" xlink:href="#m12159c5499" y="104.124819"/>
     <use style="fill:#3465a4;stroke:#3465a4;" x="213.436273" xlink:href="#m12159c5499" y="101.669504"/>
     <use style="fill:#3465a4;stroke:#3465a4;" x="215.136558" xlink:href="#m12159c5499" y="99.54701"/>
     <use style="fill:#3465a4;stroke:#3465a4;" x="216.836843" xlink:href="#m12159c5499" y="97.948769"/>
     <use style="fill:#3465a4;stroke:#3465a4;" x="218.537128" xlink:href="#m12159c5499" y="97.008202"/>
     <use style="fill:#3465a4;stroke:#3465a4;" x="220.237414" xlink:href="#m12159c5499" y="96.790136"/>
     <use style="fill:#3465a4;stroke:#3465a4;" x="221.937699" xlink:href="#m12159c5499" y="97.287249"/>
     <use style="fill:#3465a4;stroke:#3465a4;" x="223.637984" xlink:href="#m12159c5499" y="98.423607"/>
     <use style="fill:#3465a4;stroke:#3465a4;" x="225.338269" xlink:href="#m12159c5499" y="100.064666"/>
     <use style="fill:#3465a4;stroke:#3465a4;" x="227.038554" xlink:href="#m12159c5499" y="102.032537"/>
     <use style="fill:#3465a4;stroke:#3465a4;" x="228.73884" xlink:href="#m12159c5499" y="104.124819"/>
     <use style="fill:#3465a4;stroke:#3465a4;" x="230.439125" xlink:href="#m12159c5499" y="106.135061"/>
     <use style="fill:#3465a4;stroke:#3465a4;" x="232.13941" xlink:href="#m12159c5499" y="107.872813"/>
     <use style="fill:#3465a4;stroke:#3465a4;" x="233.839695" xlink:href="#m12159c5499" y="109.181341"/>
     <use style="fill:#3465a4;stroke:#3465a4;" x="235.53998" xlink:href="#m12159c5499" y="109.951412"/>
     <use style="fill:#3465a4;stroke:#3465a4;" x="237.240266" xlink:href="#m12159c5499" y="110.12995"/>
     <use style="fill:#3465a4;stroke:#3465a4;" x="238.940551" xlink:href="#m12159c5499" y="109.722948"/>
     <use style="fill:#3465a4;stroke:#3465a4;" x="240.640836" xlink:href="#m12159c5499" y="108.792577"/>
     <use style="fill:#3465a4;stroke:#3465a4;" x="242.341121" xlink:href="#m12159c5499" y="107.448991"/>
     <use style="fill:#3465a4;stroke:#3465a4;" x="244.041406" xlink:href="#m12159c5499" y="105.837835"/>
     <use style="fill:#3465a4;stroke:#3465a4;" x="245.741692" xlink:href="#m12159c5499" y="104.124819"/>
     <use style="fill:#3465a4;stroke:#3465a4;" x="247.441977" xlink:href="#m12159c5499" y="102.478972"/>
     <use style="fill:#3465a4;stroke:#3465a4;" x="249.142262" xlink:href="#m12159c5499" y="101.056222"/>
     <use style="fill:#3465a4;stroke:#3465a4;" x="250.842547" xlink:href="#m12159c5499" y="99.984889"/>
     <use style="fill:#3465a4;stroke:#3465a4;" x="252.542832" xlink:href="#m12159c5499" y="99.354408"/>
     <use style="fill:#3465a4;stroke:#3465a4;" x="254.243118" xlink:href="#m12159c5499" y="99.208234"/>
     <use style="fill:#3465a4;stroke:#3465a4;" x="255.943403" xlink:href="#m12159c5499" y="99.541459"/>
     <use style="fill:#3465a4;stroke:#3465a4;" x="257.643688" xlink:href="#m12159c5499" y="100.303182"/>
     <use style="fill:#3465a4;stroke:#3465a4;" x="259.343973" xlink:href="#m12159c5499" y="101.403217"/>
     <use style="fill:#3465a4;stroke:#3465a4;" x="261.044258" xlink:href="#m12159c5499" y="102.722321"/>
     <use style="fill:#3465a4;stroke:#3465a4;" x="262.744544" xlink:href="#m12159c5499" y="104.124819"/>
     <use style="fill:#3465a4;stroke:#3465a4;" x="264.444829" xlink:href="#m12159c5499" y="105.472325"/>
     <use style="fill:#3465a4;stroke:#3465a4;" x="266.145114" xlink:href="#m12159c5499" y="106.637174"/>
     <use style="fill:#3465a4;stroke:#3465a4;" x="267.845399" xlink:href="#m12159c5499" y="107.514307"/>
     <use style="fill:#3465a4;stroke:#3465a4;" x="269.545684" xlink:href="#m12159c5499" y="108.030501"/>
     <use style="fill:#3465a4;stroke:#3465a4;" x="271.24597" xlink:href="#m12159c5499" y="108.150179"/>
     <use style="fill:#3465a4;stroke:#3465a4;" x="272.946255" xlink:href="#m12159c5499" y="107.877357"/>
     <use style="fill:#3465a4;stroke:#3465a4;" x="274.64654" xlink:href="#m12159c5499" y="107.253711"/>
     <use style="fill:#3465a4;stroke:#3465a4;" x="276.346825" xlink:href="#m12159c5499" y="106.353078"/>
     <use style="fill:#3465a4;stroke:#3465a4;" x="278.047111" xlink:href="#m12159c5499" y="105.273088"/>
     <use style="fill:#3465a4;stroke:#3465a4;" x="279.747396" xlink:href="#m12159c5499" y="104.124819"/>
     <use style="fill:#3465a4;stroke:#3465a4;" x="281.447681" xlink:href="#m12159c5499" y="103.021575"/>
     <use style="fill:#3465a4;stroke:#3465a4;" x="283.147966" xlink:href="#m12159c5499" y="102.067877"/>
     <use style="fill:#3465a4;stroke:#3465a4;" x="284.848251" xlink:href="#m12159c5499" y="101.349741"/>
     <use style="fill:#3465a4;stroke:#3465a4;" x="286.548537" xlink:href="#m12159c5499" y="100.927117"/>
     <use style="fill:#3465a4;stroke:#3465a4;" x="288.248822" xlink:href="#m12159c5499" y="100.829133"/>
     <use style="fill:#3465a4;stroke:#3465a4;" x="289.949107" xlink:href="#m12159c5499" y="101.052501"/>
     <use style="fill:#3465a4;stroke:#3465a4;" x="291.649392" xlink:href="#m12159c5499" y="101.563099"/>
     <use style="fill:#3465a4;stroke:#3465a4;" x="293.349677" xlink:href="#m12159c5499" y="102.300475"/>
     <use style="fill:#3465a4;stroke:#3465a4;" x="295.049963" xlink:href="#m12159c5499" y="103.184696"/>
     <use style="fill:#3465a4;stroke:#3465a4;" x="296.750248" xlink:href="#m12159c5499" y="104.124819"/>
     <use style="fill:#3465a4;stroke:#3465a4;" x="298.450533" xlink:href="#m12159c5499" y="104.124819"/>
     <use style="fill:#3465a4;stroke:#3465a4;" x="300.150818" xlink:href="#m12159c5499" y="104.124819"/>
    </g>
   </g>
   <g id="patch_3">
    <path d="M 27 153.4255 
L 27 45 
" style="fill:none;stroke:#000000;stroke-linecap:square;stroke-linejoin:miter;stroke-width:1.5;"/>
   </g>
   <g id="patch_4">
    <path d="M 313.158 153.4255 
L 313.158 45 
" style="fill:none;stroke:#000000;stroke-linecap:square;stroke-linejoin:miter;stroke-width:1.5;"/>
   </g>
   <g id="patch_5">
    <path d="M 27 153.4255 
L 313.158 153.4255 
" style="fill:none;stroke:#000000;stroke-linecap:square;stroke-linejoin:miter;stroke-width:1.5;"/>
   </g>
   <g id="patch_6">
    <path d="M 27 45 
L 313.158 45 
" style="fill:none;stroke:#000000;stroke-linecap:square;stroke-linejoin:miter;stroke-width:1.5;"/>
   </g>
   <g id="text_11">
    <!-- ResonatorSTF -->
    <defs>
     <path d="M 44.390625 34.1875 
Q 47.5625 33.109375 50.5625 29.59375 
Q 53.5625 26.078125 56.59375 19.921875 
L 66.609375 0 
L 56 0 
L 46.6875 18.703125 
Q 43.0625 26.03125 39.671875 28.421875 
Q 36.28125 30.8125 30.421875 30.8125 
L 19.671875 30.8125 
L 19.671875 0 
L 9.8125 0 
L 9.8125 72.90625 
L 32.078125 72.90625 
Q 44.578125 72.90625 50.734375 67.671875 
Q 56.890625 62.453125 56.890625 51.90625 
Q 56.890625 45.015625 53.6875 40.46875 
Q 50.484375 35.9375 44.390625 34.1875 
M 19.671875 64.796875 
L 19.671875 38.921875 
L 32.078125 38.921875 
Q 39.203125 38.921875 42.84375 42.21875 
Q 46.484375 45.515625 46.484375 51.90625 
Q 46.484375 58.296875 42.84375 61.546875 
Q 39.203125 64.796875 32.078125 64.796875 
z
" id="DejaVuSans-52"/>
     <path d="M 30.609375 48.390625 
Q 23.390625 48.390625 19.1875 42.75 
Q 14.984375 37.109375 14.984375 27.296875 
Q 14.984375 17.484375 19.15625 11.84375 
Q 23.34375 6.203125 30.609375 6.203125 
Q 37.796875 6.203125 41.984375 11.859375 
Q 46.1875 17.53125 46.1875 27.296875 
Q 46.1875 37.015625 41.984375 42.703125 
Q 37.796875 48.390625 30.609375 48.390625 
M 30.609375 56 
Q 42.328125 56 49.015625 48.375 
Q 55.71875 40.765625 55.71875 27.296875 
Q 55.71875 13.875 49.015625 6.21875 
Q 42.328125 -1.421875 30.609375 -1.421875 
Q 18.84375 -1.421875 12.171875 6.21875 
Q 5.515625 13.875 5.515625 27.296875 
Q 5.515625 40.765625 12.171875 48.375 
Q 18.84375 56 30.609375 56 
" id="DejaVuSans-6f"/>
     <path d="M 54.890625 33.015625 
L 54.890625 0 
L 45.90625 0 
L 45.90625 32.71875 
Q 45.90625 40.484375 42.875 44.328125 
Q 39.84375 48.1875 33.796875 48.1875 
Q 26.515625 48.1875 22.3125 43.546875 
Q 18.109375 38.921875 18.109375 30.90625 
L 18.109375 0 
L 9.078125 0 
L 9.078125 54.6875 
L 18.109375 54.6875 
L 18.109375 46.1875 
Q 21.34375 51.125 25.703125 53.5625 
Q 30.078125 56 35.796875 56 
Q 45.21875 56 50.046875 50.171875 
Q 54.890625 44.34375 54.890625 33.015625 
" id="DejaVuSans-6e"/>
     <path d="M 34.28125 27.484375 
Q 23.390625 27.484375 19.1875 25 
Q 14.984375 22.515625 14.984375 16.5 
Q 14.984375 11.71875 18.140625 8.90625 
Q 21.296875 6.109375 26.703125 6.109375 
Q 34.1875 6.109375 38.703125 11.40625 
Q 43.21875 16.703125 43.21875 25.484375 
L 43.21875 27.484375 
z
M 52.203125 31.203125 
L 52.203125 0 
L 43.21875 0 
L 43.21875 8.296875 
Q 40.140625 3.328125 35.546875 0.953125 
Q 30.953125 -1.421875 24.3125 -1.421875 
Q 15.921875 -1.421875 10.953125 3.296875 
Q 6 8.015625 6 15.921875 
Q 6 25.140625 12.171875 29.828125 
Q 18.359375 34.515625 30.609375 34.515625 
L 43.21875 34.515625 
L 43.21875 35.40625 
Q 43.21875 41.609375 39.140625 45 
Q 35.0625 48.390625 27.6875 48.390625 
Q 23 48.390625 18.546875 47.265625 
Q 14.109375 46.140625 10.015625 43.890625 
L 10.015625 52.203125 
Q 14.9375 54.109375 19.578125 55.046875 
Q 24.21875 56 28.609375 56 
Q 40.484375 56 46.34375 49.84375 
Q 52.203125 43.703125 52.203125 31.203125 
" id="DejaVuSans-61"/>
     <path d="M 41.109375 46.296875 
Q 39.59375 47.171875 37.8125 47.578125 
Q 36.03125 48 33.890625 48 
Q 26.265625 48 22.1875 43.046875 
Q 18.109375 38.09375 18.109375 28.8125 
L 18.109375 0 
L 9.078125 0 
L 9.078125 54.6875 
L 18.109375 54.6875 
L 18.109375 46.1875 
Q 20.953125 51.171875 25.484375 53.578125 
Q 30.03125 56 36.53125 56 
Q 37.453125 56 38.578125 55.875 
Q 39.703125 55.765625 41.0625 55.515625 
z
" id="DejaVuSans-72"/>
     <path d="M 53.515625 70.515625 
L 53.515625 60.890625 
Q 47.90625 63.578125 42.921875 64.890625 
Q 37.9375 66.21875 33.296875 66.21875 
Q 25.25 66.21875 20.875 63.09375 
Q 16.5 59.96875 16.5 54.203125 
Q 16.5 49.359375 19.40625 46.890625 
Q 22.3125 44.4375 30.421875 42.921875 
L 36.375 41.703125 
Q 47.40625 39.59375 52.65625 34.296875 
Q 57.90625 29 57.90625 20.125 
Q 57.90625 9.515625 50.796875 4.046875 
Q 43.703125 -1.421875 29.984375 -1.421875 
Q 24.8125 -1.421875 18.96875 -0.25 
Q 13.140625 0.921875 6.890625 3.21875 
L 6.890625 13.375 
Q 12.890625 10.015625 18.65625 8.296875 
Q 24.421875 6.59375 29.984375 6.59375 
Q 38.421875 6.59375 43.015625 9.90625 
Q 47.609375 13.234375 47.609375 19.390625 
Q 47.609375 24.75 44.3125 27.78125 
Q 41.015625 30.8125 33.5 32.328125 
L 27.484375 33.5 
Q 16.453125 35.6875 11.515625 40.375 
Q 6.59375 45.0625 6.59375 53.421875 
Q 6.59375 63.09375 13.40625 68.65625 
Q 20.21875 74.21875 32.171875 74.21875 
Q 37.3125 74.21875 42.625 73.28125 
Q 47.953125 72.359375 53.515625 70.515625 
" id="DejaVuSans-53"/>
     <path d="M 9.8125 72.90625 
L 51.703125 72.90625 
L 51.703125 64.59375 
L 19.671875 64.59375 
L 19.671875 43.109375 
L 48.578125 43.109375 
L 48.578125 34.8125 
L 19.671875 34.8125 
L 19.671875 0 
L 9.8125 0 
z
" id="DejaVuSans-46"/>
    </defs>
    <g transform="translate(138.917906 36)scale(0.09 -0.09)">
     <use xlink:href="#DejaVuSans-52"/>
     <use x="69.419922" xlink:href="#DejaVuSans-65"/>
     <use x="130.943359" xlink:href="#DejaVuSans-73"/>
     <use x="183.042969" xlink:href="#DejaVuSans-6f"/>
     <use x="244.224609" xlink:href="#DejaVuSans-6e"/>
     <use x="307.603516" xlink:href="#DejaVuSans-61"/>
     <use x="368.882812" xlink:href="#DejaVuSans-74"/>
     <use x="408.091797" xlink:href="#DejaVuSans-6f"/>
     <use x="469.273438" xlink:href="#DejaVuSans-72"/>
     <use x="510.386719" xlink:href="#DejaVuSans-53"/>
     <use x="573.863281" xlink:href="#DejaVuSans-54"/>
     <use x="634.947266" xlink:href="#DejaVuSans-46"/>
    </g>
   </g>
  </g>
 </g>
 <defs>
  <clipPath id="pdc056ecb80">
   <rect height="108.4255" width="286.158" x="27" y="45"/>
  </clipPath>
 </defs>
</svg>
